<svg width="40" height="40" viewBox="0 0 40 40" fill="none" xmlns="http://www.w3.org/2000/svg">
<path d="M11.1699 15.4395L19.9999 20.5495L28.7699 15.4695" stroke="#559A95" stroke-width="1.2" stroke-linecap="round" stroke-linejoin="round"/>
<path d="M20 29.6091V20.5391" stroke="#559A95" stroke-width="1.2" stroke-linecap="round" stroke-linejoin="round"/>
<path d="M17.9306 10.4793L12.5906 13.4393C11.3806 14.1093 10.3906 15.7893 10.3906 17.1693V22.8193C10.3906 24.1993 11.3806 25.8793 12.5906 26.5493L17.9306 29.5193C19.0706 30.1493 20.9406 30.1493 22.0806 29.5193L27.4206 26.5493C28.6306 25.8793 29.6206 24.1993 29.6206 22.8193V17.1693C29.6206 15.7893 28.6306 14.1093 27.4206 13.4393L22.0806 10.4693C20.9306 9.8393 19.0706 9.8393 17.9306 10.4793Z" stroke="#559A95" stroke-width="1.2" stroke-linecap="round" stroke-linejoin="round"/>
<rect x="0.5" y="0.5" width="39" height="39" rx="5.5" stroke="#E1E1E6"/>
</svg>
