<svg width="100" height="103" viewBox="0 0 100 103" fill="none" xmlns="http://www.w3.org/2000/svg">
<path d="M-15.9745 50.9373C-22.6182 22.462 -4.92016 -6.0075 23.5551 -12.6511C52.0303 -19.2948 80.4998 -1.59674 87.1435 26.8785C93.7871 55.3538 76.0891 83.8232 47.6138 90.4669C19.1386 97.1105 -9.33089 79.4125 -15.9745 50.9373Z" fill="white"/>
<path opacity="0.48" d="M41.1917 89.4893C69.113 86.3612 89.3878 61.2205 86.2597 33.1833C83.1316 5.26203 57.9908 -15.0128 29.9536 -11.8847C2.03235 -8.75656 -18.2424 16.3842 -15.1143 44.4214C-11.9862 72.3427 13.2704 92.6174 41.1917 89.4893ZM30.0695 -11.1895C57.6432 -14.2018 82.5523 5.72544 85.5645 33.2992C88.5768 60.8729 68.6496 85.7819 41.0758 88.7942C13.5021 91.8064 -11.4069 71.8792 -14.4192 44.3055C-17.4314 16.8476 2.49578 -8.06141 30.0695 -11.1895Z" fill="#C4C6C9"/>
<path d="M-1.65817 63.2373C-15.108 42.6743 -9.34169 15.1014 11.2213 1.65157C31.7843 -11.7983 59.3572 -6.03192 72.807 14.5311C86.2569 35.0941 80.4906 62.6669 59.9276 76.1168C39.3646 89.5666 11.7917 83.8003 -1.65817 63.2373Z" fill="#C4C6C9"/>
<path d="M24.1603 22.1763L22.8859 11.0541C22.4225 7.11501 27.2884 3.29176 33.7764 2.59662C40.2643 1.90149 45.8254 4.56618 46.2888 8.50528L47.5632 20.0909C48.0266 24.03 43.1607 27.8532 36.6728 28.5484C30.4165 29.2435 25.0871 26.8105 24.2762 23.1031C24.2762 22.9873 24.1603 22.7556 24.1603 22.6397C24.1603 22.408 24.1603 22.2922 24.1603 22.1763Z" fill="#2D2E32"/>
<path opacity="0.43" d="M22.8863 11.0558C22.4228 7.11666 27.2888 3.2934 33.7767 2.59827C34.5877 2.48241 35.2828 2.48242 36.0938 2.48242C30.7645 3.75684 27.0571 7.11666 27.4046 10.5923L28.6791 21.7145C28.6791 21.8304 28.6791 22.0621 28.6791 22.1779C28.6791 22.2938 28.679 22.5255 28.7949 22.6414C29.49 25.8853 33.7767 28.2025 38.9902 28.2025C38.2951 28.3183 37.4841 28.55 36.789 28.55C30.5328 29.2452 25.2034 26.8122 24.3924 23.1048C24.3924 22.9889 24.2765 22.7572 24.2765 22.6414C24.2765 22.5255 24.2765 22.2938 24.2765 22.1779L22.8863 11.0558Z" fill="#2D2E32"/>
<path d="M22.7707 10.3588C23.2341 14.2979 28.7952 16.9626 35.2831 16.2674C41.771 15.5723 46.637 11.7491 46.1736 7.80996C45.7101 3.87085 40.1491 1.20617 33.6611 1.90131C27.2891 2.48059 22.3072 6.30384 22.7707 10.3588Z" fill="white"/>
<path d="M24.0453 6.53516C24.0453 6.76687 24.0453 6.99858 24.0453 7.34614C24.1612 11.4011 30.0698 14.4134 37.2529 13.9499C40.1493 13.7182 42.814 13.0231 44.8994 11.9804C43.0457 14.1817 39.57 15.9195 35.3992 16.3829C28.9113 17.0781 23.3502 14.4134 22.8868 10.4743C22.6551 8.96813 23.1185 7.69372 24.0453 6.53516Z" fill="#E4E5E6"/>
<path d="M40.7285 9.77916C40.381 -0.763738 24.5087 4.79734 29.1429 12.2121C30.4173 14.2975 40.8444 13.4866 40.7285 9.77916C40.7285 9.54745 40.7285 10.1267 40.7285 9.77916Z" fill="#F0BB6F"/>
<path d="M22.7704 10.3597V10.4756C22.7704 10.4756 22.7704 10.5914 22.7704 10.7073C22.7704 10.8231 22.7704 10.939 22.8863 10.939C22.8863 11.1707 23.0021 11.4024 23.118 11.75C23.2339 12.0976 23.4656 12.3293 23.6973 12.6768C24.1607 13.372 24.9717 14.0671 25.8985 14.6464C26.9412 15.2257 28.0998 15.805 29.4901 16.0367C30.8803 16.3842 32.5023 16.5001 34.1243 16.3842C35.7463 16.2684 37.4841 15.9208 39.222 15.3415C40.844 14.7622 42.5818 13.8354 43.9721 12.561C44.3196 12.2134 44.6672 11.8659 44.8989 11.5183C45.2465 11.1707 45.4782 10.7073 45.7099 10.3597C46.1733 9.54874 46.4051 8.50602 46.2892 7.57917C46.1733 6.65232 45.8258 5.72547 45.1306 4.91448C44.7831 4.56691 44.4355 4.21935 44.0879 3.87178C43.7404 3.52422 43.2769 3.29251 42.9294 3.0608C41.3074 2.13395 39.4537 1.67051 37.6 1.4388C35.8622 1.20709 34.0085 1.32295 32.3865 1.55466C30.7645 1.78638 29.2584 2.36565 27.984 2.94493C26.7095 3.52421 25.551 4.33521 24.74 5.14621C23.929 5.9572 23.3497 6.76818 23.0021 7.57917C22.8863 7.92674 22.7704 8.27432 22.6546 8.62189C22.5387 8.96946 22.5387 9.20116 22.5387 9.43288C22.5387 9.54873 22.5387 9.66459 22.5387 9.78045C22.5387 9.8963 22.5387 9.8963 22.5387 10.0122C22.7704 10.2439 22.7704 10.3597 22.7704 10.3597ZM22.7704 10.3597V10.2439C22.7704 10.2439 22.7704 10.128 22.7704 10.0122C22.7704 9.8963 22.7704 9.78044 22.7704 9.66458C22.7704 9.43287 22.7704 9.20116 22.8863 8.8536C23.0022 8.50603 23.118 8.15845 23.2339 7.81088C23.5814 7.11575 24.1607 6.1889 25.0876 5.49376C25.8986 4.68277 27.0571 3.98764 28.3315 3.52421C29.6059 2.94493 31.1121 2.48152 32.7341 2.24981C34.3561 2.01809 36.0939 1.90223 37.8317 2.13394C39.5696 2.36566 41.4233 2.71323 42.9294 3.64008C43.2769 3.87179 43.7404 4.1035 44.0879 4.45106C44.4355 4.68278 44.7831 5.03035 45.1306 5.37792C45.7099 6.07305 46.1733 6.99989 46.2892 7.81088C46.4051 8.73773 46.1733 9.66458 45.8258 10.4756C45.5941 10.939 45.3623 11.2866 45.1306 11.6341C44.8989 11.9817 44.5514 12.3293 44.2038 12.6768C42.8135 13.9513 41.1915 14.7622 39.4537 15.3415C37.7159 15.9208 36.0939 16.1525 34.4719 16.2684C32.8499 16.3842 31.3438 16.2684 29.9535 15.9208C28.5632 15.6891 27.2888 15.2257 26.362 14.6464C25.3193 14.0671 24.6241 13.372 24.0449 12.7927C23.8132 12.4451 23.5814 12.0976 23.4656 11.8658C23.3497 11.5183 23.2339 11.2866 23.2339 11.0549C23.2339 10.939 23.2339 10.8231 23.118 10.8231C23.118 10.7073 23.118 10.7073 23.118 10.5914C22.7704 10.3597 22.7704 10.3597 22.7704 10.3597Z" fill="#2D2E32"/>
<path d="M48.3742 24.9556L47.0998 13.8334C46.6363 9.89431 51.5023 6.07105 57.9902 5.37592C64.4782 4.68078 70.0392 7.34546 70.5027 11.2846L71.7771 22.8702C72.2405 26.8093 67.3746 30.6325 60.8866 31.3277C54.6304 32.0228 49.301 29.5898 48.49 25.8824C48.49 25.7666 48.3742 25.5349 48.3742 25.419C48.3742 25.1873 48.3742 25.0714 48.3742 24.9556Z" fill="#2D2E32"/>
<path opacity="0.43" d="M47.1001 13.8351C46.6367 9.89597 51.5026 6.07272 57.9906 5.37758C58.8016 5.26173 59.4967 5.26172 60.3077 5.26172C54.9783 6.53613 51.2709 9.89596 51.6185 13.3716L52.8929 24.4938C52.8929 24.6097 52.8929 24.8414 52.8929 24.9572C52.8929 25.0731 52.8929 25.3048 53.0088 25.4207C53.7039 28.6646 57.9906 30.9818 63.2041 30.9818C62.509 31.0976 61.698 31.3293 61.0028 31.3293C54.7466 32.0245 49.4172 29.5915 48.6062 25.8841C48.6062 25.7682 48.4904 25.5365 48.4904 25.4207C48.4904 25.3048 48.4904 25.0731 48.4904 24.9572L47.1001 13.8351Z" fill="#2D2E32"/>
<path d="M47.0998 13.1401C47.5632 17.0792 53.1243 19.7438 59.6122 19.0487C66.1001 18.3536 70.9661 14.5303 70.5027 10.5912C70.0392 6.65212 64.4782 3.98742 57.9902 4.68256C51.5023 5.26184 46.6364 9.08509 47.0998 13.1401Z" fill="white"/>
<path d="M48.2582 9.31641C48.2582 9.54812 48.2582 9.77983 48.2582 10.1274C48.3741 14.1824 54.2827 17.1946 61.4658 16.7312C64.3622 16.4995 67.0269 15.8043 69.1123 14.7616C67.2586 16.9629 63.7829 18.7007 59.6121 19.1642C53.1242 19.8593 47.5631 17.1946 47.0997 13.2555C46.868 11.7494 47.3314 10.475 48.2582 9.31641Z" fill="#E4E5E6"/>
<path d="M64.9417 12.5604C64.5941 2.01751 48.7218 7.5786 53.3561 14.9934C54.7463 17.0788 65.0575 16.2678 64.9417 12.5604C64.9417 12.3287 65.0575 12.908 64.9417 12.5604Z" fill="#C85743"/>
<path d="M47.0995 13.139V13.2549C47.0995 13.2549 47.0995 13.3707 47.0995 13.4866C47.0995 13.6024 47.0996 13.7183 47.2154 13.7183C47.2154 13.95 47.3312 14.1817 47.4471 14.5293C47.563 14.8768 47.7947 15.1086 48.0264 15.4561C48.4898 16.1513 49.3008 16.8464 50.2276 17.4257C51.2703 18.005 52.4289 18.5842 53.8192 18.8159C55.2095 19.1635 56.8314 19.2794 58.4534 19.1635C60.0754 19.0477 61.8132 18.7001 63.5511 18.1208C65.1731 17.5415 66.9109 16.6147 68.3012 15.3403C68.6487 14.9927 68.9963 14.6451 69.228 14.2976C69.5756 13.95 69.8073 13.4866 70.039 13.139C70.5024 12.328 70.7342 11.2853 70.6183 10.3585C70.5024 9.43163 70.1549 8.50478 69.4597 7.69378C69.1122 7.34622 68.7646 6.99864 68.417 6.65107C68.0695 6.3035 67.6061 6.07179 67.2585 5.84008C65.6365 4.91323 63.7828 4.44982 61.9291 4.2181C60.1913 3.98639 58.3376 4.10224 56.7156 4.33395C55.0936 4.56566 53.5875 5.14495 52.3131 5.72423C51.0386 6.30351 49.8801 7.1145 49.0691 7.92549C48.2581 8.73648 47.6788 9.54748 47.3312 10.3585C47.2154 10.706 47.0995 11.0536 46.9837 11.4012C46.8678 11.7487 46.8678 11.9804 46.8678 12.2122C46.8678 12.328 46.8678 12.4439 46.8678 12.5597C46.8678 12.6756 46.8678 12.6756 46.8678 12.7914C47.0995 13.0232 47.0995 13.139 47.0995 13.139ZM47.0995 13.139V13.0231C47.0995 13.0231 47.0995 12.9073 47.0995 12.7914C47.0995 12.6756 47.0995 12.5597 47.0995 12.4439C47.0995 12.2122 47.0996 11.9804 47.2154 11.6329C47.3313 11.2853 47.4471 10.9378 47.563 10.5902C47.9105 9.89505 48.4898 8.9682 49.4167 8.27306C50.2277 7.46207 51.3862 6.76694 52.6606 6.30351C53.935 5.72423 55.4412 5.2608 57.0632 5.02909C58.6852 4.79738 60.423 4.68152 62.1608 4.91323C63.8987 5.14494 65.7524 5.49251 67.2585 6.41936C67.6061 6.65107 68.0695 6.88278 68.417 7.23035C68.7646 7.46206 69.1122 7.80963 69.4597 8.1572C70.039 8.85234 70.5024 9.77919 70.6183 10.5902C70.7342 11.517 70.5025 12.4439 70.1549 13.2549C69.9232 13.7183 69.6915 14.0659 69.4597 14.4134C69.228 14.761 68.8805 15.1086 68.5329 15.4561C67.1426 16.7305 65.5206 17.5415 63.7828 18.1208C62.045 18.7001 60.423 18.9318 58.801 19.0477C57.179 19.1635 55.6729 19.0477 54.2826 18.7001C52.8923 18.4684 51.6179 18.005 50.6911 17.4257C49.6484 16.8464 48.9532 16.1513 48.374 15.572C48.1423 15.2244 47.9105 14.8769 47.7947 14.6451C47.6788 14.2976 47.563 14.0659 47.563 13.8342C47.563 13.7183 47.563 13.6024 47.4471 13.6024C47.4471 13.4866 47.4471 13.4866 47.4471 13.3707C47.0995 13.139 47.0995 13.139 47.0995 13.139Z" fill="#2D2E32"/>
<path d="M0.75798 25.8833L-0.516443 14.7611C-0.979868 10.822 3.88608 6.99879 10.374 6.30365C16.862 5.60852 22.4231 8.27319 22.8865 12.2123L24.1609 23.7979C24.6243 27.737 19.7584 31.5603 13.2704 32.2554C7.01419 32.9505 1.68484 30.5176 0.873842 26.8102C0.873842 26.6943 0.75798 26.4626 0.75798 26.3467C0.75798 26.2309 0.75798 26.115 0.75798 25.8833Z" fill="#2D2E32"/>
<path opacity="0.43" d="M-0.516088 14.878C-0.979513 10.9389 3.88643 7.11567 10.3744 6.42053C11.1854 6.30468 11.8805 6.30469 12.6915 6.30469C7.36211 7.5791 3.65472 10.9389 4.00229 14.4146L5.27671 25.5368C5.27671 25.6526 5.27671 25.8844 5.27671 26.0002C5.27671 26.1161 5.27672 26.3478 5.39258 26.4636C6.08771 29.7076 10.3744 32.0247 15.5879 32.0247C14.8928 32.1406 14.0818 32.3723 13.3866 32.3723C7.13041 33.0674 1.80102 30.6344 0.990026 26.927C0.990026 26.8112 0.874198 26.5795 0.874198 26.4636C0.874198 26.3478 0.874198 26.1161 0.874198 26.0002L-0.516088 14.878Z" fill="#2D2E32"/>
<path d="M-0.51647 14.1811C-0.0530453 18.1202 5.50803 20.7848 11.996 20.0897C18.4839 19.3946 23.3499 15.5713 22.8865 11.6322C22.423 7.69312 16.8619 5.02844 10.374 5.72358C3.88605 6.30286 -0.979893 10.1261 -0.51647 14.1811Z" fill="white"/>
<path d="M0.642012 10.3574C0.642012 10.5891 0.642012 10.8208 0.642012 11.1684C0.757868 15.2234 6.66652 18.2356 13.8496 17.7722C16.746 17.5405 19.4107 16.8454 21.4961 15.8027C19.6424 18.0039 16.1667 19.7418 11.9959 20.2052C5.50795 20.9003 -0.0531254 18.2356 -0.51655 14.2965C-0.74826 12.7904 -0.284838 11.516 0.642012 10.3574Z" fill="#E4E5E6"/>
<path d="M17.3252 13.6014C16.9776 3.05852 1.10536 8.61962 5.7396 16.0344C7.12987 18.1198 17.4411 17.3088 17.3252 13.6014C17.3252 13.3697 17.3252 13.949 17.3252 13.6014Z" fill="#A7AF3E"/>
<path d="M-0.63253 14.182V14.2978C-0.63253 14.2978 -0.63253 14.4137 -0.63253 14.5295C-0.63253 14.6454 -0.632523 14.7613 -0.516666 14.7613C-0.516666 14.993 -0.400797 15.2247 -0.284941 15.5723C-0.169085 15.9198 0.0626278 16.1515 0.294338 16.4991C0.757763 17.1942 1.56875 17.8894 2.4956 18.4687C3.5383 19.0479 4.69687 19.6272 6.08714 19.8589C7.47741 20.2065 9.0994 20.3224 10.7214 20.2065C12.3434 20.0906 14.0812 19.7431 15.819 19.1638C17.441 18.5845 19.1789 17.6577 20.5691 16.3833C20.9167 16.0357 21.2643 15.6881 21.496 15.3405C21.8435 14.993 22.0753 14.5295 22.307 14.182C22.7704 13.371 23.0021 12.3283 22.8863 11.4014C22.7704 10.4746 22.4228 9.54774 21.7277 8.73675C21.3801 8.38918 21.0325 8.04162 20.685 7.69405C20.3374 7.34648 19.874 7.11477 19.5264 6.88306C17.9044 5.95621 16.0508 5.49278 14.1971 5.26107C12.4592 5.02935 10.6055 5.14522 8.98354 5.37693C7.36156 5.60864 5.85541 6.18792 4.58099 6.7672C3.30658 7.34648 2.14803 8.15746 1.33704 8.96846C0.526045 9.77945 -0.053236 10.5904 -0.400805 11.4014C-0.516661 11.749 -0.632538 12.0966 -0.748394 12.4441C-0.86425 12.7917 -0.864222 13.0234 -0.864222 13.2551C-0.864222 13.371 -0.864222 13.4868 -0.864222 13.6027C-0.864222 13.7186 -0.864222 13.7186 -0.864222 13.8344C-0.632509 14.0661 -0.63253 14.182 -0.63253 14.182ZM-0.516666 14.182V14.0661C-0.516666 14.0661 -0.516666 13.9503 -0.516666 13.8344C-0.516666 13.7186 -0.516666 13.6027 -0.516666 13.4868C-0.516666 13.2551 -0.516661 13.0234 -0.400805 12.6759C-0.284948 12.3283 -0.169106 11.9807 -0.0532494 11.6331C0.294317 10.938 0.873606 10.0112 1.80045 9.31603C2.61144 8.50503 3.76999 7.8099 5.04441 7.34648C6.31882 6.7672 7.82497 6.30377 9.44696 6.07205C11.0689 5.84034 12.8068 5.7245 14.5446 5.95621C16.2825 6.18792 18.1361 6.53549 19.6423 7.46234C19.9898 7.69405 20.4533 7.92576 20.8008 8.27333C21.1484 8.50504 21.496 8.85261 21.8435 9.20018C22.4228 9.89532 22.8862 10.8222 23.0021 11.6331C23.1179 12.56 22.8862 13.4868 22.5387 14.2978C22.307 14.7613 22.0752 15.1088 21.8435 15.4564C21.6118 15.804 21.2643 16.1515 20.9167 16.4991C19.5264 17.7735 17.9044 18.5845 16.1666 19.1638C14.4288 19.7431 12.8068 19.9748 11.1848 20.0906C9.56281 20.2065 8.05669 20.0906 6.66642 19.7431C5.27615 19.5114 4.00172 19.0479 3.07488 18.4687C2.03217 17.8894 1.33704 17.1942 0.757755 16.615C0.526043 16.2674 0.294333 15.9198 0.178476 15.6881C0.0626202 15.3405 -0.0532494 15.1088 -0.0532494 14.8771C-0.0532494 14.7613 -0.053257 14.6454 -0.169113 14.6454C-0.169113 14.5296 -0.169113 14.5296 -0.169113 14.4137C-0.516682 14.182 -0.516666 14.182 -0.516666 14.182Z" fill="#2D2E32"/>
<path d="M-6.65775 29.2425C-7.70046 31.0961 -9.09075 37.8158 -9.32246 39.2061C-9.78589 41.4073 -9.09073 46.3891 -4.91991 48.938C-2.25523 50.56 2.1473 50.56 6.08641 49.1697C12.3426 47.0843 19.0623 43.7245 21.2635 41.0598C23.9282 37.5841 20.2208 28.1998 18.8306 26.2302C17.3244 24.1448 -5.96262 28.1997 -6.65775 29.2425Z" fill="#E9E9EA"/>
<path d="M20.1052 28.8959C20.1052 28.8959 19.9894 28.4325 17.093 26.5788C14.1966 24.7251 11.6478 24.6092 9.79407 25.3043C9.79407 25.3043 -4.80379 30.6337 -8.16361 32.9509C-9.09046 33.5301 -9.78559 35.6155 -8.62703 37.8168C-8.04775 39.2071 -6.54164 40.1339 -6.54164 40.1339C-3.76109 41.6401 -2.25493 42.1035 2.03174 41.5242C9.79409 40.2498 16.8613 35.268 18.8309 33.8777C20.6846 32.6033 20.9162 30.2862 20.1052 28.8959Z" fill="#A9ABAE"/>
<path d="M20.4526 27.3898C20.4526 27.3898 20.3368 26.9264 17.3245 25.0727C14.3122 23.219 11.6475 23.1031 9.79385 23.9141C9.79385 23.9141 -6.07841 28.7801 -9.66994 31.0972C-10.5968 31.6765 -10.7126 34.457 -9.55408 36.5424C-8.9748 37.9327 -7.46869 38.8596 -7.46869 38.8596C-4.57228 40.3657 -3.06614 40.8291 1.45224 40.2498C9.44631 38.8596 16.8611 33.8777 18.9465 32.4875C20.916 30.9813 21.2636 28.7801 20.4526 27.3898Z" fill="#D95536"/>
<path d="M-10.3651 33.2976L-9.78583 35.6147L0.177795 37.7001L20.8002 29.1268L20.916 26.3462L11.8793 23.334L-10.3651 33.2976Z" fill="#D95536"/>
<path d="M-10.1331 34.109C-9.55382 35.4992 -8.0477 36.4261 -8.0477 36.4261C-5.1513 37.8163 -3.76103 37.5846 0.641497 37.0054C1.45249 36.8895 2.26349 36.6578 3.07448 36.4261C3.30619 36.3102 3.53791 36.3102 3.76962 36.1943C4.46476 35.9626 5.15987 35.7309 5.73915 35.4992C6.78186 35.1517 7.7087 34.8041 8.63555 34.3407C8.75141 34.2248 8.86726 34.2248 9.09897 34.109C10.3734 33.5297 11.532 32.9504 12.6905 32.487C13.2698 32.1394 13.8491 31.9077 14.3125 31.5601C14.5442 31.4443 14.7759 31.3284 15.0076 31.2126C15.1235 31.2126 15.1235 31.0967 15.2394 31.0967C17.5565 29.8223 19.0626 28.8954 19.0626 28.8954C19.526 28.5479 19.8736 28.2003 20.1053 27.8527C20.2211 27.7369 20.337 27.621 20.337 27.5051C20.4529 27.2734 20.5687 27.1576 20.5687 26.9259C20.6846 26.6942 20.6846 26.3466 20.6846 26.1149C20.6846 25.4197 20.337 24.7246 19.526 24.0295C19.526 24.0295 18.2516 22.8709 16.5138 22.2916C13.5015 21.3648 10.721 21.2489 7.94041 22.0599C7.59284 22.1758 7.24528 22.2916 6.89771 22.4075C6.89771 22.4075 6.666 22.5233 6.31843 22.6392C5.85501 22.8709 5.04402 23.1026 4.00131 23.4502C3.19032 23.6819 2.37934 24.0295 1.33664 24.377C1.10493 24.4929 0.873201 24.6087 0.525633 24.6087C0.0622082 24.7246 -0.401194 24.9563 -0.864618 25.0722C-2.25489 25.6515 -3.64517 26.2307 -5.03544 26.81C-5.1513 26.9259 -5.383 26.9259 -5.49886 27.0417C-5.84643 27.1576 -6.07815 27.2734 -6.30986 27.3893C-6.54158 27.5052 -6.88916 27.621 -7.12087 27.7369C-7.81601 28.0844 -8.51111 28.432 -8.97454 28.7796C-9.32211 29.0113 -9.9014 29.5906 -10.3648 30.2857C-10.4807 30.4016 -10.4807 30.6333 -10.5965 30.7491C-10.7124 30.9808 -10.7124 31.0967 -10.8282 31.3284C-10.5965 32.3711 -10.5965 33.298 -10.1331 34.109Z" fill="#E87543"/>
<path d="M11.4155 29.4744C10.3728 31.3281 8.9825 38.0478 8.75079 39.438C8.28736 41.6393 8.98248 46.6211 13.1533 49.1699C15.818 50.7919 20.2205 50.7919 24.1596 49.4017C30.4158 47.3162 37.1355 43.9564 39.3368 41.2917C42.0015 37.8161 38.2941 28.4317 36.9038 26.4622C35.2818 24.3768 11.9947 28.3159 11.4155 29.4744Z" fill="#E9E9EA"/>
<path d="M38.1781 29.1283C38.1781 29.1283 38.0623 28.6649 35.1659 26.8112C32.2695 24.9575 29.7206 24.8416 27.867 25.5368C27.867 25.5368 13.2691 30.8662 9.90927 33.1833C8.98242 33.7626 8.28729 35.848 9.44585 38.0492C10.0251 39.4395 11.5312 40.3663 11.5312 40.3663C14.3118 41.8725 15.8179 42.3359 20.1046 41.7566C27.8669 40.4822 34.9342 35.5004 36.9037 34.1101C38.6415 32.7199 38.8733 30.5186 38.1781 29.1283Z" fill="#A9ABAE"/>
<path d="M38.41 27.505C38.41 27.505 38.2941 27.0416 35.2819 25.1879C32.2696 23.3342 29.6049 23.2184 27.7512 24.0294C27.7512 24.0294 11.879 28.8953 8.28743 31.2125C7.36058 31.7917 7.24473 34.5723 8.40329 36.6577C8.98257 38.048 10.4887 38.9748 10.4887 38.9748C13.3851 40.4809 14.8912 40.9444 19.4096 40.3651C27.4037 38.9748 34.8184 33.993 36.9038 32.6027C38.9892 31.2125 39.221 29.0112 38.41 27.505Z" fill="#D33E1E"/>
<path d="M7.59192 33.53L8.1712 35.8472L18.1348 37.9325L38.7572 29.3592L38.873 26.5787L29.9521 23.5664L7.59192 33.53Z" fill="#D33E1E"/>
<path d="M7.82393 34.3414C8.40321 35.7316 9.90933 36.6585 9.90933 36.6585C12.8057 38.0488 14.196 37.817 18.5985 37.2378C19.4095 37.1219 20.2205 36.8902 21.0315 36.6585C21.2632 36.5426 21.4949 36.5426 21.7267 36.4268C22.4218 36.1951 23.1169 35.9633 23.6962 35.7316C24.7389 35.3841 25.6657 35.0365 26.5926 34.5731C26.7084 34.4572 26.8243 34.4572 27.056 34.3414C28.3304 33.7621 29.489 33.1828 30.6475 32.7194C31.2268 32.3718 31.8061 32.1401 32.2695 31.7925C32.5012 31.6767 32.733 31.5608 32.9647 31.445C33.0805 31.445 33.0805 31.3291 33.1964 31.3291C35.5135 30.0547 37.0196 29.1278 37.0196 29.1278C37.483 28.7803 37.8306 28.4327 38.0623 28.0851C38.1782 27.9693 38.294 27.8534 38.294 27.7376C38.4099 27.5059 38.5258 27.39 38.5258 27.1583C38.6416 26.9266 38.6416 26.579 38.6416 26.3473C38.6416 25.6522 38.294 24.957 37.483 24.2619C37.483 24.2619 36.2087 23.1033 34.4708 22.5241C31.4586 21.5972 28.678 21.4813 25.8974 22.2923C25.5499 22.4082 25.2023 22.524 24.8547 22.6399C24.8547 22.6399 24.623 22.7558 24.2755 22.8716C23.812 23.1033 23.001 23.335 21.9583 23.6826C21.1474 23.9143 20.3364 24.2619 19.2937 24.6095C19.062 24.7253 18.8302 24.8412 18.4827 24.8412C18.0192 24.957 17.5558 25.1887 17.0924 25.3046C15.7021 25.8839 14.3119 26.4632 12.9216 27.0424C12.8057 27.1583 12.574 27.1583 12.4582 27.2741C12.1106 27.39 11.8789 27.5059 11.6472 27.6217C11.4155 27.7376 11.0679 27.8534 10.8362 27.9693C10.141 28.3169 9.44592 28.6644 8.98249 29.012C8.63492 29.2437 8.05563 29.823 7.59221 30.5181C7.47635 30.634 7.47634 30.8657 7.36048 30.9815C7.24463 31.2132 7.24465 31.3291 7.12879 31.5608C7.3605 32.6035 7.36051 33.4145 7.82393 34.3414Z" fill="#EF5323"/>
<path d="M7.59211 31.7929C12.2264 32.2563 17.0923 33.9941 21.0314 36.5429C21.2631 36.4271 21.4949 36.4271 21.7266 36.3112C18.135 33.1831 12.5739 31.0977 7.70798 31.2136C7.70798 31.4453 7.70797 31.677 7.59211 31.7929Z" fill="#F47E52"/>
<path d="M11.9947 27.854C17.2083 28.665 22.6535 31.2139 26.7085 34.5737C26.8243 34.4578 26.9402 34.4578 27.1719 34.342C23.9279 30.5187 18.1351 27.7382 12.9216 27.3906C12.574 27.5065 12.3423 27.7382 11.9947 27.854Z" fill="#F47E52"/>
<path d="M17.4402 25.5357C23.0013 25.9991 28.7941 28.3162 33.0808 31.5602C33.1966 31.5602 33.1966 31.4443 33.3125 31.4443C30.0685 27.737 24.1599 25.1881 18.8305 25.0723C18.3671 25.1881 17.9036 25.304 17.4402 25.5357Z" fill="#F47E52"/>
<path d="M24.5074 22.8722C29.3734 23.4515 34.2393 25.4211 38.1784 28.0858C38.2943 27.9699 38.4102 27.8541 38.4102 27.7382C35.3979 24.726 30.5319 22.7564 26.0135 22.293C25.666 22.4088 25.3184 22.5247 24.9709 22.6405C25.0867 22.7564 24.855 22.7564 24.5074 22.8722Z" fill="#F47E52"/>
<path d="M33.5451 29.9382C32.6183 31.9078 31.5756 38.6274 31.4597 40.0177C31.1121 42.219 32.039 47.2008 36.4415 49.5179C39.222 50.9082 43.5087 50.6765 47.4478 49.1703C53.5882 46.7374 60.192 43.03 62.1615 40.2494C64.5945 36.6579 60.4237 27.5052 58.9176 25.5357C57.1797 23.5661 34.1244 28.7797 33.5451 29.9382Z" fill="#E9E9EA"/>
<path d="M60.3075 28.0846C60.3075 28.0846 60.1917 27.6212 57.1794 25.8833C54.1672 24.1455 51.6183 24.1455 49.8805 25.0724C49.8805 25.0724 35.5143 31.2127 32.2704 33.6457C31.3435 34.225 30.7643 36.4262 32.0387 38.5116C32.7338 39.9019 34.2399 40.7129 34.2399 40.7129C37.1363 42.1032 38.6425 42.4508 42.8133 41.6398C50.4598 39.9019 57.2953 34.5725 59.149 33.1823C61.0027 31.792 61.1185 29.4749 60.3075 28.0846Z" fill="#A9ABAE"/>
<path d="M60.4241 26.5801C60.4241 26.5801 60.3082 26.1167 57.1801 24.4947C54.052 22.7569 51.5032 22.8727 49.5336 23.6837C49.5336 23.6837 33.893 29.3606 30.5332 31.9095C29.6064 32.6046 29.6064 35.2693 30.8808 37.3547C31.5759 38.745 33.0821 39.556 33.0821 39.556C36.0943 40.9463 37.6005 41.2938 42.003 40.367C49.9971 38.6291 57.0643 33.1839 59.0338 31.6778C61.0034 30.1716 61.3509 27.9704 60.4241 26.5801Z" fill="#F15523"/>
<path d="M29.9535 34.2257L30.7645 36.427L40.7281 38.0489L61.0029 28.317L60.8871 25.5365L51.7344 23.1035L29.9535 34.2257Z" fill="#F15523"/>
<path d="M30.3007 34.9207C30.9959 36.311 32.502 37.122 32.502 37.122C35.3984 38.3964 36.7887 38.0488 41.1912 37.2378C42.8132 36.8903 44.551 36.311 46.2889 35.6158C47.4474 35.1524 48.4901 34.689 49.5328 34.1097C50.6914 33.5304 51.9658 32.8353 53.0085 32.256C53.5878 31.9084 54.1671 31.5609 54.6305 31.3292C57.411 29.7072 59.2647 28.3169 59.2647 28.3169C60.0757 27.6218 60.5391 27.0425 60.7709 26.3473C60.8867 26.1156 60.8867 25.7681 60.8867 25.5364C60.7709 24.8412 60.4233 24.1461 59.6123 23.4509C59.6123 23.4509 58.222 22.2924 56.4842 21.9448C53.0085 21.1338 49.9962 21.1338 46.8681 22.5241C46.8681 22.5241 45.7096 22.9875 44.0876 23.6827C43.2766 24.0302 42.4656 24.3778 41.5387 24.8412C39.5692 25.7681 37.3679 26.6949 35.3984 27.7376C34.7033 28.0852 34.0081 28.4328 33.4288 28.7803C32.7337 29.1279 32.1544 29.5913 31.691 29.9389C31.3434 30.1706 30.7642 30.7499 30.4166 31.5609C30.3007 31.6767 30.3007 31.9084 30.1849 32.0243C29.7215 32.8353 29.7215 33.878 30.3007 34.9207Z" fill="#F26E22"/>
<path d="M30.0694 31.9093C33.6609 32.141 36.9049 34.9215 40.3805 35.5008C42.0025 35.7325 44.0879 35.7325 46.2892 35.5008C47.4478 35.0374 48.4905 34.574 49.5332 33.9947C46.6368 34.4581 43.2769 34.4581 40.9598 34.1105C37.6 33.6471 33.8926 30.9824 30.3011 31.33C30.1852 31.5617 30.1852 31.6776 30.0694 31.9093Z" fill="#FAAC77"/>
<path d="M33.4286 28.6636C37.3677 27.8526 41.5385 29.2429 45.3618 30.6332C47.4472 31.3283 50.3435 32.1393 53.1241 32.1393C53.7034 31.7917 54.2827 31.4442 54.7461 31.2125C48.374 31.0966 41.6544 26.5782 35.3981 27.6209C34.703 27.9685 34.0078 28.3161 33.4286 28.6636Z" fill="#FAAC77"/>
<path d="M41.5391 24.725C44.4355 24.6091 47.4478 25.3043 50.3442 25.9994C53.2406 26.6945 57.5272 27.2738 60.8871 26.2311L61.0029 25.4201C55.6736 26.347 49.649 23.7981 44.2038 23.5664C43.277 23.914 42.4659 24.3774 41.5391 24.725Z" fill="#FAAC77"/>
<path d="M52.0816 31.9105C50.923 33.7642 49.301 40.368 49.0693 41.6424C48.49 43.8437 48.9534 48.8255 53.1243 51.4902C55.6731 53.228 60.0756 53.3439 64.1306 52.1853C70.5027 50.3316 77.3382 47.3194 79.6553 44.6547C82.4359 41.2948 79.1919 31.7947 77.8016 29.7093C76.1796 27.8556 52.7767 30.8678 52.0816 31.9105Z" fill="#E9E9EA"/>
<path d="M78.8447 32.7211C78.8447 32.7211 78.7288 32.2577 75.9483 30.2882C73.1677 28.3186 70.6189 28.0869 68.7652 28.782C68.7652 28.782 53.9356 33.5321 50.46 35.6175C49.5331 36.1968 48.7221 38.2822 49.7648 40.4835C50.3441 41.8738 51.7344 42.9165 51.7344 42.9165C54.5149 44.5384 55.9052 45.1177 60.1919 44.6543C67.9542 43.7275 75.2532 39.0932 77.3386 37.8188C79.1923 36.4285 79.5398 34.1114 78.8447 32.7211Z" fill="#A9ABAE"/>
<path d="M79.1922 31.2153C79.1922 31.2153 79.0764 30.7519 76.18 28.7823C73.2836 26.8128 70.6189 26.581 68.6494 27.2762C68.6494 27.2762 52.5454 31.447 48.9538 33.6483C48.027 34.2275 47.6794 36.8922 48.838 39.0935C49.4173 40.4838 50.8075 41.5265 50.8075 41.5265C53.588 43.1485 55.21 43.7277 59.6126 43.2643C67.7225 42.2216 75.2531 37.5874 77.4544 36.3129C79.5398 34.9227 79.8874 32.6056 79.1922 31.2153Z" fill="#F1B75C"/>
<path d="M48.0266 35.8493L48.6058 38.1664L58.4536 40.7152L79.4235 32.9529L79.6553 30.1723L70.8502 26.8125L48.0266 35.8493Z" fill="#F1B75C"/>
<path d="M78.6121 27.9707C78.6121 27.9707 77.3377 26.6962 75.7157 26.117C72.3559 24.9584 69.2278 24.7267 66.0997 25.7694C66.0997 25.7694 53.819 29.3609 50.1116 31.5622C49.1847 32.1415 47.2152 34.3427 48.3737 36.544C48.953 37.9343 50.3433 38.977 50.3433 38.977C53.1238 40.4831 54.5141 40.3673 59.0325 39.9038C67.1424 38.8611 77.917 32.7208 77.917 32.7208C79.8866 31.3305 80.2341 29.9402 78.6121 27.9707Z" fill="#F5D678"/>
<path d="M65.1733 38.2817C63.4354 35.2695 53.4718 30.0559 53.4718 30.0559C53.4718 30.0559 53.5876 29.4767 56.7157 28.434C59.8439 27.3912 61.2341 27.2754 61.2341 27.2754C61.2341 27.2754 68.6489 30.1718 73.0515 34.9219C74.5576 36.5439 75.021 47.5502 74.7893 48.1295C74.5576 48.7088 67.7221 51.721 66.6794 51.4893C66.6794 51.0259 66.9111 41.1781 65.1733 38.2817Z" fill="#2D2E32"/>
<path d="M73.2832 35.1536C71.0819 36.1963 68.1855 37.4707 65.2891 38.3976C65.2891 38.3976 65.2891 38.2817 65.1733 38.2817C63.4354 35.2695 53.4718 30.0559 53.4718 30.0559C53.4718 30.0559 53.7035 29.3608 56.7158 28.434C59.8439 27.3912 61.1183 27.2754 61.2342 27.2754C61.2342 27.2754 68.6489 30.1718 73.0515 34.9219C73.1673 34.9219 73.2832 35.0377 73.2832 35.1536Z" fill="#3F4849"/>
<path d="M5.50734 67.1278L4.34879 56.9324C3.7695 51.3714 10.4891 46.042 19.5259 45.1152C28.5627 44.0724 36.325 47.7798 36.9043 53.3409L38.0629 64.1155C38.6421 69.6766 31.9225 75.006 22.8857 75.9329C14.1965 76.8597 6.78173 73.4999 5.62317 68.4022C5.62317 68.1705 5.50734 67.9388 5.50734 67.8229C5.50734 67.5912 5.50734 67.3595 5.50734 67.1278Z" fill="#2D2E32"/>
<path opacity="0.43" d="M4.3488 56.9332C3.76952 51.3721 10.4891 46.0427 19.5259 45.1159C20.3369 45 21.2638 45 22.0748 45C14.3124 46.622 8.86717 51.3721 9.33059 56.4697L10.4892 66.6651C10.4892 66.8968 10.4892 67.0127 10.4892 67.2444C10.4892 67.4761 10.605 67.7078 10.605 67.8236C11.6477 72.4579 17.7881 75.7018 25.4346 75.586C24.6236 75.7018 23.8126 75.9336 23.0016 75.9336C14.3124 76.8604 6.89761 73.5006 5.73905 68.4029C5.73905 68.1712 5.62319 67.9395 5.62319 67.8236C5.62319 67.5919 5.62319 67.4761 5.62319 67.2444L4.3488 56.9332Z" fill="#2D2E32"/>
<path d="M4.23289 56.0067C4.81218 61.5678 12.6904 65.2752 21.6113 64.2325C30.6481 63.1898 37.3677 57.9762 36.7884 52.4151C36.2092 46.854 28.331 43.1467 19.41 44.1894C10.4891 45.1162 3.65361 50.4456 4.23289 56.0067Z" fill="white"/>
<path d="M5.85499 50.6777C5.85499 51.0253 5.73912 51.3729 5.73912 51.7204C5.85498 57.3974 14.0808 61.4524 24.0444 60.8731C27.9835 60.6414 31.6909 59.5986 34.7031 58.2084C32.1543 61.2206 27.2884 63.6536 21.6114 64.2329C12.5746 65.2756 4.81229 61.5682 4.23301 56.0071C4.0013 54.1534 4.69643 52.2997 5.85499 50.6777Z" fill="#E4E5E6"/>
<path d="M4.23353 56.0068C4.23353 56.0068 4.23353 56.1226 4.23353 56.2385C4.23353 56.3543 4.23353 56.4702 4.23353 56.586C4.23353 56.7019 4.3494 56.8177 4.3494 56.9336C4.46525 57.2812 4.58109 57.6288 4.69695 57.9763C4.92866 58.3239 5.16039 58.7873 5.50795 59.2507C6.20309 60.1776 7.24577 61.2203 8.63605 62.0313C10.0263 62.8423 11.7642 63.5374 13.7337 64.0008C15.7033 64.4642 17.9045 64.5801 20.1058 64.4642C22.4229 64.3484 24.74 63.885 27.173 63.074C29.4901 62.263 31.8073 60.9886 33.7768 59.2507C34.2402 58.7873 34.7036 58.3239 35.1671 57.8605C35.6305 57.397 35.9781 56.8178 36.2098 56.2385C36.7891 55.0799 37.1366 53.6896 37.0208 52.2994C36.9049 50.9091 36.3256 49.6347 35.5147 48.592C35.0512 48.0127 34.5878 47.5493 34.1244 47.2017C33.6609 46.7383 33.0817 46.3907 32.5024 46.0431C30.1853 44.7687 27.6365 44.0736 25.2035 43.726C22.7705 43.4943 20.2217 43.6102 18.0204 43.9577C15.7033 44.3053 13.7337 45.0004 11.88 45.9273C10.0263 46.7383 8.52018 47.8968 7.36162 48.9395C6.20306 50.0981 5.3921 51.2567 4.92867 52.2994C4.69696 52.8787 4.58108 53.3421 4.46522 53.8055C4.34937 54.2689 4.3494 54.6165 4.3494 54.9641C4.3494 55.0799 4.3494 55.3116 4.3494 55.4275C4.3494 55.5433 4.3494 55.6592 4.3494 55.7751C4.23354 55.8909 4.23353 56.0068 4.23353 56.0068ZM4.23353 56.0068C4.23353 56.0068 4.23353 55.8909 4.23353 55.7751C4.23353 55.6592 4.23353 55.5433 4.23353 55.4275C4.23353 55.3116 4.23353 55.1958 4.23353 54.9641C4.23353 54.6165 4.23354 54.2689 4.3494 53.8055C4.46525 53.3421 4.5811 52.8786 4.81281 52.4152C5.27624 51.3725 6.08721 50.214 7.36162 49.1713C8.52018 48.1286 10.1422 47.2017 11.88 46.3907C13.6179 45.5797 15.7033 45.0004 17.9045 44.6529C20.1058 44.3053 22.5388 44.1894 24.9718 44.4212C27.4047 44.6529 29.8377 45.348 32.1548 46.5066C32.7341 46.8541 33.1975 47.2017 33.7768 47.5493C34.2402 47.8968 34.7036 48.3603 35.1671 48.9395C35.9781 49.8664 36.5574 51.1408 36.7891 52.4152C36.9049 53.6896 36.6732 54.9641 36.0939 56.1226C35.8622 56.7019 35.3988 57.2812 35.0512 57.7446C34.7037 58.208 34.2402 58.6715 33.7768 59.1349C31.8073 60.8727 29.4901 62.0313 27.173 62.8423C24.8559 63.6532 22.4229 64.0008 20.2216 64.1167C18.0204 64.2325 15.8191 64.0008 13.9654 63.6533C11.9959 63.3057 10.3739 62.6106 8.98363 61.9154C7.59336 61.1044 6.55064 60.1776 5.85551 59.2507C5.50794 58.7873 5.27621 58.3239 5.0445 57.9763C4.81279 57.5129 4.69695 57.1653 4.69695 56.9336C4.69695 56.8177 4.58109 56.7019 4.58109 56.586C4.58109 56.4702 4.58109 56.3543 4.58109 56.2385C4.23352 56.0068 4.23353 56.0068 4.23353 56.0068Z" fill="#2D2E32"/>
<path d="M36.3255 66.3185L35.2828 56.9341C34.7035 51.8365 40.9597 47.0864 49.1855 46.1595C57.4113 45.2327 64.4785 48.5925 65.0578 53.6902L66.1005 63.5379C66.6798 68.6356 60.4236 73.3857 52.1978 74.3125C44.3196 75.2394 37.4841 72.1113 36.4414 67.3612C36.4414 67.1295 36.3255 67.0136 36.3255 66.7819C36.3255 66.666 36.3255 66.4343 36.3255 66.3185Z" fill="#2D2E32"/>
<path opacity="0.43" d="M35.2824 56.9354C34.7031 51.8377 40.9593 47.0876 49.1851 46.1608C50.1119 46.0449 51.1546 46.0449 52.0815 46.0449C45.3618 47.6669 40.6117 51.9536 41.0752 56.3561L42.1179 65.7404C42.1179 65.9722 42.1179 66.088 42.1179 66.3197C42.1179 66.5514 42.1179 66.6673 42.2337 66.899C43.1606 71.0698 48.49 73.8504 55.0938 73.9662C54.1669 74.1979 53.2401 74.3138 52.3132 74.4296C44.435 75.3565 37.5995 72.2284 36.5568 67.4783C36.5568 67.2466 36.4409 67.1307 36.4409 66.899C36.4409 66.6673 36.4409 66.5514 36.4409 66.3197L35.2824 56.9354Z" fill="#2D2E32"/>
<path d="M35.1672 56.1236C35.7465 61.2213 42.8137 64.5811 51.0395 63.6543C59.2653 62.7274 65.4056 57.8614 64.9422 52.8796C64.3629 47.782 57.2957 44.4222 49.0699 45.349C40.8441 46.16 34.5879 51.0259 35.1672 56.1236Z" fill="white"/>
<path d="M36.6734 51.2578C36.6734 51.6054 36.5575 51.953 36.5575 52.1847C36.6734 57.3982 44.0881 61.1056 53.2408 60.5263C56.8323 60.2946 60.1921 59.3677 62.9727 58.0933C60.5397 60.8739 56.1372 63.0751 50.9236 63.6544C42.6979 64.5813 35.6307 61.2214 35.0514 56.1238C35.0514 54.3859 35.5148 52.7639 36.6734 51.2578Z" fill="#E4E5E6"/>
<path d="M39.9174 56.2377C41.7711 67.0123 66.796 58.439 58.4544 51.6035C56.0214 49.6339 39.3381 52.4145 39.9174 56.2377C40.0332 56.4694 39.9174 55.8901 39.9174 56.2377Z" fill="#D56E5C"/>
<path d="M45.9422 52.0677C45.3629 47.5493 48.2593 48.1286 50.2288 47.8969C52.1984 47.6652 54.3997 49.1713 54.3997 50.3299C54.5155 51.4884 54.7472 52.2994 52.546 52.7628C50.4606 53.2262 46.2898 54.0373 45.9422 52.0677Z" fill="#F7C513"/>
<path d="M50.5781 49.403C49.072 49.403 46.9866 49.0554 45.9439 50.214C46.2915 47.781 48.6086 48.1286 50.2305 47.8969C52.2001 47.6652 54.4014 49.1713 54.4014 50.3299C54.4014 50.5616 54.4014 50.7933 54.4014 51.1408C53.8221 50.214 52.2001 49.2872 50.5781 49.403Z" fill="#EFAA1F"/>
<path d="M35.1667 56.1236C35.1667 56.1236 35.1667 56.2394 35.1667 56.3553C35.1667 56.4711 35.1667 56.4712 35.1667 56.587C35.1667 56.7029 35.1667 56.8187 35.2826 56.9346C35.3985 57.1663 35.5143 57.5139 35.6302 57.8614C35.8619 58.209 35.9777 58.6724 36.3253 59.02C36.9046 59.831 37.9473 60.7578 39.2217 61.5688C40.4961 62.3798 42.0022 62.9591 43.8559 63.4225C45.5938 63.8859 47.6792 64.0018 49.6487 63.8859C51.7341 63.7701 53.9354 63.3067 56.0208 62.6115C58.1062 61.8005 60.3075 60.7578 62.0453 59.1359C62.5088 58.7883 62.8563 58.3249 63.3198 57.8614C63.6673 57.398 64.0149 56.9346 64.2466 56.3553C64.8259 55.3126 65.0576 54.0382 64.9417 52.7638C64.8259 51.4893 64.2466 50.3308 63.5515 49.4039C63.2039 48.9405 62.7405 48.4771 62.2771 48.1295C61.8136 47.782 61.3502 47.4344 60.7709 47.0868C58.6855 45.9283 56.3684 45.2331 54.0513 45.0014C51.7342 44.7697 49.5329 44.8856 47.4475 45.2331C45.3621 45.5807 43.5084 46.16 41.8864 46.971C40.2644 47.782 38.8741 48.7088 37.8314 49.7515C36.7887 50.7942 35.9778 51.8369 35.6302 52.8796C35.3985 53.343 35.2826 53.8065 35.1667 54.2699C35.0509 54.6175 35.0509 54.965 35.0509 55.3126C35.0509 55.4284 35.0509 55.5443 35.0509 55.6602C35.0509 55.776 35.0509 55.8919 35.0509 55.8919C35.1668 56.0077 35.1667 56.1236 35.1667 56.1236ZM35.1667 56.1236C35.1667 56.1236 35.1667 56.0077 35.1667 55.8919C35.1667 55.776 35.1667 55.776 35.1667 55.6602C35.1667 55.5443 35.1667 55.4284 35.1667 55.3126C35.1667 55.0809 35.1667 54.7333 35.2826 54.2699C35.3985 53.9223 35.5143 53.4589 35.746 52.9955C36.2094 52.0686 36.9046 51.0259 38.0631 49.9832C39.1058 49.0564 40.612 48.1295 42.234 47.4344C43.8559 46.7393 45.7097 46.16 47.7951 45.8124C49.7646 45.4648 51.9659 45.349 54.1671 45.5807C56.3684 45.8124 58.6855 46.3917 60.6551 47.5502C61.1185 47.782 61.6978 48.1295 62.1612 48.4771C62.6246 48.8247 63.0881 49.2881 63.4356 49.7515C64.2466 50.6784 64.71 51.7211 64.8259 52.8796C64.9417 54.0382 64.71 55.1967 64.2466 56.3553C64.0149 56.9346 63.6673 57.398 63.3198 57.8614C62.9722 58.3249 62.5088 58.7883 62.1612 59.1359C60.4234 60.7578 58.3379 61.8005 56.1367 62.4957C54.0513 63.1908 51.85 63.5384 49.7646 63.6542C47.6792 63.7701 45.8255 63.5384 43.9718 63.1908C42.234 62.8432 40.612 62.2639 39.3376 61.5688C38.0631 60.8737 37.1363 60.0627 36.4412 59.1359C36.0936 58.6724 35.8619 58.3249 35.746 57.9773C35.6302 57.6297 35.5143 57.2821 35.3985 57.0504C35.3985 56.9346 35.2826 56.8187 35.2826 56.7029C35.2826 56.587 35.2826 56.4711 35.2826 56.4711C35.1667 56.1236 35.1667 56.1236 35.1667 56.1236Z" fill="#2D2E32"/>
</svg>
