<svg width="48" height="48" viewBox="0 0 48 48" fill="none" xmlns="http://www.w3.org/2000/svg">
<rect width="48" height="48" rx="4" fill="url(#paint0_linear_4714_8374)"/>
<path d="M9.67251 34.0646C8.60642 34.0646 7.74219 33.2003 7.74219 32.1343V15.6861C7.74219 14.7193 8.52592 13.9355 9.4927 13.9355C10.0987 13.9355 10.6615 14.2489 10.9807 14.764L18.1461 26.328C18.3257 26.6178 18.1173 26.9922 17.7763 26.9922C17.4357 26.9922 17.2272 26.6184 17.4061 26.3286L24.5457 14.7658C24.8643 14.2497 25.4276 13.9355 26.0341 13.9355C27.0003 13.9355 27.7835 14.7188 27.7835 15.6849V32.1484C27.7835 33.2067 26.9256 34.0646 25.8673 34.0646C24.8091 34.0646 23.9512 33.2067 23.9512 32.1484V21.0032C23.9512 20.8066 24.1418 20.6662 24.3296 20.7245C24.5118 20.781 24.5917 20.9943 24.4915 21.1566L19.6547 28.992C19.2904 29.5821 18.6464 29.9414 17.9529 29.9414H17.5728C16.8793 29.9414 16.2352 29.5821 15.8709 28.992L11.0434 21.1715C10.939 21.0024 11.0236 20.7802 11.2141 20.7232C11.4079 20.6653 11.6028 20.8105 11.6028 21.0128V32.1343C11.6028 33.2003 10.7386 34.0646 9.67251 34.0646Z" fill="url(#paint1_linear_4714_8374)"/>
<path d="M30.7357 34.0646C29.6696 34.0646 28.8054 33.2003 28.8054 32.1343V15.8659C28.8054 14.7998 29.6696 13.9356 30.7357 13.9356C31.8018 13.9356 32.6661 14.7998 32.6661 15.8659V32.1343C32.6661 33.2003 31.8018 34.0646 30.7357 34.0646ZM34.5937 34.0646C33.2532 34.0646 32.3926 32.6402 33.0161 31.4535C33.3282 30.8596 33.9475 30.4913 34.6183 30.5006L40.0865 30.5762C41.0404 30.5894 41.8067 31.3664 41.8067 32.3203C41.8067 33.2836 41.0258 34.0646 40.0624 34.0646H34.5937Z" fill="url(#paint2_linear_4714_8374)"/>
<defs>
<linearGradient id="paint0_linear_4714_8374" x1="-7.5" y1="-10.5" x2="55.5" y2="55" gradientUnits="userSpaceOnUse">
<stop stop-color="white"/>
<stop offset="0.669792" stop-color="#F3F3F3"/>
<stop offset="1" stop-color="#F3F3F3"/>
</linearGradient>
<linearGradient id="paint1_linear_4714_8374" x1="7.03251" y1="12.5039" x2="44.094" y2="33.7019" gradientUnits="userSpaceOnUse">
<stop stop-color="#2B817B"/>
<stop offset="0.492763" stop-color="#2F9D5D"/>
<stop offset="1" stop-color="#20615C"/>
</linearGradient>
<linearGradient id="paint2_linear_4714_8374" x1="7.03251" y1="12.5039" x2="44.094" y2="33.7019" gradientUnits="userSpaceOnUse">
<stop stop-color="#2B817B"/>
<stop offset="0.492763" stop-color="#2F9D5D"/>
<stop offset="1" stop-color="#20615C"/>
</linearGradient>
</defs>
</svg>
