<svg width="25" height="24" viewBox="0 0 25 24" fill="none" xmlns="http://www.w3.org/2000/svg">
<path d="M12.3203 12C15.0817 12 17.3203 9.76142 17.3203 7C17.3203 4.23858 15.0817 2 12.3203 2C9.55889 2 7.32031 4.23858 7.32031 7C7.32031 9.76142 9.55889 12 12.3203 12Z" stroke="#D5E6E5" stroke-width="1.5" stroke-linecap="round" stroke-linejoin="round"/>
<path d="M19.5294 15.741L15.9894 19.281C15.8494 19.421 15.7194 19.681 15.6894 19.871L15.4994 21.221C15.4294 21.711 15.7694 22.051 16.2594 21.981L17.6094 21.791C17.7994 21.761 18.0694 21.631 18.1994 21.491L21.7394 17.951C22.3494 17.341 22.6394 16.631 21.7394 15.731C20.8494 14.841 20.1394 15.131 19.5294 15.741Z" stroke="#D5E6E5" stroke-width="1.5" stroke-miterlimit="10" stroke-linecap="round" stroke-linejoin="round"/>
<path d="M19.0195 16.25C19.3195 17.33 20.1595 18.17 21.2395 18.47" stroke="#D5E6E5" stroke-width="1.5" stroke-miterlimit="10" stroke-linecap="round" stroke-linejoin="round"/>
<path d="M3.73047 22C3.73047 18.13 7.5805 15 12.3205 15C13.3605 15 14.3605 15.15 15.2905 15.43" stroke="#D5E6E5" stroke-width="1.5" stroke-linecap="round" stroke-linejoin="round"/>
</svg>
