<svg width="93" height="95" viewBox="0 0 93 95" fill="none" xmlns="http://www.w3.org/2000/svg">
<path d="M35.817 88.9902C9.25318 88.9902 -12.281 66.6398 -12.281 39.0693C-12.281 11.4988 9.25318 -10.8516 35.817 -10.8516C62.3808 -10.8516 83.915 11.4988 83.915 39.0693C83.915 66.6398 62.3808 88.9902 35.817 88.9902Z" fill="#232428"/>
<path opacity="0.48" d="M35.8163 87.1775C61.3042 87.1775 82.0645 65.6304 82.0645 39.1766C82.0645 12.7228 61.3042 -8.82422 35.8163 -8.82422C10.3285 -8.82422 -10.4318 12.7228 -10.4318 39.1766C-10.4318 65.6304 10.3285 87.1775 35.8163 87.1775ZM35.8163 -8.29088C60.9959 -8.29088 81.4478 12.9362 81.4478 39.0699C81.4478 65.2037 60.9959 86.4308 35.8163 86.4308C10.6368 86.4308 -9.81512 65.2037 -9.81512 39.0699C-9.81512 12.9362 10.6368 -8.29088 35.8163 -8.29088Z" fill="#C4C6C9"/>
<path d="M19.9791 77.6329C-0.543136 68.5572 -10.0911 43.9329 -1.34681 22.6329C7.39746 1.33285 31.1226 -8.57694 51.6449 0.498709C72.1671 9.57436 81.7151 34.1987 72.9708 55.4987C64.2266 76.7987 40.5014 86.7085 19.9791 77.6329Z" fill="#30393B"/>
<path d="M32.0147 48.989C32.4258 51.6557 33.6591 53.3624 35.509 54.4291C37.3589 55.8158 39.7227 55.8158 42.292 55.9224C44.7586 55.2824 46.9169 53.8957 48.4585 52.6157C49.8973 50.6957 50.7195 48.8823 50.4112 46.3223C50.3084 45.6822 48.4584 47.4956 45.5808 46.9623C42.8059 47.2823 39.4144 48.029 36.6395 48.2423C34.0702 48.7756 32.0147 48.8823 32.0147 48.989Z" fill="#D4D780"/>
<path d="M35.6113 54.5379C36.8446 55.3912 38.2834 55.7112 39.825 55.9245C39.5167 55.8179 39.1056 55.6045 38.7973 55.3912C36.8446 54.2179 35.4058 52.5112 34.6864 49.5244C34.6864 49.4178 36.7418 49.0978 39.4139 48.5644C41.3666 48.2444 43.7304 47.7111 45.8887 47.1777C45.8887 47.1777 45.8887 47.1777 45.7859 47.1777C43.011 47.4977 39.6195 48.2444 36.8446 48.4578C34.0697 48.8844 32.0142 48.9911 32.0142 49.0978C32.4253 51.6578 33.7614 53.3645 35.6113 54.5379Z" fill="#8D9A24"/>
<path d="M50.5127 46.4302C50.4099 46.2168 50.1016 46.4302 49.485 46.6435C49.8961 46.5368 50.2044 46.5368 50.5127 46.4302Z" fill="#8D9A24"/>
<path d="M41.9826 56.9876C43.3186 59.3343 45.1686 60.2944 47.3268 60.6144C49.5878 61.0411 51.7461 60.1877 54.1099 59.2277C56.1653 57.6277 57.6041 55.3876 58.5291 53.6809C59.1458 51.3342 59.2485 49.3075 58.0152 47.0675C57.7069 46.5341 56.6792 48.9875 53.9043 49.6275C51.5405 51.1209 48.6628 53.0409 46.1963 54.4276C43.8325 55.921 41.9826 56.881 41.9826 56.9876Z" fill="#D4D780"/>
<path d="M47.3275 60.6158C48.7664 60.9358 50.2052 60.6158 51.644 60.1891C51.2329 60.1891 50.9246 60.1891 50.5135 60.0824C48.2525 59.7624 46.2998 58.8024 44.5526 56.349C44.4499 56.2424 46.2998 55.1757 48.5608 53.469C50.308 52.4023 52.1579 50.9089 54.0078 49.6289C54.0078 49.6289 54.0078 49.6289 53.905 49.6289C51.5412 51.1223 48.6636 53.0423 46.197 54.429C43.8332 55.9223 41.9833 56.8824 42.0861 56.989C43.4221 59.2291 45.1693 60.2958 47.3275 60.6158Z" fill="#8D9A24"/>
<path d="M58.0156 46.9633C57.9129 46.75 57.6045 47.07 57.1934 47.6033C57.5018 47.39 57.7073 47.1766 58.0156 46.9633Z" fill="#8D9A24"/>
<path d="M51.4377 53.1484C52.2599 55.7084 53.8015 57.0951 55.857 57.9484C57.9125 58.9085 60.2763 58.5884 62.8456 58.2684C65.2094 57.2017 67.0593 55.3884 68.3954 53.895C69.5259 51.7617 70.0397 49.8416 69.3203 47.3882C69.1148 46.8549 67.5732 48.8816 64.6955 48.8816C62.0234 49.735 58.8374 51.015 56.1653 51.655C53.3904 52.5083 51.4377 53.0417 51.4377 53.1484Z" fill="#D4D780"/>
<path d="M55.7543 57.9496C57.0903 58.5896 58.5291 58.6963 60.0707 58.5896C59.6596 58.483 59.3513 58.3763 58.9402 58.163C56.782 57.3096 55.1376 55.9229 53.9043 53.1496C53.9043 53.0429 55.857 52.4029 58.4264 51.3362C60.3791 50.6962 62.5373 49.7362 64.5928 48.8828C64.5928 48.8828 64.5928 48.8828 64.49 48.8828C61.8179 49.7362 58.6319 51.0162 55.9598 51.6562C53.2877 52.5095 51.335 53.0429 51.335 53.1496C52.26 55.7096 53.8016 57.0963 55.7543 57.9496Z" fill="#8D9A24"/>
<path d="M69.2178 47.2829C69.115 47.0696 68.8067 47.2829 68.2928 47.7096C68.6011 47.6029 68.9095 47.3896 69.2178 47.2829Z" fill="#8D9A24"/>
<path d="M19.8867 16.1346C18.1396 15.2813 12.1787 15.8146 11.6648 16.1346C11.0482 16.988 11.151 17.7347 11.2537 17.8413C11.3565 18.0547 18.4479 17.4147 19.8867 16.1346Z" fill="#E43F26"/>
<path d="M20.8115 15.6018C18.6533 14.8551 10.9452 15.9218 10.2258 16.2418C9.40364 17.2018 9.40366 17.8418 9.50643 18.0552C9.6092 18.3752 18.8588 17.0952 20.8115 15.6018Z" fill="#CB4C1E"/>
<path d="M21.2227 15.7082C19.5783 17.3082 12.1786 19.7616 11.3564 19.7616C10.2259 19.2283 9.91756 18.5882 9.91756 18.3749C9.91756 18.1616 18.8589 15.1749 21.2227 15.7082Z" fill="#EC6B23"/>
<path d="M20.8115 15.3882C18.8588 14.3215 11.973 14.2148 11.2536 14.4282C10.4314 15.3882 10.4314 16.1349 10.5342 16.3482C10.6369 16.6682 19.0644 16.6682 20.8115 15.3882Z" fill="#E75B23"/>
<path d="M21.1201 16.1348C19.1674 16.1348 13.5149 19.4415 13.001 19.8682C12.5899 21.0415 12.8982 21.6815 13.001 21.8949C13.2066 22.1082 20.0924 18.0548 21.1201 16.1348Z" fill="#E75B23"/>
<path d="M21.1201 16.2402C20.2979 18.0536 15.3648 22.6403 14.8509 22.9604C13.8232 23.067 13.5149 22.6403 13.4121 22.5337C13.3093 22.427 19.2702 16.8802 21.1201 16.2402Z" fill="#D1412E"/>
<path d="M20.6061 14.5353C20.8116 13.682 21.7366 12.8286 22.9698 12.2953C23.1754 12.1886 23.2782 12.1886 23.4837 12.0819C23.5865 11.9753 23.6893 11.9753 23.6893 11.8686C24.1004 11.2286 24.8198 10.6953 25.7447 10.2686H25.8475C25.9503 10.1619 26.1558 10.0552 26.2586 9.94858C26.5669 9.2019 27.3891 8.56189 28.4169 8.02855C28.5196 8.02855 28.5196 8.02854 28.6224 7.92187C29.0335 7.28186 29.7529 6.64185 30.6779 6.32185C31.3973 6.00184 32.0139 5.89518 32.6306 5.89518C32.9389 5.57517 33.4528 5.36183 33.8638 5.14849C34.4805 4.93516 34.9944 4.82849 35.5082 4.72182C35.5082 4.72182 35.5082 4.72182 35.611 4.72182C36.0221 4.18848 36.6387 3.7618 37.3581 3.4418C38.2831 3.01513 39.1053 3.01512 39.8247 3.12179C40.2358 2.69512 40.8524 2.26844 41.4691 1.94844C41.7774 1.84177 42.1885 1.73511 42.4968 1.62844C42.9079 0.988426 43.6273 0.455082 44.5523 0.135077C45.8884 -0.398266 47.2244 -0.398266 47.9438 0.135077C48.2522 -0.0782604 48.4577 -0.184931 48.8688 -0.291599C49.691 -0.504936 50.616 -0.398271 51.1298 -0.0782653C51.2326 -0.0782653 51.3354 -0.0782636 51.5409 -0.184932C51.7465 -0.398269 52.0548 -0.504939 52.2603 -0.611608C52.9797 -0.824945 53.6992 -0.611608 54.213 -0.0782653C54.4186 0.0284032 54.7269 0.135075 54.9324 0.241744C56.1657 -0.0782621 57.399 0.561752 57.7073 1.62844C57.8101 1.94844 57.8101 2.26844 57.7073 2.58845L57.8101 2.69512C58.4268 2.90846 59.0434 3.4418 59.1462 4.08181C59.2489 4.40181 59.2489 4.72182 59.1462 5.04183C59.5572 5.25516 60.0711 5.89517 60.2767 6.64185C60.4822 7.38853 60.4822 8.13522 60.1739 8.56189C60.1739 9.62858 58.9406 10.8019 57.2962 11.3353C56.7824 11.4419 56.3713 11.5486 55.8574 11.5486C55.2407 12.1886 54.4186 12.722 53.288 13.042C52.6714 13.2553 52.0548 13.2553 51.5409 13.2553C51.027 13.682 50.3076 14.002 49.5882 14.2153C48.766 14.4287 48.0466 14.5353 47.3272 14.4287C47.3272 14.4287 47.3272 14.4287 47.2244 14.4287C46.6078 14.962 45.8884 15.3887 44.8606 15.7087C43.5246 16.1354 42.2913 16.0287 41.4691 15.7087C40.5441 16.0287 39.6192 16.0287 38.8997 15.8153C38.3859 16.0287 37.7693 16.242 37.0498 16.242C36.3304 16.242 35.611 16.1353 35.0971 15.922C34.9944 15.922 34.9944 15.922 34.8916 15.922C34.4805 16.242 33.8639 16.562 33.1445 16.562C32.6306 16.562 32.1167 16.4554 31.7056 16.242C31.089 16.6687 30.2668 16.9887 29.239 17.0954C28.2113 17.0954 27.2863 16.882 26.6697 16.4554C26.4642 16.4554 26.3614 16.4554 26.1558 16.4554C26.0531 16.4554 26.0531 16.562 25.9503 16.562C25.0253 16.9887 24.1004 17.0954 23.381 16.882C21.3255 17.4154 18.0367 17.202 20.6061 14.5353Z" fill="#F2C03C"/>
<path d="M19.7834 16.668C20.4 17.3081 22.1472 17.3081 23.586 17.0947C24.3054 17.3081 25.2304 17.2014 26.1553 16.7747C26.2581 16.7747 26.2581 16.7747 26.3609 16.668C26.4637 16.668 26.6692 16.668 26.8748 16.668C27.4914 17.0947 28.4164 17.3081 29.4441 17.3081C30.4718 17.3081 31.3968 16.988 31.9107 16.4547C32.3218 16.668 32.8356 16.7747 33.3495 16.7747C34.0689 16.7747 34.6856 16.4547 35.0966 16.1347C35.0966 16.1347 35.1994 16.1347 35.3022 16.1347C35.816 16.348 36.5355 16.4547 37.2549 16.4547C37.9743 16.4547 38.5909 16.2414 39.1048 16.028C39.7215 16.2414 40.6464 16.2414 41.6742 15.9214C42.4963 16.348 43.7296 16.348 45.0657 15.9214C45.9906 15.6014 46.8128 15.1747 47.4295 14.6413H47.5323C48.2517 14.748 48.9711 14.6413 49.7933 14.428C50.5127 14.2147 51.2321 13.8947 51.7459 13.468C52.2598 13.468 52.8765 13.3613 53.4931 13.148C54.5208 12.828 55.4458 12.2946 56.0624 11.6546C56.4735 11.6546 56.9874 11.548 57.5013 11.4413C59.1457 10.9079 60.379 9.7346 60.379 8.66791C60.5845 8.24124 60.6872 7.49455 60.4817 6.74787C60.3789 6.42787 60.2762 6.10787 60.0706 5.89453C60.0706 6.0012 59.9678 6.10786 59.9678 6.21453C59.9678 7.38789 58.7346 8.77458 56.9874 9.41459C56.4735 9.62792 55.9597 9.7346 55.4458 9.7346C54.8292 10.4813 53.9042 11.0146 52.7737 11.4413C52.157 11.6546 51.4376 11.7613 50.821 11.7613C50.3071 12.188 49.5877 12.6146 48.7655 12.828C47.9433 13.148 47.0184 13.2547 46.299 13.148C46.299 13.148 46.299 13.148 46.1962 13.148C45.5795 13.788 44.7574 14.3213 43.7296 14.6413C42.2908 15.068 40.9547 15.068 40.0298 14.748C39.002 15.068 37.9743 15.1747 37.2549 14.8547C36.741 15.1747 36.0216 15.388 35.1994 15.388C34.3772 15.4947 33.6578 15.2814 33.0412 15.068C32.9384 15.068 32.9384 15.068 32.8356 15.068C32.4245 15.4947 31.7051 15.8147 30.9857 15.8147C30.3691 15.8147 29.8552 15.708 29.4441 15.4947C28.8275 16.028 27.9025 16.4547 26.772 16.4547C25.6415 16.5614 24.6137 16.2414 23.9971 15.8147C23.7915 15.8147 23.6888 15.8147 23.4832 15.9214C23.3804 15.9214 23.3805 16.028 23.2777 16.028C22.25 16.5614 21.2222 16.668 20.4 16.4547C20.1945 16.5614 19.9889 16.5614 19.7834 16.668Z" fill="#D68922"/>
<path d="M50.8206 2.26892C50.9233 2.37559 51.0261 2.37558 51.1289 2.48225C51.0261 2.48225 51.0261 2.48225 50.9233 2.37559C50.2039 2.16225 49.4845 2.16225 48.8679 2.48225C48.6623 2.58892 48.4568 2.80226 48.2512 2.90893C47.3263 2.48225 45.3736 3.01559 44.6542 4.08228C43.9347 3.97561 43.1125 4.08228 42.4959 4.50896C42.0848 4.72229 41.7765 5.04229 41.5709 5.25563C41.2626 4.61562 41.7765 4.08228 42.4959 3.54894C43.1125 3.22893 43.832 3.12227 44.4486 3.22894C45.0653 2.37559 46.8124 1.84224 47.6346 2.26892C47.8401 2.05558 47.9429 1.94891 48.1484 1.84224C48.6623 1.52224 49.3817 1.62891 49.9984 1.73558C50.1012 1.73558 50.3067 1.84224 50.4095 1.84224C50.615 2.05558 50.7178 2.16225 50.8206 2.26892Z" fill="#D68922"/>
<path d="M24.8193 24.2397C23.2777 23.0663 17.3168 22.4263 16.803 22.533C16.0836 23.2797 15.9808 23.9197 16.0836 24.133C16.0836 24.453 23.2777 25.1997 24.8193 24.2397Z" fill="#E43F26"/>
<path d="M25.8467 23.9189C23.894 22.8522 16.186 22.3188 15.3638 22.4255C14.336 23.1722 14.2333 23.9189 14.336 24.1322C14.336 24.3455 23.6884 24.9855 25.8467 23.9189Z" fill="#CB4C1E"/>
<path d="M26.2578 24.0273C24.3051 25.3073 16.5971 26.1607 15.8777 26.054C14.8499 25.3073 14.6444 24.6673 14.7472 24.454C14.7472 24.2406 24.0996 23.1739 26.2578 24.0273Z" fill="#EC6B23"/>
<path d="M25.9492 23.7069C24.3048 22.2135 17.5218 20.8268 16.8023 20.9335C15.8774 21.6802 15.6718 22.4269 15.7746 22.6402C15.6718 22.8535 23.8937 24.6669 25.9492 23.7069Z" fill="#E75B23"/>
<path d="M26.0527 24.56C24.2028 24.1333 17.9336 26.2667 17.4198 26.6934C16.8031 27.7601 16.9059 28.4001 17.0087 28.6134C17.1114 28.7201 24.7167 26.2667 26.0527 24.56Z" fill="#E75B23"/>
<path d="M26.0527 24.668C24.9222 26.268 19.2697 29.8947 18.6531 30.0014C17.6253 29.8947 17.4198 29.468 17.4198 29.2547C17.317 29.148 24.1 24.8813 26.0527 24.668Z" fill="#D1412E"/>
<path d="M25.8464 22.7483C26.1547 22.0016 27.1825 21.2549 28.5185 21.0416C28.7241 21.0416 28.9296 20.9349 29.0324 20.9349C29.1352 20.9349 29.2379 20.8282 29.3407 20.8282C29.8546 20.2949 30.6768 19.8682 31.6017 19.6549H31.7045C31.91 19.5482 32.0128 19.5482 32.2184 19.4415C32.6294 18.8015 33.5544 18.2682 34.6849 18.0548C34.7877 18.0548 34.7877 18.0548 34.8905 18.0548C35.4043 17.5215 36.2265 17.0948 37.2543 16.8815C37.9737 16.7748 38.6931 16.7748 39.207 16.8815C39.6181 16.6681 40.0292 16.4548 40.543 16.3481C41.1597 16.2415 41.7763 16.2415 42.1874 16.2415C42.1874 16.2415 42.1874 16.2415 42.2902 16.2415C42.8041 15.8148 43.5235 15.4948 44.2429 15.3881C45.1678 15.1748 46.0928 15.2815 46.7094 15.4948C47.2233 15.1748 47.84 14.8548 48.5594 14.7481C48.9705 14.6414 49.2788 14.6414 49.6899 14.6414C50.2037 14.1081 51.0259 13.7881 51.9509 13.5748C53.3897 13.2548 54.623 13.5748 55.2397 14.2148C55.548 14.1081 55.8563 14.0014 56.1646 14.0014C57.0896 13.8948 57.9118 14.2148 58.3229 14.6414C58.4256 14.6414 58.5284 14.6414 58.734 14.6414C58.9395 14.5348 59.2478 14.4281 59.5561 14.3214C60.2755 14.2148 60.995 14.6414 61.3033 15.1748C61.5088 15.2815 61.7144 15.3881 61.9199 15.6015C63.256 15.6015 64.2837 16.4548 64.3865 17.5215C64.3865 17.8415 64.3865 18.1615 64.1809 18.4815L64.2837 18.5882C64.9004 18.9082 65.3115 19.5482 65.4142 20.1882C65.4142 20.5082 65.4142 20.8282 65.2087 21.1482C65.6198 21.4682 65.9281 22.1082 66.0309 22.9616C66.1337 23.7083 65.9281 24.4549 65.6198 24.8816C65.4142 25.9483 64.0782 26.8017 62.331 27.015C61.8172 27.015 61.3033 27.015 60.8922 26.9083C60.1728 27.335 59.2478 27.7617 58.1173 27.8683C57.5007 27.975 56.884 27.8683 56.3701 27.7617C55.7535 28.0817 55.0341 28.1883 54.3147 28.295C53.4925 28.4017 52.6703 28.295 52.0537 28.0817C52.0537 28.0817 52.0537 28.0817 51.9509 28.0817C51.3343 28.5084 50.4093 28.8284 49.3816 28.8284C48.0455 28.935 46.8122 28.615 46.0928 28.0817C45.0651 28.1883 44.1401 27.975 43.5234 27.655C43.0096 27.7617 42.2902 27.8683 41.5708 27.7617C40.8513 27.655 40.2347 27.4417 39.7208 27.1217C39.6181 27.1217 39.6181 27.1217 39.5153 27.1217C39.0014 27.335 38.3848 27.4417 37.6654 27.335C37.1515 27.2283 36.6376 27.015 36.3293 26.8017C35.7127 27.1217 34.7877 27.335 33.76 27.1217C32.7322 27.015 31.91 26.5883 31.3962 26.055C31.1906 26.055 31.0879 26.055 30.8823 25.9483C30.7795 25.9483 30.7795 25.9483 30.6768 25.9483C29.649 26.1616 28.7241 26.055 28.1074 25.735C26.0519 25.8416 22.7632 24.8816 25.8464 22.7483Z" fill="#F2C03C"/>
<path d="M24.7162 24.7753C25.1273 25.522 26.8744 25.842 28.3133 25.9487C28.9299 26.2687 29.9576 26.3754 30.9854 26.162C31.0882 26.162 31.0881 26.162 31.1909 26.162C31.2937 26.162 31.4992 26.162 31.7048 26.162C32.2186 26.6954 33.0408 27.122 34.0686 27.2287C35.0963 27.442 36.0213 27.2287 36.6379 26.9087C37.049 27.2287 37.4601 27.3354 37.974 27.442C38.6934 27.5487 39.31 27.442 39.8239 27.2287H39.9267C40.4405 27.5487 41.0572 27.7621 41.7766 27.8687C42.496 27.9754 43.1126 27.9754 43.7293 27.7621C44.3459 28.0821 45.2709 28.2954 46.2986 28.1887C47.018 28.7221 48.2513 29.0421 49.5874 28.9354C50.6151 28.8287 51.4373 28.5087 52.1567 28.1887H52.2595C52.8761 28.4021 53.6983 28.5087 54.5205 28.4021C55.2399 28.2954 55.9593 28.1887 56.576 27.8687C57.0899 27.9754 57.7065 27.9754 58.3231 27.9754C59.4537 27.8687 60.3786 27.5487 61.098 27.0154C61.5091 27.122 62.023 27.122 62.5368 27.0154C64.284 26.9087 65.7228 25.9487 65.9284 24.882C66.2367 24.4553 66.4422 23.8153 66.3395 22.962C66.3395 22.642 66.2367 22.322 66.1339 22.002C66.1339 22.1086 66.0312 22.2153 66.0312 22.2153C65.8256 23.3886 64.3868 24.4553 62.4341 24.7753C61.9202 24.882 61.4064 24.882 60.8925 24.7753C60.1731 25.3087 59.1453 25.7353 57.912 25.9487C57.1926 26.0554 56.576 26.0554 55.9593 25.9487C55.3427 26.2687 54.6233 26.482 53.6983 26.5887C52.7734 26.6954 51.9512 26.5887 51.2317 26.482C51.2317 26.482 51.2318 26.482 51.129 26.482C50.4096 27.0154 49.4846 27.3354 48.3541 27.442C46.9153 27.6554 45.5792 27.3354 44.757 26.802C43.6265 26.9087 42.7015 26.802 41.9821 26.3754C41.3655 26.5887 40.6461 26.5887 39.9267 26.482C39.1045 26.3754 38.3851 26.162 37.8712 25.7354C37.7684 25.7354 37.7684 25.7354 37.6657 25.7354C37.1518 26.0554 36.4324 26.162 35.713 26.0554C35.0963 25.9487 34.5825 25.7353 34.1714 25.522C33.4519 25.9487 32.4242 26.162 31.3965 25.9487C30.266 25.842 29.341 25.3087 28.7243 24.7753C28.5188 24.7753 28.416 24.7753 28.2105 24.7753C28.1077 24.7753 28.1077 24.7753 28.0049 24.882C26.8744 25.202 25.8467 25.0953 25.1273 24.7753C25.0245 24.7753 24.9217 24.7753 24.7162 24.7753Z" fill="#D68922"/>
<path d="M28.7246 35.335C27.2858 36.8284 21.736 38.0017 21.1194 37.8951C20.4 37.0417 20.2972 36.295 20.3999 35.975C20.3999 35.7617 27.183 34.375 28.7246 35.335Z" fill="#E43F26"/>
<path d="M29.752 35.6547C27.902 37.1481 20.6051 38.2148 19.8857 38.1081C18.8579 37.2548 18.7552 36.5081 18.7552 36.1881C18.7552 35.9747 27.5937 34.588 29.752 35.6547Z" fill="#CB4C1E"/>
<path d="M30.0605 35.4424C28.2106 34.1624 20.8109 33.5224 20.0915 33.7357C19.1665 34.6958 19.0638 35.5491 19.0638 35.7624C19.1665 36.0824 28.0051 36.7225 30.0605 35.4424Z" fill="#EC6B23"/>
<path d="M29.752 35.8688C28.2103 37.6822 21.8384 39.9223 21.119 39.8156C20.194 38.9622 19.9885 38.1089 19.9885 37.7889C20.0912 37.5755 27.902 35.0155 29.752 35.8688Z" fill="#E75B23"/>
<path d="M29.958 34.9094C28.2109 35.5494 22.1472 33.4161 21.6333 32.9894C21.0167 31.7094 21.1195 30.9627 21.2223 30.7493C21.2223 30.536 28.5192 32.9894 29.958 34.9094Z" fill="#E75B23"/>
<path d="M29.8555 34.8023C28.6222 32.989 23.0724 29.1489 22.4558 28.9355C21.5308 29.1489 21.3253 29.6822 21.3253 29.8956C21.3253 30.1089 28.0055 34.6956 29.8555 34.8023Z" fill="#D1412E"/>
<path d="M29.9588 37.1502C30.2671 37.3636 30.5754 37.5769 31.0893 37.8969C34.3781 39.1769 37.3585 41.9503 41.0583 42.5903C41.3666 42.697 41.7777 42.8036 42.0861 42.8036C43.8332 43.2303 45.4776 43.4437 47.2247 43.7637C47.6358 43.7637 48.0469 43.8703 48.458 43.8703C51.7468 43.8703 55.5494 45.0437 59.0437 44.8304C59.352 44.8304 59.6603 44.8303 59.9687 44.7237C60.277 44.7237 60.5853 44.617 60.8936 44.5103C61.3047 44.4037 61.7158 44.297 62.1269 44.0837C65.4157 42.2703 68.0878 39.0703 67.7795 34.9102C67.7795 34.5902 67.7795 34.2702 67.7795 34.0568C67.7795 33.4168 67.7795 32.8835 67.7795 32.3501C67.6767 31.8168 67.4711 31.3901 67.2656 31.1768C67.06 30.9634 66.649 30.8568 66.0323 30.6434C65.724 30.5368 65.3129 30.5368 65.0046 30.4301C61.3047 29.6834 57.5021 29.3634 53.8022 28.8301C53.3911 28.8301 53.0829 28.9367 52.6718 28.9367C52.3634 28.9367 51.9523 29.0434 51.644 29.1501C51.3357 29.2567 50.9246 29.2568 50.6163 29.3634C49.5885 29.6834 48.5608 29.8968 47.5331 30.1101C47.2248 30.2168 46.8137 30.2168 46.5053 30.3234C42.8055 30.1101 39.7223 32.0301 35.9196 32.5635C35.6113 32.5635 35.303 32.6701 34.9947 32.6701C33.4531 32.8835 31.8087 33.0968 30.2671 33.5235C29.856 33.6302 29.5477 33.8435 29.2394 34.0568C28.2116 34.9102 28.2116 35.8702 29.9588 37.1502Z" fill="#F0B91C"/>
<path d="M62.3327 40.457C62.0243 38.4303 63.8743 37.577 65.4159 38.0037C65.827 38.4303 66.1353 38.7503 66.5464 39.177C67.2658 40.3504 67.2658 41.5237 66.5464 42.2704C65.4159 43.4437 63.1548 42.6971 62.5382 41.4171C62.3326 41.0971 62.3327 40.777 62.3327 40.457Z" fill="#F0B91C"/>
<path d="M63.1544 37.2562C63.5655 35.6561 65.1071 34.0561 66.5459 34.9094C68.0875 36.0828 68.0875 38.8562 66.1348 40.0295C65.0043 40.4562 63.8738 39.2829 63.2572 38.3228C63.1544 37.8962 63.1544 37.5762 63.1544 37.2562Z" fill="#F0B91C"/>
<path d="M65.9292 33.9495C65.9292 33.6295 65.9292 33.3095 66.032 32.9894C66.2375 32.0294 66.6486 31.4961 67.1625 31.4961C67.4708 31.4961 67.7791 31.8161 67.9847 32.2428C68.1902 32.9894 68.293 33.6295 68.293 34.2695C68.293 34.5895 68.293 34.9095 68.1902 35.2295C68.3957 36.4028 67.6763 36.4028 66.8541 36.4028C66.4431 35.9762 66.1347 35.6562 65.9292 34.9095C65.9292 34.6961 65.9292 34.2695 65.9292 33.9495Z" fill="#F0B91C"/>
<path d="M56.8854 31.2825C57.502 28.1891 61.2019 27.8691 63.1546 29.3624C64.6962 30.5358 63.874 33.3092 62.0241 33.7358C60.4825 34.1625 59.0437 33.3092 57.3993 32.4558C57.091 32.0291 56.8854 31.7091 56.8854 31.2825Z" fill="#F0B91C"/>
<path d="M60.7907 31.9223C62.024 30.2156 63.5656 29.0422 65.21 29.4689C65.5183 29.5756 65.8266 29.7889 66.1349 30.0023C66.3405 30.1089 66.6488 30.2156 66.8543 30.4289C67.1627 30.6423 67.3682 30.9623 67.5738 31.2823C67.7793 31.6023 67.7793 31.9223 67.7793 32.2423C67.7793 32.989 67.471 33.4156 67.0599 33.7356C66.7516 34.0557 66.3405 34.269 66.0322 34.3757C65.5183 34.3757 65.0044 34.4823 64.4906 34.4823C64.1822 34.4823 63.9767 34.4823 63.6684 34.3757C62.8462 33.949 62.024 33.5223 61.3046 32.989C60.8935 32.669 60.7907 32.349 60.7907 31.9223Z" fill="#F0B91C"/>
<path d="M52.9794 30.9634C53.185 30.6434 53.3905 30.3234 53.5961 30.11C53.8016 29.8967 54.0072 29.6834 54.2127 29.47C56.6793 27.4433 61.3041 28.9367 59.7625 32.5634C59.0431 34.1634 57.0904 34.1634 55.2405 33.4168C54.8294 33.4168 54.5211 33.3101 54.2127 33.0968C53.9044 32.8834 53.6989 32.6701 53.4933 32.3501C53.0822 31.8167 52.9794 31.3901 52.9794 30.9634Z" fill="#F0B91C"/>
<path d="M48.2514 30.6428C48.6625 29.6828 49.0736 29.3628 49.5875 29.0428C49.793 28.8295 50.1013 28.7228 50.3069 28.6161C50.6152 28.5095 50.9235 28.4028 51.2318 28.4028C51.5401 28.2961 51.7457 28.2961 52.054 28.1895C52.3624 28.1895 52.5679 28.1895 52.8762 28.1895C53.1845 28.1895 53.4928 28.2961 53.8012 28.4028C55.24 28.5095 56.6788 32.0295 54.4178 32.5629C54.1095 32.7762 53.8012 32.9895 53.4929 33.0962C53.1845 33.2029 52.8762 33.3095 52.4651 33.3095C52.1568 33.3095 51.8485 33.3095 51.4374 33.2029C50.6152 32.7762 49.4847 32.3495 48.7653 31.8162C48.4569 31.6028 48.2514 31.1762 48.2514 30.6428Z" fill="#F0B91C"/>
<path d="M56.9879 43.2296C57.8101 42.2696 58.2212 41.0963 59.9684 41.6296C60.0711 41.8429 60.2767 41.9496 60.4822 42.0563C61.0989 42.4829 61.9211 43.0163 61.6127 44.1896C61.51 44.5096 61.3044 44.723 61.0989 44.9363C60.585 45.363 59.8656 45.363 59.1462 45.043C58.9406 44.9363 58.6323 44.8296 58.4268 44.723C57.8101 44.5096 57.399 44.083 57.0907 43.9763C56.9879 43.8696 56.9879 43.5496 56.9879 43.2296Z" fill="#F0B91C"/>
<path d="M52.2602 43.1225C53.2879 40.3492 56.2684 40.7758 58.2211 42.2692C59.3516 43.4425 58.6322 45.0426 57.5017 45.7892C55.6517 46.9626 53.6991 45.7892 52.6713 44.4026C52.363 43.9759 52.2602 43.5492 52.2602 43.1225Z" fill="#F0B91C"/>
<path d="M48.3546 42.4835C49.074 41.2035 50.2045 40.0301 51.7461 40.3502C53.596 40.7768 55.9598 42.6968 54.4182 44.7236C52.5683 46.6436 50.2045 45.1502 48.6629 43.7635C48.4573 43.3369 48.3546 42.9102 48.3546 42.4835Z" fill="#F0B91C"/>
<path d="M45.0659 41.8434C45.3742 40.3501 46.9158 40.3501 48.0463 40.1367C48.3546 40.1367 48.663 40.1367 48.8685 40.2434C50.3073 39.9234 50.6157 41.0967 51.0268 41.9501C51.7462 43.5501 50.3073 44.2968 48.9713 44.5101C48.663 44.5101 48.3546 44.6168 48.1491 44.5101C47.8408 44.5101 47.6352 44.4035 47.3269 44.4035C47.0186 44.2968 46.813 44.1901 46.6075 44.0835C45.7853 43.8701 45.477 43.5501 45.2714 42.6968C45.0659 42.3768 44.9631 42.0568 45.0659 41.8434Z" fill="#F0B91C"/>
<path d="M41.4689 40.8823C42.291 38.7489 44.2438 39.1756 45.7854 39.6023C46.9159 40.029 48.4575 40.7756 47.6353 42.3757C46.5048 44.7224 43.1132 43.9757 41.5716 41.8423C41.4689 41.4157 41.4689 41.2023 41.4689 40.8823Z" fill="#F0B91C"/>
<path d="M38.2833 40.4559C39.0027 39.4959 40.1332 38.7492 41.3665 38.6426C41.6748 38.6426 41.9831 38.7492 42.1887 38.8559C43.0108 39.1759 43.7303 39.8159 44.2441 40.7759C44.6552 42.376 42.7025 43.8693 41.2637 43.5493C40.9554 43.4427 40.647 43.336 40.4415 43.2293C39.7221 42.8027 39.0027 42.8027 38.4888 41.416C38.2832 41.096 38.1805 40.7759 38.2833 40.4559Z" fill="#F0B91C"/>
<path d="M35.8167 39.1766C37.05 37.1499 39.7221 36.7233 41.3665 38.6433C41.572 38.9633 41.6748 39.1766 41.6748 39.4966C41.6748 39.8166 41.6748 40.1366 41.4692 40.4566C41.3665 40.7767 41.1609 41.0967 40.8526 41.4167C39.0027 42.59 37.4611 40.99 35.9195 40.03C35.8167 39.8166 35.7139 39.4966 35.8167 39.1766Z" fill="#F0B91C"/>
<path d="M32.8358 37.577C33.9664 35.2303 37.0496 35.6569 38.5912 36.8303C39.7217 38.4303 37.4607 40.3504 35.9191 40.3504C35.1996 39.9237 34.0691 39.6037 33.2469 38.857C32.9386 38.4303 32.7331 38.0036 32.8358 37.577Z" fill="#F0B91C"/>
<path d="M29.6495 36.0817C29.6495 35.7617 29.7523 35.5484 29.9579 35.2284C30.4717 34.695 31.0884 34.375 31.705 34.375C32.0133 34.375 32.3217 34.375 32.63 34.375C34.2744 35.1217 36.227 35.975 35.5076 37.8951C34.3771 39.8151 32.1161 38.6417 30.3689 37.7884C30.1634 37.5751 29.9578 37.255 29.7523 36.935C29.6495 36.7217 29.6495 36.4017 29.6495 36.0817Z" fill="#F0B91C"/>
<path d="M31.1912 34.3763C31.9106 32.6696 33.4522 32.243 34.7883 32.563C35.0966 32.6696 35.5077 32.7763 35.816 32.9896C36.1243 33.0963 36.3299 33.3097 36.5354 33.523C37.7687 35.123 37.0493 37.4697 35.0966 37.1497C33.555 37.1497 32.1162 36.7231 31.294 35.2297C31.1912 35.0164 31.1912 34.6963 31.1912 34.3763Z" fill="#F0B91C"/>
<path d="M34.6858 34.2699C34.7886 33.8432 34.7886 33.5232 34.8914 33.3099C34.9941 32.9898 35.0969 32.7765 35.3024 32.5632C35.4052 32.3498 35.6108 32.1365 35.8163 32.0298C37.3579 31.3898 40.0301 30.5365 40.3384 32.5632C40.5439 33.3099 40.4411 33.9499 40.1328 34.3765C39.9273 34.5899 39.7217 34.8032 39.4134 34.9099C38.0773 35.9766 36.5357 35.6566 34.9941 35.0165C34.8914 34.8032 34.7886 34.5899 34.6858 34.2699Z" fill="#F0B91C"/>
<path d="M42.086 32.884C42.7026 30.964 44.9637 28.9373 47.0191 30.0039C47.3275 30.2173 47.533 30.4306 47.7385 30.7506C47.9441 31.0706 48.0469 31.3906 48.0469 31.8173C47.9441 32.244 47.8413 32.6707 47.6358 32.9907C47.4302 33.3107 47.1219 33.6307 46.8136 33.844C45.3747 35.3374 43.8331 34.164 42.4971 33.6307C42.2915 33.4173 42.1888 33.204 42.086 32.884Z" fill="#F0B91C"/>
<path d="M45.8891 31.2832C45.7863 30.5366 46.0946 29.7899 46.9168 29.6832C47.2251 29.5766 47.5335 29.4699 47.8418 29.3632C48.7667 29.1499 49.8973 29.3632 50.6167 29.6832C50.925 29.7899 51.2333 30.0032 51.5416 30.2166C52.2611 30.9632 52.261 31.8166 51.9527 32.5633C51.7472 32.9899 51.4389 33.2033 51.1306 33.4166C50.4111 33.7366 49.4862 33.7366 48.5612 33.4166C48.2529 33.3099 47.9445 33.2033 47.6362 33.0966C47.3279 32.8833 46.9168 32.4566 46.1974 32.0299C45.8891 31.8166 45.7863 31.4966 45.8891 31.2832Z" fill="#F0B91C"/>
<path d="M39.1054 33.5235C38.8999 32.1368 40.0304 31.2834 41.1609 30.5367C42.2914 30.1101 44.9635 31.7101 44.1413 33.3101C44.0386 33.5235 43.833 33.8435 43.6275 34.0568C43.4219 34.2701 43.1136 34.4835 42.9081 34.6968C41.8803 34.4835 41.1609 35.6568 40.236 35.0168C39.9276 34.9101 39.7221 34.6968 39.5165 34.3768C39.311 34.0568 39.2082 33.8435 39.1054 33.5235Z" fill="#F0B91C"/>
<path d="M60.7909 42.4827C61.202 41.096 62.0242 40.3494 63.1547 40.776C63.8741 41.2027 64.6963 41.5227 64.6963 42.6961C64.2852 44.6161 61.3048 45.4694 60.9964 43.3361C60.7909 43.0161 60.7909 42.8027 60.7909 42.4827Z" fill="#F0B91C"/>
<path d="M67.265 35.87C67.4705 36.2967 67.6761 36.6167 67.6761 37.0433C67.6761 36.83 67.7789 36.51 67.7789 36.2967C68.19 36.19 68.3955 35.87 68.2927 35.1233C68.2927 34.8033 68.3955 34.4833 68.3955 34.1633C68.3955 33.6299 68.2927 33.2033 68.1899 32.6699C68.1899 32.8833 68.19 33.0966 68.0872 33.3099C68.19 34.0566 67.9844 34.8033 67.4706 35.4433C67.3678 35.6566 67.265 35.7633 67.265 35.87Z" fill="#F0B91C"/>
<path d="M29.8557 37.0424C29.9584 37.3624 30.164 37.5757 30.3695 37.789C31.2945 38.3224 32.425 38.8557 33.4527 38.9624C33.9666 39.3891 34.5833 39.7091 35.1999 39.9224C36.1249 40.4558 37.0498 40.9891 37.9748 41.4158C38.1803 41.5224 38.3859 41.6291 38.5914 41.7358C39.1053 42.6958 39.7219 42.6958 40.3386 43.1225C40.6469 43.2291 40.8524 43.3358 41.1608 43.4425C41.7774 43.6558 42.4968 43.4425 43.0107 43.0158C43.8329 43.5491 44.8606 43.7625 45.6828 43.6558C45.8883 43.8691 46.0939 43.9758 46.505 43.9758C46.7106 44.0825 47.0189 44.1892 47.2244 44.2958C47.5327 44.4025 47.7383 44.4025 48.0466 44.4025C48.3549 44.4025 48.6632 44.4025 48.8688 44.4025C49.0743 44.4025 49.1771 44.2958 49.3827 44.2958C50.6159 45.1492 52.0548 45.8958 53.3908 45.2558C54.5213 46.2158 55.9601 46.6425 57.399 45.7892C57.8101 45.5758 58.1184 45.1492 58.324 44.8292C58.324 44.8292 58.3239 44.8292 58.4267 44.8292C58.6323 44.9358 58.9406 45.0425 59.1461 45.1492C59.8656 45.3625 60.585 45.3625 61.0988 45.0425C61.3044 44.9358 61.4071 44.7225 61.5099 44.4025C62.4349 45.0425 64.1821 44.2958 64.4904 42.9091C65.2098 43.0158 65.9292 42.9091 66.4431 42.3758C67.0597 41.7358 67.4708 40.7758 66.9569 39.8157C67.0597 39.7091 67.368 39.3891 67.368 39.2824C67.6763 38.8557 68.4985 37.469 67.5736 36.4023C67.4708 36.7223 67.2653 38.4291 66.9569 38.6424C66.6486 38.9624 66.3403 39.0691 66.032 39.1757C65.6209 39.2824 65.3126 39.2824 64.9015 39.2824C64.7987 39.6024 64.5931 39.9224 64.3876 40.2424C64.1821 40.4558 63.8737 40.7758 63.5654 40.8824C63.2571 40.9891 62.9487 41.0958 62.5377 41.2024C62.3321 41.2024 61.5099 40.7758 61.0988 41.7358C60.7905 41.9491 60.4822 42.0558 60.1739 42.0558C59.8656 42.0558 59.4545 42.0558 59.0434 41.9491C56.5768 43.1225 54.3158 43.1225 51.6437 42.6958C51.2326 42.6958 50.9243 42.6958 50.5132 42.5891C50.3076 42.4825 49.9993 42.4825 49.7937 42.3758C48.766 41.6291 48.0466 41.9491 46.8133 41.8424C46.505 41.8424 46.1967 41.8424 45.8884 41.7358C45.58 41.6291 45.2717 41.5224 45.0661 41.4158C43.4218 41.0958 43.1135 41.0958 41.7774 41.5224C41.4691 41.6291 39.5164 41.2024 39.2081 41.2024C38.8998 41.0958 38.5914 40.9891 38.2831 40.9891C37.9748 40.7758 37.5637 40.6691 37.2554 40.5624C36.9471 40.3491 36.5359 40.1357 36.3304 39.7091C36.0221 39.2824 35.1999 39.2824 34.7888 39.1757C34.4805 39.0691 34.2749 38.9624 33.9666 38.8557C33.4527 38.6424 32.9389 38.4291 32.425 38.109C31.8084 37.8957 31.089 37.5757 30.4723 37.2557C30.2668 37.149 30.0612 37.0424 29.8557 37.0424Z" fill="#D68922"/>
<path d="M52.6718 39.3892C52.569 39.2826 52.4662 39.0692 52.3634 38.9626C52.4662 38.9626 52.4662 39.0692 52.569 39.0692C53.2884 39.6026 54.0078 39.8159 54.6245 39.4959C54.83 39.3892 55.0356 39.1759 55.2411 38.9626C56.0633 39.9226 58.1187 39.6026 58.9409 38.2159C59.6603 38.5359 60.4825 38.6426 61.202 38.2159C61.6131 38.0025 61.9214 37.6825 62.2297 37.2559C62.4352 38.3225 61.8186 39.0692 60.9964 39.6026C60.3798 39.9226 59.6603 39.9226 59.0437 39.6026C58.3243 40.8826 56.4744 41.0959 55.755 40.2426C55.5494 40.4559 55.3439 40.6693 55.1383 40.7759C54.5217 40.9893 53.905 40.7759 53.2884 40.3493C53.1856 40.2426 52.9801 40.1359 52.8773 40.0292C52.8773 39.8159 52.7745 39.6026 52.6718 39.3892Z" fill="#D68922"/>
<path d="M36.9464 37.3633C37.3575 37.8966 37.8714 38.11 38.3853 38.0033C38.488 38.2166 38.5908 38.3233 38.7964 38.3233C38.8992 38.43 39.1047 38.6433 39.2075 38.6433C39.3102 38.75 39.5158 38.75 39.6186 38.8566C39.7213 38.8566 39.9269 38.8566 40.1324 38.8566C40.2352 38.8566 40.338 38.8566 40.4407 38.75C40.6463 39.07 40.9546 39.39 41.1602 39.71C41.0574 39.71 40.8518 39.71 40.7491 39.71C40.6463 39.71 40.4408 39.6033 40.338 39.6033C40.2352 39.4966 40.1324 39.39 40.0296 39.2833C39.8241 39.1766 39.7213 39.07 39.6186 38.9633C39.2075 39.07 38.6936 38.8566 38.3853 38.3233C38.0769 38.6433 37.7686 38.75 37.4603 38.5366C37.3575 38.43 37.152 38.3233 37.0492 38.2166C36.8437 37.8966 36.6381 37.7899 36.4326 37.4699C36.5353 37.6833 36.7409 37.5766 36.9464 37.3633Z" fill="#D68922"/>
<path d="M91.0054 50.5887C91.2109 50.4821 91.3137 50.5887 91.4165 50.8021L91.5193 51.1221C91.622 51.3354 91.5192 51.4421 91.3137 51.5487L11.0476 87.496C10.842 87.6027 10.7392 87.496 10.6365 87.2827L9.71149 85.1493C9.60872 84.936 9.7115 84.7226 9.91705 84.7226L91.0054 50.5887Z" fill="#DBAC7A"/>
<path d="M10.6365 87.0703L10.7393 87.2837C10.842 87.497 11.0476 87.497 11.1504 87.497L91.4165 51.5497C91.6221 51.4431 91.6221 51.3364 91.6221 51.123L10.6365 87.0703Z" fill="#A1764F"/>
<path d="M92.2395 53.0418C92.445 52.9352 92.5478 53.0418 92.6505 53.2552L92.7533 53.5752C92.8561 53.7885 92.7533 53.8952 92.6505 54.0019L13.2066 91.8692C13.001 91.9759 12.8982 91.8692 12.7955 91.6559L11.8705 89.5225C11.7677 89.3091 11.8705 89.0958 12.0761 89.0958L92.2395 53.0418Z" fill="#DBAC7A"/>
<path d="M12.6922 91.549L12.795 91.7623C12.8977 91.9756 13.1033 91.9756 13.206 91.9756L92.65 54.1083C92.8556 54.0016 92.8556 53.7883 92.7528 53.6816L12.6922 91.549Z" fill="#A1764F"/>
<path d="M-3.44369 40.6686C-3.44369 48.562 2.72272 54.9622 10.328 54.9622C17.9332 54.9622 24.0996 48.562 24.0996 40.6686C24.0996 32.7751 17.9332 26.375 10.328 26.375C2.61994 26.4817 -3.44369 32.7751 -3.44369 40.6686Z" fill="#ECE6DB"/>
<path d="M-1.08039 40.6683C-1.08039 47.1751 3.95552 52.5085 10.3275 52.5085C16.5967 52.5085 21.7354 47.2818 21.7354 40.6683C21.7354 34.1615 16.5967 28.8281 10.3275 28.8281C3.95552 28.9348 -1.08039 34.1615 -1.08039 40.6683Z" fill="#5C2501"/>
<path opacity="0.4" d="M18.4468 43.7617C18.4468 37.2549 13.3081 31.9215 7.03895 31.9215C4.77794 31.9215 2.72247 32.5615 0.975321 33.7349C3.03079 30.7482 6.42232 28.8281 10.2249 28.8281C16.4941 28.8281 21.6328 34.0549 21.6328 40.6683C21.6328 44.8284 19.5773 48.5618 16.3914 50.5885C17.7274 48.6685 18.4468 46.3218 18.4468 43.7617Z" fill="#5C2501"/>
<path d="M13.6174 48.5627C12.4869 49.416 11.0481 49.9494 9.50647 49.9494C5.29275 50.1627 1.79844 46.856 1.59289 42.5892C1.49012 40.7759 2.10676 39.0692 3.13449 37.6825C3.75113 36.8291 4.98441 37.2558 4.98441 38.3225V38.4292C4.98441 42.5892 8.58148 46.1093 12.6924 46.0026H12.7952C14.1313 45.8959 14.7479 47.7093 13.6174 48.5627Z" fill="#8C4518"/>
<path d="M15.299 64.459C14.3381 58.2944 18.3742 52.4885 24.3138 51.4912C30.2533 50.494 35.8472 54.6829 36.8081 60.8476C37.7689 67.0123 33.7329 72.8182 27.7933 73.8155C21.8537 74.8127 16.2598 70.6237 15.299 64.459Z" fill="#ECE6DB"/>
<path d="M26.0531 72.6689C20.7177 72.6689 16.3924 68.1797 16.3924 62.6421C16.3924 57.1044 20.7177 52.6152 26.0531 52.6152C31.3886 52.6152 35.7139 57.1044 35.7139 62.6421C35.7139 68.1797 31.3886 72.6689 26.0531 72.6689Z" fill="#F5D678"/>
<path d="M33.0417 65.3095C33.0417 59.7628 28.7253 55.2827 23.381 55.2827C21.4283 55.2827 19.6812 55.8161 18.2424 56.8827C19.9895 54.3227 22.8671 52.7227 26.0531 52.7227C31.3974 52.7227 35.7139 57.2027 35.7139 62.7495C35.7139 66.2696 33.9667 69.3629 31.2946 71.1763C32.3223 69.4696 33.0417 67.4429 33.0417 65.3095Z" fill="#F5D678"/>
<path d="M28.931 69.2555C27.9033 70.0022 26.7728 70.4289 25.4367 70.4289C21.8396 70.5355 18.8592 67.7621 18.7564 64.2421C18.6536 62.7487 19.1675 61.2554 19.9897 60.082C20.5036 59.442 21.5313 59.762 21.5313 60.6154C21.5313 60.6154 21.5313 60.6154 21.5313 60.722C21.5313 64.2421 24.5117 67.2288 28.006 67.1221H28.1088C29.3421 67.1221 29.856 68.6155 28.931 69.2555Z" fill="#FAEBC4"/>
</svg>
