<svg width="96" height="97" viewBox="0 0 96 97" fill="none" xmlns="http://www.w3.org/2000/svg">
<rect y="0.867188" width="96" height="96" rx="6" fill="#F6F6F6"/>
<path d="M46.9208 52.3279C50.0246 52.3279 52.5408 49.8117 52.5408 46.7079C52.5408 43.604 50.0246 41.0879 46.9208 41.0879C43.8169 41.0879 41.3008 43.604 41.3008 46.7079C41.3008 49.8117 43.8169 52.3279 46.9208 52.3279Z" stroke="#9EA3AE" stroke-width="2" stroke-linecap="round" stroke-linejoin="round"/>
<path d="M57.301 65.2687C57.301 60.6087 52.661 56.8086 46.921 56.8086C41.181 56.8086 36.541 60.5887 36.541 65.2687" stroke="#9EA3AE" stroke-width="2" stroke-linecap="round" stroke-linejoin="round"/>
<path d="M66 49.8672C66 60.3672 57.5 68.8672 47 68.8672C36.5 68.8672 28 60.3672 28 49.8672C28 39.3672 36.5 30.8672 47 30.8672C49.62 30.8672 52.12 31.3872 54.4 32.3472C54.14 33.1472 54 33.9872 54 34.8672C54 36.3672 54.42 37.7872 55.16 38.9872C55.56 39.6672 56.08 40.2871 56.68 40.8071C58.08 42.0871 59.94 42.8672 62 42.8672C62.88 42.8672 63.72 42.7271 64.5 42.4471C65.46 44.7271 66 47.2472 66 49.8672Z" stroke="#9EA3AE" stroke-width="2" stroke-linecap="round" stroke-linejoin="round"/>
<path d="M70 34.8672C70 35.5072 69.92 36.1272 69.76 36.7272C69.58 37.5272 69.26 38.3072 68.84 38.9872C67.88 40.6072 66.34 41.8671 64.5 42.4471C63.72 42.7271 62.88 42.8672 62 42.8672C59.94 42.8672 58.08 42.0871 56.68 40.8071C56.08 40.2871 55.56 39.6672 55.16 38.9872C54.42 37.7872 54 36.3672 54 34.8672C54 33.9872 54.14 33.1472 54.4 32.3472C54.78 31.1872 55.42 30.1472 56.26 29.2872C57.72 27.7872 59.76 26.8672 62 26.8672C64.36 26.8672 66.5 27.8872 67.94 29.5272C69.22 30.9472 70 32.8272 70 34.8672Z" stroke="#9EA3AE" stroke-width="2" stroke-miterlimit="10" stroke-linecap="round" stroke-linejoin="round"/>
<path d="M64.9795 34.8262H59.0195" stroke="#9EA3AE" stroke-width="2" stroke-miterlimit="10" stroke-linecap="round" stroke-linejoin="round"/>
<path d="M62 31.9062V37.8862" stroke="#9EA3AE" stroke-width="2" stroke-miterlimit="10" stroke-linecap="round" stroke-linejoin="round"/>
</svg>
