<svg width="94" height="104" viewBox="0 0 94 104" fill="none" xmlns="http://www.w3.org/2000/svg">
<path d="M28.3847 85.9825C2.1846 85.9825 -19.0548 64.7431 -19.0548 38.543C-19.0548 12.3429 2.1846 -8.89648 28.3847 -8.89648C54.5848 -8.89648 75.8242 12.3429 75.8242 38.543C75.8242 64.7431 54.5848 85.9825 28.3847 85.9825Z" fill="#D2BE9C"/>
<path d="M-18.587 31.9414C-18.4566 33.5862 -18.2583 35.2283 -17.9416 36.8572C-16.3274 45.1463 -12.3205 53.0469 -7.71619 60.0852C-3.68804 66.2425 1.36876 72.4238 8.97659 73.889C11.2947 74.3348 13.2722 73.7825 14.7414 72.666C18.2785 73.6481 21.8369 74.1445 25.6867 74.0793C35.5954 73.9116 46.0723 72.9109 55.0175 68.2905C63.8922 63.7075 69.5731 56.9673 72.9412 47.6588C73.9832 44.7777 75.0118 41.7623 75.8223 38.6869C75.7438 64.82 54.5384 85.9814 28.3868 85.9814C2.18718 85.9814 -19.0527 64.7415 -19.0527 38.5419C-19.0541 36.3009 -18.8877 34.0999 -18.587 31.9414Z" fill="#C4AC84"/>
<path d="M-4.11133 71.0449C-22.0606 53.0957 -22.0606 23.9942 -4.11134 6.04492C13.8379 -11.9043 42.9394 -11.9043 60.8887 6.04494C78.8379 23.9942 78.8379 53.0957 60.8887 71.0449C42.9394 88.9942 13.8379 88.9942 -4.11133 71.0449Z" fill="#FFF6FA"/>
<path d="M28.385 83.6598C3.46807 83.6598 -16.7311 63.4607 -16.7311 38.5438C-16.7311 13.6269 3.46807 -6.57227 28.385 -6.57227C53.3019 -6.57227 73.501 13.6269 73.501 38.5438C73.501 63.4607 53.3019 83.6598 28.385 83.6598Z" fill="#E3D9C8"/>
<path d="M47.1934 79.549C41.4672 82.1799 35.101 83.6583 28.3847 83.6583C3.46796 83.6583 -16.7313 63.459 -16.7313 38.5423C-16.7313 24.1317 -9.96586 11.3087 0.552296 3.04883C-0.481689 8.39707 -0.844986 13.9116 -1.18433 19.3637C-1.5556 25.3187 -1.92154 31.3456 -0.831661 37.2115C0.515049 44.4561 4.02952 51.1271 8.1069 57.2644C12.5582 63.9634 17.8439 70.2764 24.5987 74.6426C31.2405 78.9369 39.4671 81.1831 47.1934 79.549Z" fill="#D2C9B9"/>
<path d="M28.3853 74.7528C8.38745 74.7528 -7.82407 58.5413 -7.82407 38.5434C-7.82407 18.5455 8.38745 2.33398 28.3853 2.33398C48.3832 2.33398 64.5947 18.5455 64.5947 38.5434C64.5947 58.5413 48.3832 74.7528 28.3853 74.7528Z" fill="#FFF6FA"/>
<path d="M28.3849 73.1989C9.24547 73.1989 -6.27017 57.6833 -6.27017 38.5438C-6.27017 19.4043 9.24547 3.88867 28.3849 3.88867C47.5244 3.88867 63.04 19.4043 63.04 38.5438C63.04 57.6833 47.5244 73.1989 28.3849 73.1989Z" fill="#D2BE9C"/>
<path d="M28.3849 69.3903C11.3489 69.3903 -2.46158 55.5798 -2.46158 38.5438C-2.46158 21.5077 11.3489 7.69727 28.3849 7.69727C45.421 7.69727 59.2314 21.5077 59.2314 38.5438C59.2314 55.5798 45.421 69.3903 28.3849 69.3903Z" fill="#FFF6FA"/>
<path d="M28.3845 68.0963C11.8298 68.0963 -1.5904 54.865 -1.5904 38.5433C-1.5904 22.2216 11.8298 8.99023 28.3845 8.99023C44.9392 8.99023 58.3594 22.2216 58.3594 38.5433C58.3594 54.865 44.9392 68.0963 28.3845 68.0963Z" fill="#E3D9C8"/>
<path d="M34.582 4.91828C33.5707 4.91828 32.7509 4.33976 32.7509 3.62613C32.7509 2.9125 33.5707 2.33398 34.582 2.33398C35.5933 2.33398 36.4131 2.9125 36.4131 3.62613C36.4131 4.33976 35.5933 4.91828 34.582 4.91828Z" fill="white"/>
<path d="M24.0643 4.38287C23.2249 4.38287 22.5446 3.94913 22.5446 3.41409C22.5446 2.87905 23.2249 2.44531 24.0643 2.44531C24.9036 2.44531 25.584 2.87905 25.584 3.41409C25.584 3.94913 24.9036 4.38287 24.0643 4.38287Z" fill="white"/>
<path d="M43.6882 70.4386C43.8958 71.0201 44.7461 71.2477 45.5858 70.9469C46.4255 70.6462 46.9378 69.9316 46.7302 69.3501C46.5226 68.7685 45.6723 68.541 44.8326 68.8417C43.9916 69.1425 43.4792 69.8571 43.6882 70.4386Z" fill="white"/>
<path d="M61.1955 7.69645C61.1955 8.40972 61.7012 8.98859 62.3253 8.98859C62.9494 8.98859 63.4551 8.40972 63.4551 7.69645C63.4551 6.98317 62.9494 6.4043 62.3253 6.4043C61.7012 6.4043 61.1955 6.98317 61.1955 7.69645Z" fill="white"/>
<path d="M57.2979 4.3825C56.6129 4.3825 56.0576 3.83079 56.0576 3.15023C56.0576 2.46967 56.6129 1.91797 57.2979 1.91797C57.9828 1.91797 58.5381 2.46967 58.5381 3.15023C58.5381 3.83079 57.9828 4.3825 57.2979 4.3825Z" fill="white"/>
<path d="M-7.69446 24.2927L22.1846 -0.518959C24.9938 -2.85174 29.1497 -2.52571 31.4173 0.204963L37.3058 7.29514C39.2101 9.58933 39.1968 12.8749 37.4815 15.253L62.2571 45.0868C63.8088 46.9565 63.5067 49.791 61.5838 51.3878L36.5992 72.1354C34.6763 73.7323 31.8338 73.5087 30.2822 71.639L5.59298 41.909C2.84634 43.5564 -0.740005 43.0601 -2.79067 40.5916L-8.67919 33.5014C-10.9468 30.7707 -10.505 26.6268 -7.69446 24.2927Z" fill="#6A3013"/>
<path d="M-5.75059 24.5102L22.0405 1.43121C24.6541 -0.739226 28.5678 -0.375935 30.7383 2.23764L36.3713 9.02174C38.1944 11.2161 38.2236 14.3247 36.6414 16.5511L60.3445 45.0928C61.8296 46.8813 61.5808 49.5587 59.7936 51.0438L36.5536 70.3422C34.7651 71.8273 32.0876 71.5784 30.6025 69.7913L6.98325 41.348C4.42024 42.8704 1.03885 42.3541 -0.922661 39.992L-6.55569 33.2079C-8.72746 30.5944 -8.36416 26.6806 -5.75059 24.5102Z" fill="#F5DDBA"/>
<path d="M-3.98031 25.161L22.3564 3.29033C24.8329 1.23433 28.5416 1.57766 30.5989 4.05417L35.9379 10.483C37.6652 12.5629 37.6931 15.5078 36.1934 17.6171L58.6523 44.6643C60.0588 46.3583 59.8246 48.8961 58.1293 50.304L36.1069 68.5923C34.4128 69.9989 31.8751 69.7647 30.4672 68.0694L8.08419 41.1166C5.65559 42.5591 2.45116 42.0694 0.592121 39.8324L-4.74682 33.4036C-6.80148 30.9271 -6.45682 27.217 -3.98031 25.161Z" fill="#F5CD91"/>
<path d="M24.8661 2.2175C25.3678 2.82166 26.3313 2.84827 27.0193 2.27739C27.7073 1.7065 27.8577 0.753692 27.356 0.150868C26.8543 -0.453288 25.8908 -0.479904 25.2028 0.0909828C24.5148 0.66187 24.3645 1.61335 24.8661 2.2175Z" fill="#FFF4E3"/>
<path d="M33.3522 72.6474C33.605 72.9521 34.0216 73.0227 34.2824 72.8058C34.5432 72.5889 34.5499 72.167 34.297 71.8623C34.0442 71.5575 33.6277 71.487 33.3669 71.7039C33.106 71.9208 33.0994 72.3427 33.3522 72.6474Z" fill="#451B06"/>
<path d="M61.6195 48.2913C61.859 48.58 62.3261 48.588 62.6614 48.3099C62.9968 48.0318 63.074 47.5713 62.8344 47.2826C62.5949 46.9938 62.1278 46.9858 61.7924 47.2639C61.4571 47.5421 61.3799 48.0025 61.6195 48.2913Z" fill="#451B06"/>
<path d="M28.8291 0.296824C29.2017 0.745283 29.7553 0.898316 30.0667 0.640153C30.3781 0.38199 30.3289 -0.190226 29.9563 -0.638685C29.5837 -1.08714 29.0301 -1.24018 28.7187 -0.982018C28.4086 -0.723855 28.4579 -0.150304 28.8291 0.296824Z" fill="#451B06"/>
<path d="M-0.499373 42.0108C-0.214595 42.3528 0.235201 42.4473 0.505341 42.2224C0.776812 41.9975 0.766143 41.537 0.481365 41.195C0.196586 40.853 -0.253177 40.7585 -0.523317 40.9834C-0.793457 41.2083 -0.784151 41.6688 -0.499373 42.0108Z" fill="#451B06"/>
<path d="M36.7712 12.5686C36.9841 12.8254 37.3408 12.8826 37.5657 12.695C37.7906 12.5074 37.8012 12.1481 37.587 11.8912C37.374 11.6344 37.0174 11.5772 36.7925 11.7648C36.5676 11.9525 36.5583 12.3118 36.7712 12.5686Z" fill="#FFF4E3"/>
<path d="M2.71272 41.7775C2.88838 41.9891 3.15319 42.0583 3.30622 41.9319C3.45793 41.8055 3.43799 41.5327 3.26233 41.3211C3.08667 41.1095 2.82186 41.0403 2.66883 41.1667C2.51712 41.2918 2.53706 41.5659 2.71272 41.7775Z" fill="#FFF4E3"/>
<path d="M39.7187 21.1754C40.7939 22.9878 42.8832 23.9553 44.6757 25.1303C46.4682 26.304 48.1968 28.1471 47.8495 30.1991C47.6991 31.0894 47.1708 31.8719 46.8781 32.7262C46.2766 34.4801 46.7609 36.5454 48.089 37.8921C49.3546 39.175 51.1883 39.7432 52.7852 40.6161C54.3821 41.4891 55.9098 43.0022 55.7075 44.7534C55.4986 46.5659 53.5557 47.7449 53.0021 49.4855C52.233 51.9021 54.3368 54.356 54.2756 56.8884C54.237 58.4733 53.2683 60.0023 51.8244 60.7542C50.3806 61.5061 48.5175 61.4528 47.1096 60.6198C46.1022 60.0236 45.2599 59.0429 44.0888 58.9111C42.2923 58.7102 41.0294 60.6305 40.766 62.3524C40.5025 64.0744 40.73 65.9481 39.8172 67.4452C39.0001 68.7852 37.3233 69.5491 35.7092 69.4359C34.0936 69.3215 32.5872 68.3887 31.689 67.0845C31.0636 66.177 30.7189 65.1177 30.1307 64.1875C29.5439 63.2573 28.5924 62.4163 27.4652 62.4096C26.8943 62.407 26.3501 62.6186 25.7925 62.7317C23.2202 63.2547 20.3923 61.2745 20.1049 58.7501C19.8015 56.086 21.9041 53.2648 20.6133 50.8841C19.7376 49.2713 17.6989 48.6857 15.9171 48.0829C14.1352 47.4801 12.1604 46.3915 11.9834 44.5817C11.9023 43.7527 12.2349 42.917 12.0912 42.0946C11.853 40.7386 10.4078 39.8802 9.01988 39.5622C7.63192 39.2428 6.16012 39.2721 4.82539 38.7824C2.62435 37.9733 1.11397 35.6698 1.30559 33.4142C1.55444 30.4733 4.32237 27.7186 3.22717 24.9533C2.91312 24.1602 2.30498 23.5002 1.97096 22.7137C1.22708 20.9665 1.96562 18.9637 3.01291 17.3814C3.63702 16.438 4.54992 15.4772 5.71431 15.5144C6.1508 15.5277 6.58728 15.6861 7.01445 15.6036C8.20014 15.3747 8.20944 13.7924 8.46761 12.6547C8.81227 11.1336 10.1404 9.90402 11.6986 9.49149C13.2569 9.0803 14.9869 9.44226 16.331 10.3192C18.1328 11.4956 19.7869 13.6647 21.8788 13.1284C22.4537 12.9807 22.9447 12.6347 23.4557 12.3406C25.7286 11.0312 29.1393 10.9673 30.6404 13.0898C31.3151 14.0426 31.4708 15.2336 31.7941 16.3421C32.1175 17.4506 32.739 18.6177 33.8661 19.001C34.8695 19.343 35.9553 18.9664 37.0093 18.8532C38.0632 18.7401 39.394 19.1074 39.5909 20.1134L39.7187 21.1754Z" fill="#435E18"/>
<path d="M44.1442 58.7722C45.3565 58.2292 46.6314 59.2286 47.837 59.7875C49.0427 60.3464 50.569 60.7962 51.611 59.9738C52.8858 58.9665 52.4068 56.9876 52.0621 55.4014C51.607 53.3082 51.6097 51.1178 52.0714 49.0272C52.5132 47.0257 53.3276 44.7781 52.1965 43.0668C51.5072 42.0222 50.2696 41.5072 49.2489 40.7806C47.1024 39.2502 45.8462 36.5568 46.0578 33.9353C46.1589 32.6817 46.5688 31.4308 46.3559 30.1919C46.0152 28.2078 44.2067 26.8411 42.4608 25.8311C40.7149 24.821 38.78 23.8536 37.8192 22.0837C37.3401 21.2014 37.0687 20.0916 36.1797 19.6245C35.0167 19.0137 33.5302 19.896 32.2993 19.4342C30.1834 18.6397 30.9433 15.1186 29.2053 13.6761C27.9598 12.6434 26.0834 13.1797 24.6223 13.8744C23.1611 14.569 21.5043 15.3914 20.0046 14.7793C18.4982 14.1645 17.8768 12.38 16.6565 11.3047C15.6105 10.3838 14.0895 10.0312 12.7441 10.3998C11.3987 10.7684 10.2716 11.8463 9.84709 13.1704C9.44786 14.412 9.52636 15.9929 8.43516 16.7102C7.39186 17.3968 5.92805 16.8047 4.77962 17.2957C3.34509 17.9078 3.0896 19.8787 3.53141 21.3718C3.97454 22.8648 4.88742 24.2302 5.02449 25.7818C5.20148 27.7873 4.06103 29.6396 3.45554 31.5599C2.85139 33.4801 3.07893 36.0711 4.94064 36.8496C5.85352 37.2315 6.89018 37.0479 7.87892 37.0771C10.0001 37.141 12.1506 38.4079 12.8479 40.4066C13.2418 41.5351 13.1673 42.802 13.681 43.8812C15.1328 46.9286 20.0312 46.5799 21.9475 49.3599C23.6721 51.8643 22.0233 55.2124 21.9355 58.2479C21.8969 59.5813 22.4385 61.1928 23.7533 61.439C24.9962 61.6719 26.0808 60.5341 27.3343 60.3637C29.2599 60.1029 30.6652 62.0804 31.5448 63.809C32.4244 65.5377 33.6979 67.5564 35.6395 67.4632C37.1645 67.39 38.281 65.9635 38.7907 64.5289C39.3003 63.0944 39.4347 61.5255 40.132 60.1721C40.8293 58.8187 42.4009 57.7009 43.8341 58.2279L44.1442 58.7722Z" fill="#A9D91E"/>
<path d="M43.53 58.5016C44.7037 57.9759 46.0438 58.5974 47.2109 59.139C48.3793 59.6793 49.8577 60.1171 50.8664 59.3187C52.1013 58.3419 51.6382 56.4256 51.3042 54.89C50.8637 52.8632 50.8664 50.7407 51.3135 48.7153C51.7407 46.7764 52.5298 44.6007 51.4346 42.9426C50.7666 41.9312 49.5676 41.4322 48.5802 40.7282C46.5003 39.2458 45.2839 36.6376 45.4889 34.0972C45.5873 32.8835 45.9839 31.6712 45.7777 30.4709C45.4476 28.5493 43.6964 27.2252 42.0037 26.2471C40.3123 25.2691 38.4386 24.3322 37.5071 22.6169C37.0427 21.7626 36.7805 20.6873 35.9182 20.2349C34.7924 19.6427 33.3512 20.497 32.1602 20.0499C30.1109 19.2807 30.8468 15.8687 29.1634 14.4728C27.9564 13.472 26.14 13.9924 24.7241 14.6644C23.3081 15.3364 21.7033 16.1335 20.2514 15.5414C18.7916 14.9452 18.1901 13.2166 17.0084 12.1759C15.9957 11.283 14.5212 10.9423 13.2185 11.3003C11.9157 11.6569 10.8245 12.7016 10.4119 13.9844C10.026 15.1874 10.1006 16.7177 9.04395 17.4137C8.03392 18.0777 6.61666 17.5055 5.50417 17.9806C4.11488 18.5741 3.86605 20.4824 4.29588 21.9289C4.72438 23.3754 5.6093 24.6982 5.74104 26.2006C5.91271 28.1434 4.80687 29.9373 4.22135 31.7977C3.63583 33.658 3.85674 36.1665 5.65989 36.9223C6.5435 37.2923 7.54819 37.114 8.50632 37.1432C10.561 37.2058 12.6436 38.4327 13.3196 40.3676C13.7015 41.4601 13.6297 42.6884 14.1274 43.733C15.5326 46.6846 20.278 46.3466 22.1344 49.04C23.8045 51.466 22.2076 54.709 22.1238 57.6499C22.0865 58.9421 22.6108 60.503 23.8843 60.7412C25.0887 60.9674 26.1386 59.8643 27.3536 59.7006C29.2193 59.4477 30.5793 61.364 31.4323 63.0381C32.2853 64.7121 33.5189 66.667 35.3992 66.5778C36.8764 66.5073 37.9582 65.1247 38.4519 63.7354C38.9456 62.3461 39.0761 60.8264 39.7521 59.5156C40.4281 58.2048 41.9504 57.1216 43.3371 57.6326L43.53 58.5016Z" fill="#759615"/>
<path d="M27.4238 12.8678C26.7185 13.8206 26.3845 14.989 26.0758 16.1334C25.0924 19.7757 24.2434 23.4525 23.5275 27.1559C23.1123 26.428 23.1375 25.5404 23.1761 24.7047C23.2759 22.4877 23.3757 20.2707 23.4769 18.0537C23.5607 16.2013 23.6805 14.2385 24.7424 12.7188L27.4238 12.8678Z" fill="#435E18"/>
<path d="M53.7383 44.5304C52.0682 44.2123 50.3542 43.893 48.6775 44.1764C47.8019 44.3241 46.9422 44.6355 46.0559 44.5983C45.0432 44.557 43.944 44.0819 43.0791 44.6062C45.7858 43.5603 48.4938 42.5143 51.2006 41.4684C51.5359 41.3393 51.8832 41.2075 52.2425 41.2195C52.6018 41.2328 52.9811 41.4284 53.0942 41.7691L53.7383 44.5304Z" fill="#435E18"/>
<path d="M31.7766 64.4866C32.8678 60.6181 33.7767 56.6978 34.502 52.7441C33.3841 55.4442 32.261 58.1536 30.7865 60.678C30.5749 61.04 30.3567 61.3979 30.1624 61.7705C30.0413 62.0008 29.9282 62.2496 29.9402 62.5091C29.9522 62.7686 30.1291 63.0401 30.3886 63.0693L31.7766 64.4866Z" fill="#435E18"/>
<path d="M46.1367 59.4283C45.0522 56.3596 43.8425 53.3335 42.5105 50.3633C42.6462 52.4299 42.5823 54.5099 42.3215 56.5632C42.2164 57.3922 42.0819 58.2586 42.3641 59.0464C43.5378 58.7669 44.8273 59.0171 45.8107 59.7144L46.1367 59.4283Z" fill="#435E18"/>
<path d="M8.91099 14.623C10.4999 17.3817 12.484 19.8888 14.4615 22.3852C14.8966 22.9348 15.3318 23.4831 15.7656 24.0327C13.5326 22.5955 11.4381 20.9427 9.52048 19.1063C9.01879 18.6246 8.51708 18.1162 8.2323 17.4828C7.94752 16.8494 7.91561 16.0589 8.32414 15.4973L8.91099 14.623Z" fill="#435E18"/>
<path d="M3.43165 28.0548C4.25138 27.9417 5.08441 27.9896 5.9108 28.0388C8.69737 28.2025 11.4839 28.3648 14.2705 28.5285C13.6757 27.935 12.7907 27.77 11.9683 27.597C9.67014 27.1139 7.43184 26.3501 5.31729 25.3281C5.18023 25.2616 5.02187 25.1937 4.88214 25.2536C4.77967 25.2975 4.71714 25.4 4.66258 25.4984C4.1915 26.3488 3.86544 27.2803 3.70442 28.2384L3.43165 28.0548Z" fill="#435E18"/>
<path d="M35.4017 62.3293C26.2693 62.3293 18.866 54.926 18.866 45.7936C18.866 36.6611 26.2693 29.2578 35.4017 29.2578C44.5342 29.2578 51.9375 36.6611 51.9375 45.7936C51.9375 54.926 44.5342 62.3293 35.4017 62.3293Z" fill="#AC2219"/>
<path d="M35.4013 61.6701C26.6327 61.6701 19.5243 54.5617 19.5243 45.7931C19.5243 37.0244 26.6327 29.916 35.4013 29.916C44.17 29.916 51.2783 37.0244 51.2783 45.7931C51.2783 54.5617 44.17 61.6701 35.4013 61.6701Z" fill="#EB261A"/>
<path d="M24.4951 56.7054C18.4694 50.6797 18.4694 40.9101 24.4951 34.8844C30.5208 28.8587 40.2904 28.8587 46.3161 34.8844C52.3418 40.9101 52.3418 50.6797 46.3161 56.7054C40.2904 62.7311 30.5208 62.7311 24.4951 56.7054Z" fill="#FF3C30"/>
<path d="M35.4014 61.0176C26.9936 61.0176 20.1777 54.2018 20.1777 45.794C20.1777 37.3862 26.9936 30.5703 35.4014 30.5703C43.8092 30.5703 50.625 37.3862 50.625 45.794C50.625 54.2018 43.8092 61.0176 35.4014 61.0176Z" fill="#C92116"/>
<path d="M24.9116 56.2886C19.1162 50.4931 19.1162 41.0968 24.9116 35.3013C30.7071 29.5058 40.1034 29.5058 45.8989 35.3013C51.6944 41.0968 51.6944 50.4931 45.8989 56.2886C40.1035 62.084 30.7071 62.084 24.9116 56.2886Z" fill="#FF9D97"/>
<path d="M24.5036 55.2206C19.5101 49.207 20.3958 40.2354 26.4817 35.1819C32.5676 30.1283 41.5492 30.9066 46.5426 36.9201C51.536 42.9337 50.6504 51.9053 44.5645 56.9588C38.4786 62.0123 29.497 61.2341 24.5036 55.2206Z" fill="#FF685F"/>
<path d="M35.4016 58.4507C28.4108 58.4507 22.7436 52.7836 22.7436 45.7928C22.7436 38.8019 28.4108 33.1348 35.4016 33.1348C42.3924 33.1348 48.0596 38.8019 48.0596 45.7928C48.0596 52.7836 42.3924 58.4507 35.4016 58.4507Z" fill="#FF928A"/>
<path d="M31.3417 57.2436C25.0194 54.9919 21.7196 48.0413 23.9713 41.7191C26.2231 35.3968 33.1736 32.097 39.4959 34.3487C45.8182 36.6004 49.118 43.551 46.8663 49.8733C44.6145 56.1955 37.664 59.4954 31.3417 57.2436Z" fill="#EB261A"/>
<path d="M35.4019 56.9268C29.2526 56.9268 24.2675 51.9418 24.2675 45.7925C24.2675 39.6432 29.2526 34.6582 35.4019 34.6582C41.5512 34.6582 46.5361 39.6432 46.5361 45.7925C46.5361 51.9418 41.5512 56.9268 35.4019 56.9268Z" fill="#FF291C"/>
<path d="M35.401 56.5417C29.4649 56.5417 24.6527 51.7295 24.6527 45.7933C24.6527 39.8571 29.4649 35.0449 35.401 35.0449C41.3372 35.0449 46.1494 39.8571 46.1494 45.7933C46.1494 51.7295 41.3372 56.5417 35.401 56.5417Z" fill="#D11C11"/>
<path d="M30.5804 46.9718C29.9329 44.3021 31.5722 41.6128 34.242 40.9653C36.9117 40.3178 39.6009 41.9572 40.2485 44.6269C40.896 47.2967 39.2566 49.9859 36.5869 50.6334C33.9171 51.2809 31.2279 49.6416 30.5804 46.9718Z" fill="#960A02"/>
<path d="M34.9928 50.2962C32.4915 50.0643 30.6518 47.8487 30.8837 45.3475C31.1155 42.8462 33.3312 41.0065 35.8324 41.2384C38.3337 41.4702 40.1734 43.6859 39.9415 46.1871C39.7096 48.6884 37.494 50.5281 34.9928 50.2962Z" fill="#FF928A"/>
<path d="M35.0195 50.0101C32.6764 49.7929 30.9529 47.7173 31.1701 45.3741C31.3873 43.0309 33.4629 41.3075 35.8061 41.5247C38.1493 41.7419 39.8727 43.8175 39.6555 46.1607C39.4383 48.5039 37.3627 50.2273 35.0195 50.0101Z" fill="#FF685F"/>
<path d="M29.9538 34.8125C31.2379 36.9909 32.5235 39.1707 33.8076 41.3491C33.7557 41.542 33.4949 41.6099 33.3113 41.5301C33.1276 41.4502 33.0078 41.2746 32.8974 41.1069C32.1455 39.9704 31.3937 38.834 30.707 37.6576C30.2665 36.9031 29.842 36.102 29.7848 35.2304C29.7755 35.0813 29.8061 34.891 29.9511 34.8551L29.9538 34.8125Z" fill="#960A02"/>
<path d="M34.8525 43.9922C33.7986 42.0973 32.7446 40.201 31.692 38.306C30.9202 36.9167 30.1391 35.5074 29.7305 33.9824C28.1642 34.2805 26.7031 35.0257 25.5573 36.1103C28.6979 38.8463 31.6481 41.8098 34.3722 44.9677L34.8525 43.9922Z" fill="#FF685F"/>
<path d="M24.2113 50.9818C24.6185 50.9871 24.9858 50.7569 25.3357 50.5506C27.1509 49.4767 29.2042 48.8074 31.3041 48.6051C31.3667 48.5998 31.4398 48.5851 31.4638 48.5279C31.4811 48.4866 31.4625 48.4401 31.4452 48.3988C31.3241 48.114 31.2043 47.8293 31.0832 47.5445C31.0486 47.462 31.0087 47.3741 30.9288 47.3316C30.7825 47.2531 30.6134 47.3755 30.487 47.4846C29.7179 48.1486 28.7611 48.5452 27.8509 48.9976C26.7144 49.5619 25.6285 50.2286 24.6092 50.9871L24.2113 50.9818Z" fill="#960A02"/>
<path d="M33.2127 45.8086C31.1634 46.1253 29.114 46.442 27.0647 46.7587C25.5623 46.9916 24.0399 47.2245 22.5282 47.0701C22.3113 48.6324 22.5335 50.2533 23.1617 51.7011C26.6242 49.7356 30.2318 48.0269 33.9473 46.5964L33.2127 45.8086Z" fill="#FF685F"/>
<path d="M44.6436 54.5632C42.9256 52.5259 40.7498 50.9356 38.5954 49.3654C38.7284 49.1418 38.9054 48.9435 39.113 48.7852C40.2455 49.6608 41.322 50.6069 42.336 51.617C43.2343 52.5112 44.094 53.4747 44.6409 54.6178L44.6436 54.5632Z" fill="#960A02"/>
<path d="M37.0021 47.2906C38.5444 48.6772 40.0868 50.0625 41.6278 51.4492C42.7589 52.4659 43.902 53.4959 44.7404 54.764C46.0871 53.943 47.2022 52.7453 47.9248 51.3427C44.212 49.9055 40.6057 48.1929 37.1472 46.2207L37.0021 47.2906Z" fill="#FF685F"/>
<path d="M35.073 58.5844C35.5547 55.867 35.7729 53.1018 35.7237 50.3418C35.4828 50.2686 35.2313 50.2354 34.9798 50.2433C34.4515 52.9674 34.4249 55.7885 34.9013 58.5232L35.073 58.5844Z" fill="#960A02"/>
<path d="M34.7177 47.9998C34.0071 49.948 33.2978 51.8962 32.5872 53.8444C32.0669 55.2723 31.5372 56.7188 30.6736 57.9697C31.9378 58.9132 33.4655 59.5001 35.0358 59.6464C34.9825 55.6662 35.2261 51.6806 35.7637 47.7363L34.7177 47.9998Z" fill="#FF685F"/>
<path d="M45.7259 38.2296C44.966 38.3893 44.463 39.0826 43.928 39.6455C42.6013 41.0454 40.7183 41.8705 39.5632 43.4154C39.4475 43.2744 39.3317 43.1333 39.2159 42.9923C39.18 42.9484 39.1427 42.9018 39.1387 42.8459C39.1334 42.7754 39.1813 42.7128 39.2265 42.6583C40.7569 40.8272 42.4203 38.9947 44.6054 38.0353C45.0059 37.8596 45.5063 37.7265 45.8536 37.9914C45.8563 38.0446 45.8603 38.0991 45.8643 38.1524L45.7259 38.2296Z" fill="#960A02"/>
<path d="M37.4639 44.3717C39.0941 43.0902 40.7229 41.8074 42.3531 40.5259C43.5481 39.5864 44.7591 38.6362 46.1523 38.0281C45.5735 36.5603 44.5847 35.2575 43.3272 34.3047C41.2752 37.7167 38.9703 40.9757 36.4353 44.0457L37.4639 44.3717Z" fill="#FF685F"/>
<path d="M36.1068 40.5791C36.8999 39.9364 37.3071 38.8505 37.1315 37.8444C37.049 37.3707 36.8094 36.881 36.3663 36.6907C35.7954 36.4458 35.0981 36.8278 34.8346 37.3907C34.5725 37.9536 34.6589 38.6229 34.8758 39.2045C35.0928 39.7887 35.4335 40.3263 35.8699 40.7721C35.9258 40.7428 36.0589 40.6177 36.1068 40.5791Z" fill="#960A02"/>
<path d="M35.9606 40.0576C36.6126 39.5293 36.9467 38.6364 36.8029 37.81C36.7351 37.4201 36.5381 37.0169 36.1748 36.8612C35.7064 36.6589 35.1315 36.9743 34.9159 37.4374C34.7004 37.9005 34.7722 38.4501 34.9492 38.9292C35.1275 39.4096 35.4083 39.8514 35.7663 40.2187C35.8115 40.192 35.9207 40.0896 35.9606 40.0576Z" fill="#ED6339"/>
<path d="M35.2807 38.0681C35.443 38.2638 35.7332 38.2904 35.9301 38.128C36.1271 37.9657 36.1523 37.6756 35.99 37.4786C35.8276 37.283 35.5376 37.2564 35.3406 37.4188C35.145 37.5811 35.1183 37.8725 35.2807 38.0681Z" fill="#FA8621"/>
<path d="M35.5004 39.293C35.6121 39.4274 35.8091 39.45 35.9395 39.3409C36.0699 39.2331 36.0846 39.0348 35.9728 38.9004C35.861 38.766 35.664 38.7434 35.5336 38.8525C35.4032 38.9603 35.3886 39.1585 35.5004 39.293Z" fill="#FA8621"/>
<path d="M35.3409 37.7178C35.4222 37.8165 35.5822 37.8165 35.6995 37.7205C35.8155 37.6232 35.8448 37.4659 35.7635 37.3673C35.6822 37.2686 35.5209 37.2686 35.4049 37.3646C35.2876 37.4619 35.2596 37.6205 35.3409 37.7178Z" fill="white"/>
<path d="M30.5173 44.3005C30.2764 43.3091 29.4687 42.4761 28.4853 42.2033C28.0208 42.0742 27.4766 42.0822 27.1146 42.4002C26.6488 42.8101 26.6954 43.6059 27.0919 44.0836C27.4885 44.5614 28.1299 44.7689 28.7487 44.8235C29.3702 44.8781 30.0023 44.7996 30.5918 44.5973C30.5865 44.5347 30.5319 44.3604 30.5173 44.3005Z" fill="#960A02"/>
<path d="M29.9821 44.2106C29.7838 43.3948 29.1198 42.7108 28.312 42.4859C27.9301 42.3808 27.483 42.3861 27.1849 42.6469C26.8016 42.9849 26.8402 43.6383 27.1663 44.0309C27.4923 44.4248 28.0193 44.5951 28.5276 44.6391C29.0386 44.6843 29.5576 44.6191 30.042 44.4527C30.0393 44.4035 29.9941 44.2598 29.9821 44.2106Z" fill="#ED6339"/>
<path d="M27.8933 43.9736C28.1395 43.911 28.2885 43.6595 28.226 43.4134C28.1634 43.1672 27.9119 43.0181 27.6657 43.0807C27.4196 43.1432 27.2705 43.3947 27.3331 43.6409C27.3956 43.8871 27.6471 44.0361 27.8933 43.9736Z" fill="#FA8621"/>
<path d="M29.0958 44.2987C29.2661 44.2548 29.3699 44.0872 29.3274 43.9222C29.2848 43.7571 29.1131 43.66 28.9428 43.7039C28.7725 43.7478 28.6687 43.9155 28.7112 44.0805C28.7538 44.2442 28.9255 44.3427 29.0958 44.2987Z" fill="#FA8621"/>
<path d="M27.6025 43.7681C27.7265 43.7361 27.7958 43.5922 27.7585 43.4456C27.7211 43.2989 27.5905 43.2056 27.4666 43.2363C27.3426 43.2683 27.2733 43.4122 27.3106 43.5589C27.3493 43.7068 27.4786 43.8001 27.6025 43.7681Z" fill="white"/>
<path d="M40.6567 45.6476C41.3474 46.3995 42.4572 46.7375 43.4499 46.4993C43.9183 46.3875 44.3921 46.1174 44.5544 45.6636C44.7634 45.0794 44.3375 44.4061 43.76 44.1785C43.1824 43.951 42.5197 44.08 41.9528 44.3329C41.3833 44.5857 40.867 44.9597 40.4504 45.4228C40.4824 45.476 40.6154 45.6011 40.6567 45.6476Z" fill="#960A02"/>
<path d="M41.1692 45.4684C41.7374 46.0858 42.649 46.364 43.4661 46.1697C43.8507 46.0779 44.2406 45.8556 44.3736 45.483C44.5453 45.0026 44.1953 44.449 43.7203 44.2627C43.2452 44.0764 42.7009 44.1816 42.2338 44.3892C41.7654 44.5968 41.3422 44.9041 40.9989 45.2847C41.0255 45.3273 41.1346 45.4311 41.1692 45.4684Z" fill="#ED6339"/>
<path d="M43.112 44.664C42.927 44.8384 42.9177 45.1298 43.092 45.3148C43.2664 45.4997 43.5578 45.5091 43.7428 45.3347C43.9277 45.1604 43.937 44.869 43.7627 44.684C43.5884 44.499 43.297 44.4897 43.112 44.664Z" fill="#FA8621"/>
<path d="M41.901 44.9603C41.7732 45.08 41.7639 45.2783 41.8797 45.4021C41.9955 45.5258 42.1938 45.5285 42.3215 45.4074C42.4493 45.2876 42.4586 45.0894 42.3428 44.9656C42.227 44.8418 42.0287 44.8392 41.901 44.9603Z" fill="#FA8621"/>
<path d="M43.464 44.7039C43.3707 44.7919 43.3801 44.9519 43.484 45.0625C43.588 45.1731 43.7479 45.1918 43.8399 45.1038C43.9332 45.0158 43.9239 44.8559 43.8199 44.7453C43.7173 44.6346 43.5573 44.616 43.464 44.7039Z" fill="white"/>
<path d="M37.3124 50.7132C36.9744 51.6767 37.198 52.8145 37.874 53.5796C38.1934 53.9403 38.6538 54.2317 39.1302 54.1612C39.745 54.0707 40.1376 53.3787 40.067 52.7612C39.9952 52.1438 39.5707 51.6208 39.081 51.2389C38.5899 50.8556 38.0177 50.5762 37.4122 50.4258C37.3816 50.479 37.3324 50.6547 37.3124 50.7132Z" fill="#960A02"/>
<path d="M37.7107 51.08C37.4326 51.8718 37.6163 52.8073 38.1725 53.4367C38.4347 53.7335 38.8139 53.973 39.2052 53.9145C39.7108 53.8399 40.0342 53.2717 39.9743 52.7634C39.9144 52.255 39.5658 51.8252 39.1639 51.5112C38.7607 51.1958 38.2896 50.9669 37.7919 50.8418C37.7666 50.887 37.728 51.0321 37.7107 51.08Z" fill="#ED6339"/>
<path d="M39.3339 52.4168C39.093 52.3357 38.8309 52.4648 38.7497 52.7056C38.6685 52.9465 38.7976 53.2086 39.0385 53.2898C39.2793 53.371 39.5415 53.2419 39.6227 53.001C39.7052 52.7602 39.5748 52.498 39.3339 52.4168Z" fill="#FA8621"/>
<path d="M38.5035 51.4879C38.3372 51.432 38.1589 51.5171 38.1043 51.6768C38.0497 51.8379 38.1402 52.0135 38.3066 52.0694C38.4729 52.1253 38.6512 52.0401 38.7058 51.8804C38.7604 51.7194 38.6699 51.5438 38.5035 51.4879Z" fill="#FA8621"/>
<path d="M39.4649 52.7469C39.3436 52.7055 39.2063 52.7895 39.1584 52.9335C39.1104 53.0774 39.169 53.2267 39.289 53.2667C39.4103 53.308 39.5476 53.224 39.5956 53.0801C39.6435 52.9375 39.5849 52.7882 39.4649 52.7469Z" fill="white"/>
<path d="M31.7108 49.4559C30.6901 49.4652 29.6947 50.0614 29.205 50.957C28.9748 51.3789 28.8564 51.9125 29.0839 52.3357C29.378 52.8826 30.1618 53.0183 30.7181 52.7415C31.2743 52.4647 31.623 51.8872 31.8159 51.2977C32.0102 50.7055 32.0781 50.0721 32.0155 49.4519C31.9557 49.44 31.7734 49.4546 31.7108 49.4559Z" fill="#960A02"/>
<path d="M31.5006 49.9554C30.6609 49.9634 29.8438 50.4531 29.4406 51.189C29.2503 51.5363 29.1545 51.9742 29.3408 52.3228C29.5816 52.7726 30.227 52.8844 30.6848 52.6568C31.1413 52.4293 31.4287 51.9542 31.5871 51.4698C31.7467 50.9828 31.8026 50.4624 31.7507 49.9528C31.7015 49.9435 31.5525 49.9554 31.5006 49.9554Z" fill="#ED6339"/>
<path d="M30.7938 51.9356C30.7885 51.6814 30.5783 51.4792 30.3241 51.4845C30.0699 51.4898 29.8677 51.7001 29.873 51.9542C29.8783 52.2084 30.0886 52.4107 30.3427 52.4054C30.5969 52.4 30.7992 52.1898 30.7938 51.9356Z" fill="#FA8621"/>
<path d="M31.3857 50.8388C31.3817 50.6632 31.242 50.5234 31.0716 50.5274C30.9026 50.5314 30.7669 50.6765 30.7709 50.8521C30.7749 51.0278 30.9146 51.1675 31.0849 51.1635C31.2552 51.1595 31.3896 51.0145 31.3857 50.8388Z" fill="#FA8621"/>
<path d="M30.5273 52.1706C30.5246 52.0427 30.3994 51.9427 30.2487 51.9454C30.0968 51.948 29.9768 52.0547 29.9795 52.1813C29.9822 52.3092 30.1074 52.4092 30.2581 52.4065C30.41 52.4039 30.53 52.2986 30.5273 52.1706Z" fill="white"/>
<path d="M31.2322 32.5005C30.9947 32.2144 31.0803 31.7514 31.4234 31.4664C31.7666 31.1813 32.2375 31.1822 32.4751 31.4683C32.7127 31.7544 32.6271 32.2174 32.2839 32.5024C31.9407 32.7874 31.4698 32.7866 31.2322 32.5005Z" fill="white"/>
<path d="M34.5865 31.861C34.7542 32.062 35.0257 32.1112 35.1947 31.9715C35.3637 31.8317 35.365 31.5549 35.1973 31.354C35.0297 31.1531 34.7582 31.1038 34.5892 31.2435C34.4202 31.3833 34.4188 31.6601 34.5865 31.861Z" fill="white"/>
<path d="M36.2769 60.6994C36.4047 60.8524 36.6921 60.8245 36.9197 60.6368C37.1472 60.4479 37.2271 60.1711 37.0993 60.0167C36.9716 59.8637 36.6841 59.8916 36.4566 60.0792C36.229 60.2682 36.1492 60.545 36.2769 60.6994Z" fill="white"/>
<path d="M39.6237 57.6829C39.6877 57.7602 39.8076 57.7656 39.8916 57.6963C39.9756 57.6269 39.9916 57.5083 39.9276 57.431C39.8636 57.3537 39.7437 57.3484 39.6597 57.4177C39.5757 57.487 39.5597 57.607 39.6237 57.6829Z" fill="white"/>
<path d="M8.10825 38.6377C1.6507 32.1802 1.65069 21.7104 8.10825 15.2529C14.5658 8.79532 25.0356 8.79533 31.4931 15.2529C37.9507 21.7104 37.9507 32.1802 31.4931 38.6377C25.0356 45.0953 14.5658 45.0953 8.10825 38.6377Z" fill="#AC2219"/>
<path d="M8.57396 38.172C2.37365 31.9717 2.37364 21.919 8.57395 15.7187C14.7743 9.51836 24.827 9.51836 31.0273 15.7187C37.2276 21.919 37.2276 31.9717 31.0273 38.172C24.8269 44.3723 14.7743 44.3723 8.57396 38.172Z" fill="#EB261A"/>
<path d="M8.88963 37.8558C2.86393 31.8301 2.86393 22.0605 8.88963 16.0348C14.9153 10.0091 24.6849 10.0091 30.7106 16.0348C36.7363 22.0605 36.7363 31.8301 30.7106 37.8558C24.6849 43.8815 14.9153 43.8815 8.88963 37.8558Z" fill="#FF3C30"/>
<path d="M19.7969 42.1661C11.3891 42.1661 4.5732 35.3502 4.5732 26.9424C4.5732 18.5346 11.3891 11.7188 19.7969 11.7188C28.2047 11.7188 35.0205 18.5346 35.0205 26.9424C35.0205 35.3502 28.2047 42.1661 19.7969 42.1661Z" fill="#C92116"/>
<path d="M9.30715 37.439C3.51166 31.6435 3.51166 22.2471 9.30714 16.4517C15.1026 10.6562 24.499 10.6562 30.2944 16.4517C36.0899 22.2471 36.0899 31.6435 30.2944 37.439C24.499 43.2344 15.1026 43.2344 9.30715 37.439Z" fill="#FF9D97"/>
<path d="M8.85861 36.3738C3.8644 30.3603 4.74938 21.388 10.8353 16.3337C16.9212 11.2794 25.9034 12.057 30.8976 18.0705C35.8918 24.0841 35.0068 33.0563 28.9209 38.1106C22.835 43.165 13.8528 42.3874 8.85861 36.3738Z" fill="#FF685F"/>
<path d="M10.8508 35.8958C5.90757 30.9526 5.90756 22.9381 10.8508 17.9949C15.794 13.0516 23.8085 13.0517 28.7517 17.9949C33.6949 22.9381 33.6949 30.9526 28.7517 35.8958C23.8085 40.839 15.794 40.839 10.8508 35.8958Z" fill="#FF928A"/>
<path d="M19.7969 39.0956C13.0854 39.0956 7.64462 33.6549 7.64462 26.9433C7.64462 20.2318 13.0854 14.791 19.7969 14.791C26.5085 14.791 31.9492 20.2318 31.9492 26.9433C31.9492 33.6549 26.5085 39.0956 19.7969 39.0956Z" fill="#EB261A"/>
<path d="M19.7974 38.0772C13.6481 38.0772 8.66305 33.0922 8.66305 26.9429C8.66305 20.7936 13.6481 15.8086 19.7974 15.8086C25.9467 15.8086 30.9316 20.7936 30.9316 26.9429C30.9316 33.0922 25.9467 38.0772 19.7974 38.0772Z" fill="#FF291C"/>
<path d="M12.2004 34.5455C8.00298 30.348 8.00298 23.5426 12.2004 19.3451C16.3979 15.1477 23.2033 15.1477 27.4008 19.3451C31.5983 23.5426 31.5983 30.348 27.4008 34.5455C23.2033 38.7429 16.3979 38.7429 12.2004 34.5455Z" fill="#D11C11"/>
<path d="M14.8436 27.5834C14.481 24.86 16.3947 22.3584 19.1181 21.9957C21.8414 21.6331 24.3431 23.5468 24.7057 26.2702C25.0683 28.9935 23.1546 31.4951 20.4313 31.8578C17.7079 32.2204 15.2063 30.3067 14.8436 27.5834Z" fill="#960A02"/>
<path d="M19.195 31.4433C16.7065 31.1004 14.9672 28.8051 15.3101 26.3167C15.653 23.8283 17.9482 22.089 20.4367 22.4319C22.9251 22.7748 24.6644 25.07 24.3215 27.5584C23.9786 30.0469 21.6834 31.7862 19.195 31.4433Z" fill="#FF928A"/>
<path d="M19.1013 31.1416C16.7807 30.7509 15.2162 28.553 15.6068 26.2324C15.9975 23.9119 18.1954 22.3473 20.516 22.738C22.8366 23.1286 24.4011 25.3265 24.0104 27.6471C23.6198 29.9677 21.4219 31.5322 19.1013 31.1416Z" fill="#FF685F"/>
<path d="M14.3483 15.9609C15.6325 18.1394 16.918 20.3191 18.2021 22.4975C18.1502 22.6905 17.8894 22.7584 17.7058 22.6785C17.5221 22.5987 17.4024 22.423 17.2919 22.2553C16.54 21.1189 15.7882 19.9824 15.1015 18.8061C14.661 18.0515 14.2366 17.2504 14.1793 16.3788C14.17 16.2297 14.2006 16.0395 14.3457 16.0035L14.3483 15.9609Z" fill="#960A02"/>
<path d="M19.2471 25.1426C18.1931 23.2477 17.1392 21.3514 16.0866 19.4564C15.3147 18.0671 14.5336 16.6578 14.1251 15.1328C12.5588 15.4309 11.0976 16.1761 9.95188 17.2607C13.0924 19.9967 16.0427 22.9602 18.7667 26.1181L19.2471 25.1426Z" fill="#FF685F"/>
<path d="M8.60678 32.1322C9.01399 32.1375 9.38127 31.9073 9.73125 31.701C11.5464 30.6271 13.5997 29.9577 15.6996 29.7555C15.7622 29.7502 15.8354 29.7355 15.8593 29.6783C15.8766 29.637 15.858 29.5905 15.8407 29.5492C15.7196 29.2644 15.5998 28.9797 15.4787 28.6949C15.4441 28.6124 15.4042 28.5245 15.3243 28.482C15.178 28.4034 15.009 28.5259 14.8825 28.635C14.1134 29.299 13.1566 29.6956 12.2464 30.148C11.1099 30.7123 10.024 31.379 9.00467 32.1375L8.60678 32.1322Z" fill="#960A02"/>
<path d="M17.6082 26.957C15.5589 27.2737 13.5095 27.5905 11.4602 27.9072C9.95779 28.1401 8.43545 28.3729 6.92373 28.2186C6.70682 29.7809 6.92905 31.4017 7.55716 32.8495C11.0197 30.884 14.6274 29.1754 18.3428 27.7448L17.6082 26.957Z" fill="#FF685F"/>
<path d="M29.0391 35.7117C27.3211 33.6743 25.1453 32.0841 22.9909 30.5138C23.1239 30.2902 23.3009 30.092 23.5085 29.9336C24.641 30.8092 25.7175 31.7554 26.7316 32.7654C27.6298 33.6597 28.4895 34.6231 29.0364 35.7662L29.0391 35.7117Z" fill="#960A02"/>
<path d="M21.3976 28.441C22.94 29.8276 24.4823 31.2129 26.0233 32.5996C27.1544 33.6162 28.2975 34.6462 29.1359 35.9144C30.4826 35.0934 31.5977 33.8957 32.3203 32.4931C28.6076 31.0559 25.0013 29.3432 21.5427 27.3711L21.3976 28.441Z" fill="#FF685F"/>
<path d="M19.4685 39.7329C19.9502 37.0155 20.1684 34.2502 20.1192 31.4903C19.8783 31.4171 19.6268 31.3838 19.3753 31.3918C18.847 34.1158 18.8204 36.937 19.2968 39.6716L19.4685 39.7329Z" fill="#960A02"/>
<path d="M19.1132 29.1502C18.4026 31.0984 17.6933 33.0466 16.9827 34.9948C16.4624 36.4227 15.9328 37.8692 15.0691 39.1201C16.3333 40.0636 17.861 40.6504 19.4313 40.7968C19.378 36.8166 19.6216 32.831 20.1592 28.8867L19.1132 29.1502Z" fill="#FF685F"/>
<path d="M30.1214 19.3805C29.3615 19.5402 28.8585 20.2335 28.3235 20.7964C26.9968 22.1964 25.1138 23.0214 23.9587 24.5664C23.843 24.4254 23.7272 24.2843 23.6114 24.1432C23.5755 24.0993 23.5382 24.0527 23.5342 23.9969C23.5289 23.9263 23.5768 23.8638 23.6221 23.8092C25.1524 21.9781 26.8158 20.1457 29.0009 19.1862C29.4014 19.0106 29.9018 18.8762 30.2491 19.1423C30.2531 19.1956 30.2558 19.2501 30.2598 19.3033L30.1214 19.3805Z" fill="#960A02"/>
<path d="M21.8595 25.5182C23.4896 24.2367 25.1184 22.9539 26.7486 21.6724C27.9436 20.7329 29.1546 19.7827 30.5479 19.1746C29.969 17.7068 28.9802 16.404 27.7227 15.4512C25.6707 18.8632 23.3659 22.1222 20.8308 25.1922L21.8595 25.5182Z" fill="#FF685F"/>
<path d="M20.5023 21.7276C21.2954 21.0848 21.7026 19.9989 21.527 18.9929C21.4445 18.5191 21.2049 18.0294 20.7618 17.8391C20.1909 17.5943 19.4936 17.9762 19.2301 18.5391C18.968 19.102 19.0545 19.7714 19.2714 20.3529C19.4883 20.9371 19.829 21.4747 20.2654 21.9205C20.3213 21.8912 20.4544 21.7675 20.5023 21.7276Z" fill="#960A02"/>
<path d="M20.3561 21.2061C21.0081 20.6778 21.3422 19.7848 21.1985 18.9585C21.1306 18.5686 20.9336 18.1653 20.5703 18.0096C20.1019 17.8074 19.527 18.1228 19.3114 18.5859C19.0959 19.0489 19.1677 19.5985 19.3447 20.0776C19.523 20.558 19.8038 20.9998 20.1618 21.3671C20.207 21.3405 20.3162 21.238 20.3561 21.2061Z" fill="#ED6339"/>
<path d="M19.6757 19.217C19.838 19.4126 20.1281 19.4393 20.3251 19.2769C20.5207 19.1146 20.5473 18.8245 20.385 18.6275C20.2226 18.4306 19.9325 18.4053 19.7356 18.5676C19.54 18.73 19.5133 19.0201 19.6757 19.217Z" fill="#FA8621"/>
<path d="M19.8959 20.4433C20.0076 20.5777 20.2046 20.6004 20.335 20.4912C20.4654 20.3835 20.4801 20.1852 20.3683 20.0508C20.2565 19.9164 20.0595 19.8938 19.9291 20.0029C19.7987 20.1107 19.7841 20.3089 19.8959 20.4433Z" fill="#FA8621"/>
<path d="M19.7365 18.8663C19.8178 18.9649 19.9791 18.9649 20.095 18.8689C20.211 18.7716 20.2403 18.6144 20.159 18.5157C20.0777 18.4171 19.9177 18.4171 19.8004 18.5131C19.6832 18.6104 19.6552 18.769 19.7365 18.8663Z" fill="white"/>
<path d="M14.9128 25.449C14.6719 24.4576 13.8642 23.6245 12.8808 23.3517C12.4163 23.2226 11.8721 23.2306 11.5101 23.5487C11.0443 23.9585 11.0909 24.7543 11.4875 25.2321C11.884 25.7098 12.5255 25.9174 13.1443 25.9719C13.7657 26.0265 14.3978 25.948 14.9873 25.7457C14.982 25.6832 14.9274 25.5089 14.9128 25.449Z" fill="#960A02"/>
<path d="M14.3776 25.359C14.1793 24.5432 13.5153 23.8592 12.7075 23.6344C12.3256 23.5292 11.8785 23.5345 11.5804 23.7954C11.1972 24.1334 11.2357 24.7868 11.5618 25.1793C11.8878 25.5732 12.4148 25.7436 12.9231 25.7875C13.4341 25.8327 13.9531 25.7675 14.4375 25.6012C14.4348 25.5506 14.3896 25.4082 14.3776 25.359Z" fill="#ED6339"/>
<path d="M12.2888 25.1201C12.535 25.0575 12.684 24.806 12.6215 24.5598C12.5589 24.3136 12.3074 24.1646 12.0612 24.2272C11.8151 24.2897 11.666 24.5412 11.7286 24.7874C11.7924 25.0349 12.0426 25.1839 12.2888 25.1201Z" fill="#FA8621"/>
<path d="M13.4913 25.4472C13.6617 25.4033 13.7655 25.2356 13.7229 25.0706C13.6803 24.9056 13.5086 24.8084 13.3383 24.8523C13.168 24.8963 13.0642 25.0639 13.1068 25.2289C13.1493 25.3926 13.321 25.4911 13.4913 25.4472Z" fill="#FA8621"/>
<path d="M11.998 24.9166C12.122 24.8846 12.1913 24.7406 12.154 24.594C12.1166 24.4474 11.986 24.3541 11.8621 24.3847C11.7381 24.4167 11.6688 24.5607 11.7061 24.7073C11.7435 24.8539 11.8754 24.9486 11.998 24.9166Z" fill="white"/>
<path d="M25.0522 26.7955C25.7429 27.5474 26.8527 27.8854 27.8454 27.6472C28.3138 27.5354 28.7876 27.2652 28.9499 26.8115C29.1589 26.2273 28.733 25.5539 28.1555 25.3264C27.5779 25.1001 26.9152 25.2279 26.3483 25.4807C25.7788 25.7336 25.2625 26.1075 24.8459 26.5706C24.8779 26.6252 25.011 26.7503 25.0522 26.7955Z" fill="#960A02"/>
<path d="M25.5647 26.6165C26.1329 27.234 27.0445 27.5121 27.8616 27.3178C28.2462 27.226 28.6361 27.0037 28.7692 26.6311C28.9408 26.1507 28.5908 25.5971 28.1158 25.4108C27.6407 25.2245 27.0964 25.331 26.6293 25.5373C26.1609 25.7448 25.7377 26.0523 25.3944 26.4328C25.421 26.4768 25.5301 26.5792 25.5647 26.6165Z" fill="#ED6339"/>
<path d="M27.5075 25.8125C27.3225 25.9868 27.3132 26.2782 27.4876 26.4632C27.6619 26.6482 27.9533 26.6575 28.1383 26.4832C28.3232 26.3088 28.3325 26.0174 28.1582 25.8324C27.9839 25.6475 27.6925 25.6382 27.5075 25.8125Z" fill="#FA8621"/>
<path d="M26.2965 26.1097C26.1687 26.2294 26.1594 26.4277 26.2752 26.5515C26.391 26.6752 26.5893 26.6779 26.717 26.5568C26.8448 26.437 26.8541 26.2388 26.7383 26.115C26.6225 25.9926 26.4242 25.9899 26.2965 26.1097Z" fill="#FA8621"/>
<path d="M27.8605 25.8543C27.7672 25.9423 27.7765 26.1023 27.8805 26.2129C27.9845 26.3235 28.1444 26.3422 28.2364 26.2542C28.3297 26.1662 28.3204 26.0063 28.2164 25.8957C28.1124 25.785 27.9525 25.7664 27.8605 25.8543Z" fill="white"/>
<path d="M21.7079 31.8617C21.3699 32.8251 21.5935 33.9629 22.2695 34.7281C22.5889 35.0887 23.0493 35.3801 23.5257 35.3096C24.1405 35.2191 24.5331 34.5271 24.4625 33.9097C24.3907 33.2922 23.9662 32.7692 23.4765 32.3873C22.9854 32.0041 22.4132 31.7246 21.8077 31.5742C21.7771 31.6274 21.7292 31.8044 21.7079 31.8617Z" fill="#960A02"/>
<path d="M22.1072 32.2304C21.8291 33.0222 22.0127 33.9577 22.569 34.5871C22.8311 34.8839 23.2104 35.1234 23.6016 35.0649C24.1073 34.9903 24.4307 34.4221 24.3708 33.9138C24.3109 33.4054 23.9623 32.9756 23.5604 32.6616C23.1572 32.3462 22.6861 32.1173 22.1884 31.9922C22.1645 32.0374 22.1245 32.1812 22.1072 32.2304Z" fill="#ED6339"/>
<path d="M23.7294 33.5672C23.4886 33.4861 23.2264 33.6151 23.1452 33.856C23.064 34.0969 23.1931 34.359 23.434 34.4402C23.6748 34.5214 23.937 34.3923 24.0182 34.1514C24.1007 33.9092 23.9703 33.6484 23.7294 33.5672Z" fill="#FA8621"/>
<path d="M22.899 32.6383C22.7327 32.5824 22.5544 32.6675 22.4998 32.8272C22.4452 32.9882 22.5357 33.1639 22.7021 33.2198C22.8684 33.2757 23.0467 33.1905 23.1013 33.0308C23.1559 32.8698 23.0654 32.6942 22.899 32.6383Z" fill="#FA8621"/>
<path d="M23.8607 33.8973C23.7394 33.8559 23.6021 33.9399 23.5541 34.0839C23.5061 34.2278 23.5648 34.3771 23.6847 34.4171C23.806 34.4584 23.9433 34.3744 23.9913 34.2305C24.0406 34.0879 23.982 33.9386 23.8607 33.8973Z" fill="white"/>
<path d="M16.1083 30.6055C15.0876 30.6148 14.0922 31.211 13.6025 32.1066C13.3723 32.5284 13.2538 33.0621 13.4814 33.4853C13.7755 34.0322 14.5593 34.1679 15.1155 33.8911C15.6718 33.6143 16.0204 33.0368 16.2134 32.4473C16.4077 31.8551 16.4755 31.2217 16.413 30.6015C16.3518 30.5909 16.1695 30.6055 16.1083 30.6055Z" fill="#960A02"/>
<path d="M15.898 31.1058C15.0583 31.1138 14.2413 31.6035 13.8381 32.3394C13.6478 32.6867 13.5519 33.1245 13.7382 33.4732C13.9791 33.923 14.6245 34.0348 15.0823 33.8072C15.5387 33.5797 15.8262 33.1046 15.9845 32.6202C16.1442 32.1332 16.2001 31.6128 16.1482 31.1032C16.0976 31.0938 15.9486 31.1058 15.898 31.1058Z" fill="#ED6339"/>
<path d="M15.1903 33.086C15.185 32.8318 14.9747 32.6295 14.7206 32.6349C14.4664 32.6402 14.2641 32.8504 14.2695 33.1046C14.2748 33.3588 14.485 33.5611 14.7392 33.5557C14.9947 33.5504 15.1956 33.3402 15.1903 33.086Z" fill="#FA8621"/>
<path d="M15.7821 31.9892C15.7781 31.8135 15.6384 31.6738 15.4681 31.6778C15.2991 31.6818 15.1634 31.8269 15.1674 32.0025C15.1713 32.1782 15.3111 32.3179 15.4814 32.3139C15.6517 32.3099 15.7861 32.1649 15.7821 31.9892Z" fill="#FA8621"/>
<path d="M14.9238 33.321C14.9211 33.1931 14.7958 33.0931 14.6452 33.0958C14.4933 33.0984 14.3733 33.2051 14.376 33.3317C14.3786 33.4596 14.5039 33.5596 14.6545 33.5569C14.8065 33.5543 14.9265 33.4476 14.9238 33.321Z" fill="white"/>
<path d="M15.641 13.6393C15.8792 13.9254 16.3489 13.9268 16.6922 13.642C17.0356 13.3572 17.1207 12.8941 16.8825 12.608C16.6443 12.3219 16.1746 12.3206 15.8313 12.6053C15.4893 12.8901 15.4041 13.3532 15.641 13.6393Z" fill="white"/>
<path d="M18.982 13.0114C19.1497 13.2123 19.4212 13.2616 19.5902 13.1219C19.7592 12.9821 19.7605 12.7053 19.5928 12.5044C19.4252 12.3034 19.1537 12.2542 18.9847 12.3939C18.8157 12.5337 18.8144 12.8105 18.982 13.0114Z" fill="white"/>
<path d="M20.6724 41.8478C20.8002 42.0008 21.0876 41.9729 21.3152 41.7853C21.5427 41.5963 21.6226 41.3195 21.4948 41.1651C21.3671 41.0121 21.0796 41.04 20.8521 41.2277C20.6245 41.4166 20.5447 41.6948 20.6724 41.8478Z" fill="white"/>
<path d="M24.0192 38.8333C24.0832 38.9106 24.2031 38.916 24.2871 38.8466C24.3711 38.7773 24.3871 38.6587 24.3231 38.5814C24.2591 38.5041 24.1392 38.4988 24.0552 38.5681C23.9712 38.6374 23.9552 38.756 24.0192 38.8333Z" fill="white"/>
<path d="M18.69 13.7539C19.9489 13.4691 20.7261 14.9888 21.7627 15.7167C23.7801 17.1326 26.9632 15.4585 28.9873 16.8638C29.8163 17.44 30.2714 18.5006 30.1211 19.512C29.9906 20.3982 29.4437 21.1927 29.3133 22.079C29.0166 24.103 30.9514 25.7278 32.8797 26.3679C34.6283 26.9495 36.5113 27.0825 38.2679 27.6414C40.0244 28.2004 41.7504 29.3381 42.2494 31.1067C42.7857 33.007 41.773 35.059 41.9846 37.0298C42.0605 37.7324 42.2907 38.4045 42.5196 39.0698C43.6254 42.2889 44.7326 45.5093 45.8384 48.7283C46.0061 49.218 46.1538 49.8222 45.7985 50.2134C45.5031 50.5381 45.0067 50.5461 44.5729 50.5288C43.346 50.4796 42.119 50.4303 40.8921 50.3824C39.9286 50.3438 38.8321 50.3572 38.1601 51.0624C36.9464 52.336 38.192 54.5437 37.363 56.0886C36.8639 57.0175 35.6902 57.4487 34.6549 57.3169C33.6196 57.1852 32.7094 56.593 31.9349 55.9117C30.4711 54.6248 29.3652 52.9907 28.0943 51.5149C26.8235 50.0391 25.2972 48.6671 23.3955 48.1721C22.5811 47.9605 21.7135 47.9139 20.9456 47.5786C19.4126 46.9079 18.6062 45.2551 18.0419 43.6822C17.479 42.1106 16.984 40.4112 15.7318 39.3107C14.1136 37.8881 11.721 37.8695 9.57181 37.5222C9.14331 37.453 8.66958 37.3359 8.45 36.9659C8.33423 36.7716 8.31026 36.5361 8.30095 36.3085C8.25703 35.2879 8.45532 34.2512 8.87717 33.3091C9.55052 31.8013 10.8134 30.247 10.2558 28.7233C9.99766 28.0194 9.38683 27.5057 9.06079 26.8324C8.38611 25.4377 9.08211 23.7317 10.0203 22.4556C10.9585 21.1794 12.1667 20.0416 12.6937 18.5565C12.8414 18.1386 12.9319 17.7008 13.1302 17.3029C13.3844 16.7893 13.8009 16.3727 14.24 16.0001C15.467 14.9595 16.9255 14.193 18.4718 13.7778L18.69 13.7539Z" fill="#FF7169"/>
<path d="M18.5406 13.8787C19.7769 13.6125 20.5621 15.1256 21.5921 15.8588C23.5961 17.2854 26.7114 15.6672 28.7235 17.0844C29.5472 17.6646 30.009 18.7212 29.8732 19.7193C29.7548 20.5949 29.2265 21.3747 29.1094 22.2504C28.8419 24.2491 30.7688 25.8819 32.6758 26.5393C34.4057 27.1368 36.2621 27.2912 37.9987 27.8661C39.7354 28.441 41.4506 29.5881 41.9643 31.3446C42.5166 33.2329 41.5438 35.2503 41.7767 37.2039C41.8605 37.8998 42.0947 38.5692 42.3289 39.2306C43.4587 42.431 44.5886 45.6314 45.7184 48.8319C45.89 49.3176 46.0417 49.9177 45.697 50.301C45.4109 50.619 44.9212 50.6204 44.494 50.5978C43.2844 50.5339 42.0761 50.47 40.8665 50.4061C39.9176 50.3556 38.8371 50.3556 38.1837 51.0449C37.0033 52.2905 38.2582 54.4902 37.4611 56.0085C36.982 56.9214 35.8296 57.334 34.8089 57.1902C33.7869 57.0465 32.8847 56.449 32.1116 55.765C30.6531 54.4729 29.5445 52.8427 28.2737 51.3656C27.0028 49.8885 25.4831 48.5125 23.6041 47.9988C22.799 47.7793 21.9447 47.7234 21.1835 47.3814C19.6651 46.6987 18.8494 45.0526 18.2745 43.489C17.6996 41.9267 17.1913 40.238 15.9444 39.1348C14.3329 37.7069 11.9761 37.6576 9.85495 37.289C9.43177 37.2158 8.96334 37.0934 8.74377 36.7248C8.62799 36.5318 8.60139 36.2976 8.58808 36.0727C8.53219 35.0627 8.7145 34.0394 9.11771 33.1105C9.76179 31.6267 10.9874 30.1044 10.4192 28.5887C10.157 27.8887 9.54754 27.3724 9.21752 26.7017C8.53618 25.3137 9.20021 23.633 10.1091 22.3821C11.018 21.1299 12.193 20.02 12.6934 18.5562C12.8344 18.145 12.9183 17.7125 13.1073 17.32C13.3508 16.8156 13.7566 16.4071 14.1838 16.0451C15.3788 15.0298 16.8067 14.2899 18.3238 13.8973L18.5406 13.8787Z" fill="#AD1810"/>
<path d="M14.2289 18.0442C14.6069 16.9929 15.1871 16.0148 15.9283 15.1791C16.3608 14.6908 16.8705 14.2383 17.4932 14.0454C18.116 13.8524 18.8732 13.9762 19.2844 14.4832C19.7608 15.0727 19.6384 15.9377 19.9152 16.6416C20.4422 17.983 22.232 18.3383 23.6333 17.9977C25.0345 17.6583 26.2974 16.8452 27.7173 16.5964C28.2496 16.5032 28.8325 16.5006 29.2929 16.7853C30.3522 17.4414 30.0927 19.0849 29.4073 20.1255C28.722 21.1661 27.716 22.1043 27.6122 23.3459C27.5204 24.4477 28.2123 25.503 29.1319 26.1178C30.0514 26.7326 31.1652 26.9775 32.2591 27.1345C34.9712 27.5244 37.8176 27.4672 40.3088 28.6076C41.0739 28.9576 41.8418 29.4806 42.0973 30.283C42.5577 31.7295 41.1924 33.027 40.3607 34.2965C39.5463 35.5394 39.2176 37.2348 39.9881 38.5057C40.3034 39.0247 40.7812 39.4452 41.0034 40.0107C41.191 40.4898 41.1737 41.0194 41.227 41.5304C41.5224 44.3516 43.8924 46.4156 45.6357 48.6539C45.8619 48.944 46.0908 49.2926 46.0096 49.6506C45.9152 50.0685 45.4454 50.28 45.0209 50.3479C42.7999 50.7032 40.6521 48.8375 38.4404 49.2461C37.1988 49.4763 36.1555 50.4437 35.7031 51.6214C35.2506 52.8005 35.3544 54.1525 35.8508 55.3129C36.0477 55.7733 36.3099 56.2391 36.2686 56.7381C36.2154 57.3742 35.6472 57.8852 35.0217 58.0183C34.3963 58.1514 33.7429 57.9637 33.18 57.6616C30.5464 56.2457 29.9157 52.8204 28.2656 50.3279C26.8031 48.1189 24.2388 46.542 21.5959 46.7163C20.7762 46.7709 19.9072 46.9771 19.1647 46.6245C18.1267 46.1321 17.8339 44.7881 17.8871 43.641C17.9404 42.4939 18.2038 41.2976 17.7873 40.2276C17.5558 39.6315 17.1313 39.1338 16.7147 38.6494C15.7912 37.5728 14.7266 36.4204 13.3161 36.2753C12.4018 36.1822 11.5103 36.5375 10.6173 36.7544C9.7244 36.9713 8.68376 37.0179 7.98645 36.4177C7.09619 35.6512 7.21995 34.1901 7.82544 33.184C8.43092 32.178 9.39568 31.4434 10.1303 30.5279C10.8648 29.6123 11.3679 28.3255 10.8502 27.2729C10.5481 26.6608 9.95595 26.2416 9.58733 25.6667C8.84877 24.5169 9.16014 22.9334 9.96658 21.8288C10.773 20.7257 11.9773 19.9938 13.1497 19.2925L14.2289 18.0442Z" fill="#FFE69C"/>
<path d="M16.4009 16.6401C16.9518 16.1584 17.8447 16.5603 18.2932 17.1391C18.7417 17.718 18.9918 18.4579 19.5561 18.925C20.3292 19.5637 21.4391 19.5025 22.4424 19.4799C23.8224 19.4493 25.2064 19.5571 26.5651 19.7993C26.8658 19.8525 27.2118 19.951 27.3223 20.2344C27.3822 20.3888 27.3555 20.5631 27.3143 20.7228C27.0601 21.7328 26.3309 22.5978 26.2018 23.6318C26.0541 24.8228 26.7594 25.9912 27.7095 26.7231C28.6597 27.4563 29.828 27.8369 30.9712 28.2042C32.7929 28.7897 34.6134 29.3753 36.4352 29.9608C37.5011 30.3028 38.6841 30.7486 39.1352 31.7719C39.6662 32.9749 38.9263 34.3176 38.6602 35.6058C38.233 37.6751 39.0647 39.7737 39.8804 41.7219C40.7388 43.7725 41.5958 45.8219 42.4541 47.8712C40.2278 48.5206 37.4971 46.5578 35.6833 48.0043C33.9187 49.4122 34.8543 52.8282 32.9047 53.9673C30.6611 52.248 29.8759 49.2259 28.0222 47.0914C26.5983 45.4519 24.529 44.3873 22.3679 44.1797C21.9487 44.1398 21.5043 44.1225 21.1516 43.891C20.6593 43.5676 20.5009 42.9315 20.3705 42.3566C19.9287 40.4098 19.3432 38.4469 18.1695 36.8314C16.9957 35.2159 15.1327 33.9876 13.1366 34.0315C12.6362 34.0422 12.1266 34.13 11.6395 34.0116C11.1538 33.8918 10.6854 33.4753 10.7279 32.9762C10.7452 32.7647 10.8504 32.5717 10.9555 32.3881C11.7034 31.0839 12.6083 29.853 13.0967 28.4318C13.585 27.0105 13.5784 25.3005 12.611 24.1508C12.0853 23.5267 11.2842 23.0569 11.1099 22.2598C10.8491 21.0715 12.1146 20.1519 13.2151 19.6356C14.317 19.1193 15.6291 18.3581 15.5639 17.1444L16.4009 16.6401Z" fill="#FFEFBF"/>
<path d="M26.0439 20.8478C25.6612 20.387 25.6759 19.7436 26.0768 19.4107C26.4777 19.0777 27.1129 19.1814 27.4956 19.6422C27.8783 20.103 27.8635 20.7464 27.4626 21.0794C27.0618 21.4123 26.4266 21.3086 26.0439 20.8478Z" fill="white"/>
<path d="M17.057 16.9731C17.1954 17.1408 17.4815 17.1328 17.6944 16.9558C17.9073 16.7788 17.9672 16.4994 17.8288 16.3317C17.6904 16.164 17.4043 16.172 17.1914 16.349C16.9785 16.5273 16.9186 16.8068 17.057 16.9731Z" fill="white"/>
<path d="M41.7187 48.3627C41.9303 48.6169 42.3268 48.6342 42.6063 48.4027C42.8857 48.1711 42.9416 47.7772 42.73 47.523C42.5184 47.2689 42.1219 47.2516 41.8424 47.4831C41.563 47.7147 41.5084 48.1086 41.7187 48.3627Z" fill="white"/>
<path d="M32.7884 54.2464C33.0625 54.5764 33.487 54.6775 33.7346 54.4713C33.9834 54.265 33.9621 53.8299 33.688 53.4998C33.4138 53.1698 32.9893 53.0687 32.7418 53.2749C32.493 53.4812 32.5143 53.9164 32.7884 54.2464Z" fill="white"/>
<path d="M10.9119 34.1122C11.1435 34.3917 11.6199 34.3797 11.9765 34.0843C12.3331 33.7889 12.4316 33.3231 12.2001 33.0437C11.9685 32.7642 11.4921 32.7762 11.1355 33.0716C10.7802 33.367 10.6804 33.8328 10.9119 34.1122Z" fill="white"/>
<path d="M21.4644 43.1277C21.664 43.3686 22.0459 43.3806 22.3174 43.1557C22.5888 42.9308 22.6461 42.5529 22.4464 42.312C22.2468 42.0711 21.8649 42.0592 21.5935 42.2841C21.3233 42.509 21.2648 42.8869 21.4644 43.1277Z" fill="white"/>
<path d="M21.4309 27.4666C20.2927 26.0961 20.2115 24.2862 21.2496 23.4241C22.2876 22.562 24.0519 22.9741 25.1901 24.3446C26.3283 25.7152 26.4095 27.5251 25.3714 28.3872C24.3333 29.2493 22.5691 28.8371 21.4309 27.4666Z" fill="white"/>
<path d="M35.1235 31.2649C35.5826 31.8185 36.3185 31.9662 36.7656 31.5949C37.2127 31.2236 37.2034 30.4731 36.743 29.9195C36.2839 29.3659 35.548 29.2182 35.1009 29.5895C34.6537 29.9608 34.663 30.7113 35.1235 31.2649Z" fill="white"/>
<path d="M16.4539 31.7053C15.8746 31.0076 15.8936 30.0363 16.4963 29.5359C17.099 29.0354 18.0572 29.1953 18.6365 29.8929C19.2159 30.5906 19.197 31.562 18.5942 32.0624C17.9915 32.5629 17.0333 32.403 16.4539 31.7053Z" fill="#FFFBED"/>
<path d="M16.5328 31.8197C17.0544 32.4478 17.966 32.5516 18.5688 32.0513C19.1716 31.5509 19.2368 30.6354 18.7152 30.0072C18.1935 29.3791 17.2819 29.2753 16.6791 29.7757C16.0763 30.2761 16.0111 31.1903 16.5328 31.8197Z" fill="#EDC5AD"/>
<path d="M35.9808 37.8185C36.3455 38.2577 36.947 38.3575 37.3262 38.0434C37.7055 37.7294 37.7161 37.1186 37.3528 36.6794C36.9882 36.2403 36.3867 36.1405 36.0074 36.4545C35.6295 36.7686 35.6175 37.3794 35.9808 37.8185Z" fill="#FFFBED"/>
<path d="M36.0467 37.8974C36.3754 38.2926 36.9476 38.3578 37.3269 38.0424C37.7062 37.727 37.7474 37.1522 37.4187 36.7569C37.09 36.3617 36.5178 36.2965 36.1386 36.6119C35.7606 36.9273 35.7193 37.5021 36.0467 37.8974Z" fill="#EDC5AD"/>
<path d="M37.2165 40.7199C36.8521 40.2811 36.8638 39.6704 37.2426 39.3558C37.6214 39.0412 38.2239 39.1418 38.5883 39.5806C38.9527 40.0193 38.941 40.63 38.5621 40.9446C38.1833 41.2592 37.5809 41.1586 37.2165 40.7199Z" fill="#FFFBED"/>
<path d="M37.2909 40.7919C37.6196 41.1871 38.1918 41.2523 38.571 40.937C38.9503 40.6229 38.9916 40.0467 38.6629 39.6515C38.3342 39.2562 37.7619 39.191 37.3827 39.5064C37.0047 39.8218 36.9635 40.3967 37.2909 40.7919Z" fill="#EDC5AD"/>
<path d="M33.7082 43.0955C33.9025 43.3284 34.2219 43.3816 34.4241 43.2153C34.6251 43.0476 34.6317 42.7229 34.4375 42.49C34.2432 42.2571 33.9238 42.2039 33.7215 42.3702C33.5219 42.5379 33.5153 42.8626 33.7082 43.0955Z" fill="#FFFBED"/>
<path d="M33.7432 43.1385C33.9175 43.3488 34.2223 43.3834 34.4232 43.2157C34.6241 43.048 34.6468 42.7419 34.4725 42.533C34.2981 42.3228 33.9934 42.2882 33.7924 42.4558C33.5915 42.6222 33.5689 42.9282 33.7432 43.1385Z" fill="#EDC5AD"/>
<path d="M20.5124 38.865C20.7067 39.0979 21.0261 39.1511 21.2284 38.9848C21.4306 38.8184 21.4359 38.4924 21.2416 38.2595C21.0474 38.0267 20.728 37.9734 20.5257 38.1398C20.3261 38.3074 20.3194 38.6321 20.5124 38.865Z" fill="#FFFBED"/>
<path d="M20.5479 38.908C20.7222 39.1183 21.027 39.1529 21.2279 38.9852C21.4289 38.8175 21.4515 38.5115 21.2771 38.3025C21.1028 38.0923 20.7981 38.0577 20.5971 38.2254C20.3962 38.393 20.3736 38.6991 20.5479 38.908Z" fill="#EDC5AD"/>
<path d="M19.841 18.7791C20.0353 19.012 20.3547 19.0652 20.557 18.8988C20.7579 18.7312 20.7645 18.4065 20.5703 18.1736C20.376 17.9407 20.0566 17.8875 19.8543 18.0538C19.6547 18.2215 19.6481 18.5462 19.841 18.7791Z" fill="#FFFBED"/>
<path d="M19.878 18.8221C20.0523 19.0324 20.357 19.0669 20.558 18.8993C20.7589 18.7316 20.7815 18.4255 20.6072 18.2166C20.4329 18.0063 20.1282 17.9718 19.9272 18.1394C19.7249 18.3058 19.7023 18.6118 19.878 18.8221Z" fill="#EDC5AD"/>
<path d="M21.8195 21.158C22.0138 21.3909 22.3332 21.4441 22.5355 21.2778C22.7364 21.1101 22.7431 20.7854 22.5488 20.5525C22.3545 20.3196 22.0351 20.2664 21.8329 20.4327C21.6319 20.6004 21.6253 20.9251 21.8195 21.158Z" fill="#FFFBED"/>
<path d="M21.8545 21.201C22.0289 21.4113 22.3336 21.4459 22.5345 21.2782C22.7355 21.1105 22.7581 20.8044 22.5838 20.5955C22.4095 20.3853 22.1047 20.3507 21.9038 20.5183C21.7015 20.686 21.6802 20.9921 21.8545 21.201Z" fill="#EDC5AD"/>
<path d="M20.438 31.3712C20.6323 31.6054 20.953 31.6587 21.154 31.491C21.3562 31.3233 21.3615 30.9986 21.1686 30.7644C20.9743 30.5302 20.6536 30.477 20.4527 30.6446C20.2504 30.8123 20.2437 31.137 20.438 31.3712Z" fill="#FFFBED"/>
<path d="M20.4729 31.4133C20.6472 31.6235 20.9533 31.6581 21.1542 31.4904C21.3565 31.3228 21.3778 31.0167 21.2034 30.8065C21.0291 30.5962 20.7231 30.5616 20.5221 30.7293C20.3198 30.8969 20.2985 31.203 20.4729 31.4133Z" fill="#EDC5AD"/>
</svg>
