<svg width="22" height="22" viewBox="0 0 22 22" fill="none" xmlns="http://www.w3.org/2000/svg">
<path fill-rule="evenodd" clip-rule="evenodd" d="M12.9934 1.02983C11.2478 1.26495 9.73675 2.07803 8.53041 3.43132C7.77774 4.27566 7.4294 4.84592 6.77449 6.30608C5.72764 8.63999 5.15112 9.48567 3.4984 11.1115C2.56663 12.0281 2.27405 12.3575 1.9077 12.9023C0.564125 14.9003 0.720866 17.2013 2.31974 18.9505C3.31978 20.0445 4.3628 20.5136 6.36972 20.7718C7.01369 20.8546 8.88305 20.84 9.61318 20.7464C13.1375 20.2946 16.0557 18.8852 18.0735 16.6604C20.6481 13.8215 21.6295 9.77477 20.5935 6.27011C19.7679 3.47774 17.8131 1.6244 15.1518 1.11101C14.627 1.00975 13.4664 0.966091 12.9934 1.02983ZM14.5622 1.89455C17.6957 2.24782 19.8544 4.69949 20.1819 8.27683C20.3869 10.5163 19.7424 12.9689 18.4457 14.8834C17.8848 15.7115 17.2487 16.4147 16.4797 17.0567C13.7625 19.3253 9.47633 20.4316 5.80309 19.8126C4.46358 19.5869 3.61415 19.1586 2.8499 18.3235C1.55029 16.9035 1.43048 15.0581 2.53165 13.4217C2.85682 12.9385 3.10618 12.6568 3.90782 11.8672C5.77867 10.0244 6.39419 9.13037 7.48067 6.67771C8.0886 5.30534 8.56066 4.55863 9.28938 3.81676C10.7229 2.35729 12.5994 1.67324 14.5622 1.89455ZM14.5868 5.49819C14.4504 5.58278 14.4002 5.68896 14.4002 5.89343C14.4002 6.05001 14.4441 6.10584 15.3878 7.14856C16.3286 8.18822 16.3823 8.23986 16.5224 8.23986C16.6033 8.23986 16.7119 8.20912 16.7638 8.17155C16.8933 8.07784 16.9617 7.83974 16.9036 7.68489C16.8792 7.61994 16.4329 7.09588 15.9117 6.52031C14.8886 5.39045 14.8316 5.34649 14.5868 5.49819ZM10.4294 8.15099C10.3122 8.20571 10.1798 8.40585 10.1798 8.52854C10.1798 8.58588 10.205 8.68524 10.2358 8.74941C10.2666 8.81354 11.3 9.97846 12.5324 11.3382L14.7731 13.8104H14.9413C15.1696 13.8104 15.3381 13.6333 15.3381 13.3934C15.3381 13.2335 15.2737 13.1577 13.0423 10.6918C10.6541 8.05271 10.6496 8.04835 10.4294 8.15099ZM7.67582 12.6843C7.5471 12.8266 7.5265 13.0073 7.61744 13.1972C7.68633 13.3411 10.2031 16.1121 10.3305 16.1843C10.6015 16.3379 10.9532 15.9914 10.863 15.6595C10.831 15.5415 8.29462 12.7102 8.13995 12.6198C7.96808 12.5193 7.80458 12.542 7.67582 12.6843ZM5.99024 14.4537C5.8861 14.5565 5.86347 14.6106 5.86347 14.7568C5.86347 14.93 5.88254 14.9558 6.575 15.721C7.2675 16.4862 7.29086 16.5073 7.44761 16.5073C7.57992 16.5073 7.62889 16.4823 7.72189 16.3672C7.84686 16.2127 7.86418 16.0689 7.77918 15.8917C7.7122 15.7522 6.52361 14.4447 6.40161 14.3763C6.25917 14.2966 6.12349 14.3221 5.99024 14.4537Z" fill="#D5662E" stroke="#D5662E" stroke-width="0.5"/>
</svg>
