<svg width="87" height="84" viewBox="0 0 87 84" fill="none" xmlns="http://www.w3.org/2000/svg">
<path d="M31.0242 83.7504C0.648979 83.7504 -23.975 59.1264 -23.975 28.7512C-23.975 -1.62406 0.648979 -26.248 31.0242 -26.248C61.3994 -26.248 86.0234 -1.62406 86.0234 28.7512C86.0234 59.1264 61.3994 83.7504 31.0242 83.7504Z" fill="#FF9C7D"/>
<path d="M-23.4345 21.0996C-23.2838 23.0056 -23.0524 24.91 -22.6858 26.7988C-20.814 36.4093 -16.1695 45.5694 -10.8322 53.7276C-6.16286 60.8668 -0.298996 68.0339 8.51933 69.7317C11.2066 70.249 13.4994 69.609 15.2018 68.3135C19.3026 69.4521 23.4283 70.0268 27.8911 69.9507C39.3781 69.7565 51.5252 68.5962 61.8969 63.2403C72.1862 57.9263 78.7724 50.113 82.6759 39.3219C83.8844 35.9822 85.0759 32.4856 86.0156 28.9207C85.924 59.2187 61.3392 83.7522 31.0211 83.7522C0.645447 83.7522 -23.9781 59.1286 -23.9781 28.7529C-23.975 26.1526 -23.7824 23.6005 -23.4345 21.0996Z" fill="#F28361"/>
<path d="M31.0241 82.0378C1.59424 82.0378 -22.2634 58.1802 -22.2634 28.7503C-22.2634 -0.679522 1.59424 -24.5371 31.0241 -24.5371C60.4539 -24.5371 84.3115 -0.679522 84.3115 28.7503C84.3115 58.1802 60.4539 82.0378 31.0241 82.0378Z" fill="#FCC8B8"/>
<path d="M31.0243 81.0568C2.1367 81.0568 -21.2814 57.6387 -21.2814 28.751C-21.2814 -0.136618 2.1367 -23.5547 31.0243 -23.5547C59.912 -23.5547 83.3301 -0.136618 83.3301 28.751C83.3301 57.6387 59.912 81.0568 31.0243 81.0568Z" fill="#DA4B1D"/>
<path d="M52.8291 76.2928C46.1901 79.3436 38.8086 81.0569 31.0233 81.0569C2.13575 81.0569 -21.2825 57.6387 -21.2825 28.7512C-21.2825 12.0434 -13.4396 -2.82208 -1.24433 -12.3984C-2.44351 -6.19905 -2.86446 0.196072 -3.25901 6.51662C-3.68929 13.4212 -4.1149 20.4082 -2.85048 27.2087C-1.28937 35.6076 2.78505 43.3417 7.51342 50.4576C12.6736 58.2243 18.8016 65.5436 26.6335 70.606C34.335 75.5829 43.871 78.1863 52.8291 76.2928Z" fill="#D63A06"/>
<path d="M31.0248 70.7297C7.84039 70.7297 -10.9543 51.935 -10.9543 28.7506C-10.9543 5.56617 7.84039 -13.2285 31.0248 -13.2285C54.2092 -13.2285 73.0039 5.56617 73.0039 28.7506C73.0039 51.935 54.2092 70.7297 31.0248 70.7297Z" fill="#FFF6FA"/>
<path d="M31.0243 68.9298C8.83422 68.9298 -9.15442 50.9411 -9.15442 28.751C-9.15442 6.5609 8.83422 -11.4277 31.0243 -11.4277C53.2145 -11.4277 71.2031 6.5609 71.2031 28.751C71.2031 50.9411 53.2145 68.9298 31.0243 68.9298Z" fill="#D2BE9C"/>
<path d="M5.32651 54.4507C-8.86762 40.2566 -8.86762 17.2434 5.32651 3.04927C19.5206 -11.1449 42.5339 -11.1449 56.728 3.04927C70.9221 17.2434 70.9221 40.2566 56.728 54.4507C42.5339 68.6449 19.5206 68.6448 5.32651 54.4507Z" fill="#FCD01D"/>
<path d="M-3.15134 31.1149C-3.88765 11.6494 10.8138 -4.70929 29.6853 -5.42313C48.5567 -6.13697 64.452 9.06431 65.1883 28.5299C65.9246 47.9954 51.2232 64.3541 32.3517 65.0679C13.4802 65.7818 -2.41503 50.5805 -3.15134 31.1149Z" fill="#FCB31C"/>
<path d="M7.8036 17.0243C5.41695 17.0243 3.48219 15.6626 3.48219 13.9828C3.48219 12.3031 5.41695 10.9414 7.8036 10.9414C10.1902 10.9414 12.125 12.3031 12.125 13.9828C12.125 15.6626 10.1902 17.0243 7.8036 17.0243Z" fill="#FAA51C"/>
<path d="M56.0374 39.3829C56.2844 41.16 55.194 43.0349 53.5288 43.7012C54.1361 45.2359 54.3707 46.9151 54.2091 48.557C52.6729 49.023 51.0077 49.051 49.4575 48.6393C49.4808 50.1088 48.948 51.5783 47.9896 52.692C45.6129 52.007 43.4895 50.3915 42.3245 48.209C41.158 46.0282 41.0073 43.2989 42.0527 41.0574C42.3043 40.52 42.6336 39.9965 43.1245 39.6641C43.7567 39.2369 44.5629 39.181 45.3256 39.1717C46.7857 39.1546 48.2474 39.2603 49.6905 39.4855L56.0374 39.3829Z" fill="#3E4719"/>
<path d="M43.4401 38.8472C47.4446 37.1183 52.2351 37.3311 56.0703 39.4064C54.9193 41.1415 53.3722 42.6125 51.578 43.6719C52.6964 45.0077 53.4358 46.6574 53.689 48.3816C51.8514 48.6783 49.9299 48.4298 48.2275 47.6748C48.4683 49.166 48.0877 50.7473 47.1961 51.9651C44.9359 50.9819 43.1185 49.0262 42.3061 46.6993C41.4922 44.3724 41.6957 41.71 42.8514 39.5337L43.4401 38.8472Z" fill="#86A01B"/>
<path d="M44.1722 35.2584C40.7578 35.2584 37.9899 33.3376 37.9899 30.9681C37.9899 28.5986 40.7578 26.6777 44.1722 26.6777C47.5866 26.6777 50.3545 28.5986 50.3545 30.9681C50.3545 33.3376 47.5866 35.2584 44.1722 35.2584Z" fill="#FAA51C"/>
<path d="M23.9314 22.3022C21.809 22.3022 20.0885 21.3605 20.0885 20.1989C20.0885 19.0374 21.809 18.0957 23.9314 18.0957C26.0539 18.0957 27.7744 19.0374 27.7744 20.1989C27.7744 21.3605 26.0539 22.3022 23.9314 22.3022Z" fill="#FAA51C"/>
<path d="M36.5586 61.2263C31.7073 61.2263 27.7745 59.6734 27.7745 57.7577C27.7745 55.842 31.7073 54.2891 36.5586 54.2891C41.41 54.2891 45.3428 55.842 45.3428 57.7577C45.3428 59.6734 41.41 61.2263 36.5586 61.2263Z" fill="#FAA51C"/>
<path d="M59.7624 27.8948C57.724 27.8948 56.0716 26.643 56.0716 25.0988C56.0716 23.5546 57.724 22.3027 59.7624 22.3027C61.8007 22.3027 63.4531 23.5546 63.4531 25.0988C63.4531 26.643 61.8007 27.8948 59.7624 27.8948Z" fill="#FAA51C"/>
<path d="M5.6562 44.1506C3.20864 44.1506 1.22451 42.7033 1.22451 40.9181C1.22451 39.1328 3.20864 37.6855 5.6562 37.6855C8.10375 37.6855 10.0879 39.1328 10.0879 40.9181C10.0879 42.7033 8.10375 44.1506 5.6562 44.1506Z" fill="#FAA51C"/>
<path d="M43.2837 38.9342C46.8409 38.799 50.4073 38.9652 53.9365 39.4297C52.0104 40.7221 49.6322 41.3263 47.3224 41.1073C48.8338 43.3394 50.471 45.4861 52.2232 47.5334C50.2365 46.8049 48.6334 45.3277 47.0847 43.8862C47.0568 46.0189 47.0273 48.1533 46.9993 50.286C46.7275 50.3404 46.5379 50.0312 46.4354 49.7749C45.2502 46.7863 44.0635 43.7884 43.2355 40.6817L43.2837 38.9342Z" fill="#BEC827"/>
<path d="M33.1256 43.7414C31.3688 43.3763 29.9692 41.7205 29.9009 39.9279C28.2513 39.9838 26.5907 39.6421 25.098 38.9384C25.1756 37.3354 25.7069 35.7572 26.6171 34.4353C25.2253 33.9631 24.0199 32.9674 23.293 31.6905C24.736 29.682 26.9713 28.225 29.4178 27.86C31.8643 27.495 34.4864 28.2685 36.2448 30.0067C36.6673 30.423 37.0494 30.9108 37.1969 31.4839C37.388 32.2233 37.169 33 36.9205 33.7223C36.4451 35.1032 35.8564 36.4438 35.159 37.7284L33.1256 43.7414Z" fill="#3E4719"/>
<path d="M37.8608 32.0549C38.1435 36.4074 36.3354 40.8484 33.092 43.764C31.8431 42.0973 30.9795 40.1447 30.5834 38.1005C28.9492 38.7063 27.1474 38.8477 25.4387 38.5075C25.7758 36.6777 26.6565 34.9503 27.9396 33.602C26.4546 33.3271 25.0939 32.4386 24.2457 31.1897C25.9311 29.3909 28.3838 28.3362 30.8474 28.3517C33.3126 28.3673 35.7513 29.4515 37.4134 31.272L37.8608 32.0549Z" fill="#86A01B"/>
<path d="M37.8311 31.877C36.7639 35.2727 35.4078 38.5766 33.7862 41.7454C33.2145 39.4977 33.446 37.0543 34.4261 34.9511C31.8165 35.6252 29.2442 36.4454 26.7278 37.4085C28.0807 35.7821 30.01 34.7678 31.888 33.7938C29.8888 33.0513 27.8881 32.3073 25.889 31.5648C25.9278 31.2914 26.2835 31.2153 26.56 31.206C29.7739 31.0942 32.9955 30.9823 36.2 31.2464L37.8311 31.877Z" fill="#BEC827"/>
<path d="M48.7651 65.7286C49.0058 66.4028 49.9907 66.6668 50.9646 66.3173C51.9385 65.9678 52.5319 65.1399 52.2912 64.4657C52.0504 63.7916 51.0656 63.5275 50.0916 63.877C49.1177 64.225 48.5243 65.0545 48.7651 65.7286Z" fill="white"/>
<path d="M44.2916 14.3836C43.7099 14.3836 43.2384 13.613 43.2384 12.6625C43.2384 11.7119 43.7099 10.9414 44.2916 10.9414C44.8732 10.9414 45.3447 11.7119 45.3447 12.6625C45.3447 13.613 44.8732 14.3836 44.2916 14.3836Z" fill="#612201"/>
<path d="M53.938 20.0009C53.938 20.6067 54.4164 21.0976 55.0051 21.0976C55.5938 21.0976 56.0723 20.6067 56.0723 20.0009C56.0723 19.3951 55.5938 18.9043 55.0051 18.9043C54.4148 18.9043 53.938 19.3951 53.938 20.0009Z" fill="#612201"/>
<path d="M52.3459 31.6736C52.3459 32.2856 52.7016 32.7826 53.1412 32.7826C53.5808 32.7826 53.9365 32.2871 53.9365 31.6736C53.9365 31.06 53.5808 30.5645 53.1412 30.5645C52.7016 30.566 52.3459 31.0615 52.3459 31.6736Z" fill="#612201"/>
<path d="M11.106 27.8956C10.5432 27.8956 10.087 27.2697 10.087 26.4976C10.087 25.7255 10.5432 25.0996 11.106 25.0996C11.6688 25.0996 12.125 25.7255 12.125 26.4976C12.125 27.2697 11.6688 27.8956 11.106 27.8956Z" fill="#612201"/>
<path d="M11.1059 46.9786C11.1059 47.5564 11.3963 48.0255 11.7536 48.0255C12.1109 48.0255 12.4014 47.5564 12.4014 46.9786C12.4014 46.4008 12.1109 45.9316 11.7536 45.9316C11.3963 45.9301 11.1059 46.3992 11.1059 46.9786Z" fill="#612201"/>
<path d="M26.0129 46.9786C26.0129 47.5564 26.4075 48.0255 26.8937 48.0255C27.3799 48.0255 27.7744 47.5564 27.7744 46.9786C27.7744 46.4008 27.3799 45.9316 26.8937 45.9316C26.4075 45.9301 26.0129 46.3992 26.0129 46.9786Z" fill="#612201"/>
<path d="M38.1182 46.9791C37.2569 46.9791 36.5586 46.4971 36.5586 45.9026C36.5586 45.3081 37.2569 44.8262 38.1182 44.8262C38.9795 44.8262 39.6777 45.3081 39.6777 45.9026C39.6777 46.4971 38.9795 46.9791 38.1182 46.9791Z" fill="#612201"/>
<path d="M37.4243 3.2525C37.4243 3.82569 37.7909 4.29013 38.2429 4.29013C38.6949 4.29013 39.0615 3.82569 39.0615 3.2525C39.0615 2.67932 38.6949 2.21484 38.2429 2.21484C37.7909 2.2164 37.4243 2.67932 37.4243 3.2525Z" fill="#612201"/>
<path d="M12.3994 16.3287C12.3994 16.7139 12.8297 17.0246 13.3594 17.0246C13.8891 17.0246 14.3193 16.7124 14.3193 16.3287C14.3193 15.945 13.8891 15.6328 13.3594 15.6328C12.8297 15.6328 12.3994 15.9435 12.3994 16.3287Z" fill="#612201"/>
<path d="M18.9129 33.168C19.9412 33.8701 21.6095 34.0612 21.74 35.352C21.8425 36.3633 20.8142 37.0514 19.9179 37.4164C19.0232 37.7815 17.956 38.2723 17.8256 39.2804C17.6997 40.2606 18.5758 41.104 18.5991 42.0935C18.6271 43.243 17.5211 44.0508 16.4804 44.3707C13.9313 45.1521 11.2052 44.3692 8.70743 43.417C6.18791 42.4555 3.68081 41.2873 1.68942 39.3907C0.979548 38.715 0.311611 37.8824 0.205984 36.8759C0.128317 36.1334 0.37219 35.3846 0.75742 34.7586C2.22067 32.382 5.33978 31.8912 7.98357 32.3106C10.6289 32.73 13.2028 33.8189 15.8761 33.7101L18.9129 33.168Z" fill="#FCD01D"/>
<path d="M40.2219 56.5009C40.7004 56.0364 41.5594 56.6547 41.5407 57.3335C41.5221 58.0123 40.9753 58.5451 40.4161 58.9024C39.8569 59.2596 39.2247 59.5454 38.8317 60.0891C38.58 60.4371 38.4465 60.8642 38.1964 61.2137C37.5859 62.0681 36.4426 62.2715 35.4159 62.2995C32.6727 62.3741 29.9714 61.6844 27.309 60.9994C25.2461 60.4681 23.0823 59.881 21.5523 58.3556C21.0661 57.8709 20.642 57.1098 20.9853 56.5086C21.5135 55.586 23.2175 56.0908 23.6617 55.1215C23.786 54.8512 23.7689 54.5204 23.9336 54.2734C24.1573 53.9394 24.6093 53.8944 25.0023 53.8866C29.3734 53.8027 33.7554 54.4039 37.9525 55.6636L40.2219 56.5009Z" fill="#FCD01D"/>
<path d="M18.9129 33.1121C19.9412 33.7738 21.6095 33.954 21.74 35.1703C21.8425 36.124 20.8142 36.7718 19.9179 37.1151C19.0232 37.4584 17.956 37.9212 17.8256 38.8719C17.6997 39.7961 18.5758 40.5914 18.5991 41.5219C18.6271 42.6046 17.5211 43.3673 16.4804 43.6671C13.9313 44.4034 11.2052 43.6655 8.70743 42.7692C6.18791 41.8636 3.68081 40.7623 1.68942 38.9744C0.979548 38.3376 0.311611 37.5531 0.205984 36.6056C0.128317 35.9066 0.37219 35.1998 0.75742 34.6111C2.22067 32.3727 5.33978 31.9098 7.98357 32.3044C10.6289 32.6989 13.2028 33.7257 15.8761 33.6232L18.9129 33.1121Z" fill="#DB661A"/>
<path d="M15.4324 28.1699L7.92973 38.1222L13.5233 41.3547L19.7646 34.7623L15.4324 28.1699Z" fill="#612201"/>
<path d="M15.4326 28.1706L7.92997 25.0996L3.74371 34.8903L7.92997 38.1229L15.4326 28.1706Z" fill="#BD6E43"/>
<path d="M3.74358 34.8906L6.30971 38.1231L13.5234 41.3557L7.92985 38.1231L3.74358 34.8906Z" fill="#943402"/>
<path d="M15.4326 28.1699L7.55096 36.8826L3.74371 34.8897L7.92997 38.1222L13.5236 41.3547L9.18508 38.1222L15.4326 28.1699Z" fill="#E89568"/>
<path d="M7.9299 37.0236C7.9299 37.631 8.30115 38.1234 8.75939 38.1234C9.21762 38.1234 9.58887 37.631 9.58887 37.0236C9.58887 36.4163 9.21762 35.9238 8.75939 35.9238C8.30115 35.9238 7.9299 36.4163 7.9299 37.0236Z" fill="#FFB78F"/>
<path d="M52.4872 20.8563C54.0809 21.4528 55.6762 22.0508 57.2699 22.6473C58.1818 22.989 59.2349 23.5001 59.3607 24.4678C59.4897 25.4666 58.4955 26.2666 57.5262 26.5322C56.6797 26.7637 55.5038 27.0775 55.5908 27.9535C55.6203 28.258 55.8238 28.5236 55.8595 28.8281C55.9465 29.5985 55.0067 30.0303 54.2471 30.181C49.1817 31.1814 43.8102 30.5678 39.0989 28.4491C38.6127 28.23 38.0955 27.9566 37.892 27.4627C37.5285 26.5788 38.3891 25.6779 39.2263 25.2196C40.0636 24.7614 41.0779 24.314 41.3078 23.3867C41.4321 22.8819 41.2845 22.3335 41.4476 21.8396C41.8204 20.7056 43.3862 20.6621 44.5636 20.8408C46.6109 21.1499 48.6582 21.4606 50.7055 21.7697L52.4872 20.8563Z" fill="#FCD01D"/>
<path d="M36.8647 4.42773C37.6414 5.08791 38.7194 5.12211 39.7011 5.31628C40.6829 5.51045 41.7733 6.06965 41.9333 7.10418C42.115 8.27229 41.0137 9.19497 39.9963 9.70136C38.9788 10.2093 37.7812 10.7281 37.4441 11.8574C37.1335 12.9028 37.7035 14.1346 37.1987 15.093C36.8477 15.7625 36.0896 16.0561 35.3844 16.2487C30.6529 17.5473 25.6574 16.7302 20.8311 15.907C20.0731 15.778 19.256 15.6165 18.7372 15.0216C17.8844 14.0461 18.3225 12.3777 19.2654 11.5001C20.2082 10.6209 21.4866 10.2885 22.6749 9.84426C24.8527 9.02875 26.8519 7.75968 28.9877 6.82612C31.1236 5.89257 33.5095 5.29762 35.7463 5.91585L36.8647 4.42773Z" fill="#FCD01D"/>
<path d="M52.4872 20.0718C54.0809 20.6668 55.6762 21.2633 57.2699 21.8582C58.1818 22.1984 59.2349 22.7094 59.3607 23.674C59.4897 24.6697 58.4955 25.4697 57.5262 25.7338C56.6797 25.9652 55.5038 26.2774 55.5908 27.1504C55.6203 27.4549 55.8238 27.7189 55.8595 28.0234C55.9465 28.7923 55.0067 29.2241 54.2471 29.3732C49.1817 30.3705 43.8102 29.7585 39.0989 27.646C38.6127 27.4285 38.0955 27.1551 37.892 26.6627C37.5285 25.7804 38.3891 24.8825 39.2263 24.4243C40.0636 23.966 41.0779 23.5203 41.3078 22.5945C41.4321 22.0912 41.2845 21.5444 41.4476 21.052C41.8204 19.9211 43.3862 19.8777 44.5636 20.0547C46.6109 20.3639 48.6582 20.673 50.7055 20.9805L52.4872 20.0718Z" fill="#DB661A"/>
<path d="M56.1465 18.8574L43.9294 21.3257L45.9705 27.4552L55.0141 26.6645L56.1465 18.8574Z" fill="#612201"/>
<path d="M56.1455 18.8579L52.5682 11.582L42.9405 16.1302L43.9285 21.3261L56.1455 18.8579Z" fill="#BD6E43"/>
<path d="M42.9417 16.1309L42.718 20.2519L45.9707 27.4563L43.9296 21.3268L42.9417 16.1309Z" fill="#943402"/>
<path d="M56.1465 18.8585L44.4684 20.1494L42.9415 16.1309L43.9294 21.3268L45.9705 27.4563L44.8692 22.1609L56.1465 18.8585Z" fill="#E89568"/>
<path d="M44.66 20.5028C44.2577 20.9579 44.208 21.5715 44.5513 21.8759C44.8946 22.1804 45.4988 22.0577 45.9012 21.6025C46.3035 21.1474 46.3532 20.5339 46.0099 20.2294C45.6666 19.925 45.0624 20.0492 44.66 20.5028Z" fill="#FFB78F"/>
<path d="M40.2219 55.6948C40.7004 55.2459 41.5594 55.8424 41.5407 56.4995C41.5221 57.1566 40.9753 57.6707 40.4161 58.0171C39.8569 58.3619 39.2247 58.6384 38.8317 59.165C38.58 59.5006 38.4465 59.9137 38.1964 60.2524C37.5859 61.0787 36.4426 61.276 35.4159 61.3024C32.6727 61.3739 29.9714 60.7075 27.309 60.0458C25.2461 59.5332 23.0823 58.9646 21.5523 57.489C21.0661 57.0199 20.642 56.2836 20.9853 55.7026C21.5135 54.811 23.2175 55.2988 23.6617 54.3621C23.786 54.1011 23.7689 53.7796 23.9336 53.5419C24.1573 53.2188 24.6093 53.1753 25.0023 53.1676C29.3734 53.0868 33.7554 53.6677 37.9525 54.8856L40.2219 55.6948Z" fill="#DB661A"/>
<path d="M33.2654 60.0339C32.1812 60.2623 31.2569 60.2778 30.4337 60.1473L29.1087 59.0305L38.2408 50.5508L40.3828 55.5479C38.7347 57.8313 35.9915 59.4623 33.2654 60.0339Z" fill="#612201"/>
<path d="M38.2402 50.5506L31.3931 46.209L25.5541 55.1143L29.1081 59.0302L38.2402 50.5506Z" fill="#BD6E43"/>
<path d="M28.8799 59.677L27.5129 58.7466L25.5526 55.1133L29.1066 59.0308L30.4316 60.1477C29.8724 60.0591 29.3567 59.9007 28.8799 59.677Z" fill="#943402"/>
<path d="M31.258 60.2231C30.9706 60.2153 30.6972 60.1889 30.4331 60.1469L29.1081 59.0301L25.5541 55.1125L28.9528 57.7439L38.2402 50.5488L30.3446 59.2491L31.258 60.2231Z" fill="#E89568"/>
<path d="M29.3006 57.9466C29.1934 58.5447 29.473 59.0946 29.9235 59.1753C30.374 59.2561 30.826 58.8367 30.9332 58.2387C31.0403 57.6406 30.7607 57.0907 30.3103 57.01C29.8598 56.9292 29.4078 57.3486 29.3006 57.9466Z" fill="#FFB78F"/>
<path d="M36.8647 4.42773C37.6414 5.05528 38.7194 5.08794 39.7011 5.27434C40.6829 5.45918 41.7733 5.99042 41.9333 6.97679C42.115 8.08899 41.0137 8.96662 39.9963 9.4497C38.9788 9.93279 37.7812 10.4268 37.4441 11.5017C37.1335 12.4974 37.7035 13.6686 37.1987 14.582C36.8477 15.2188 36.0896 15.4984 35.3844 15.6833C30.6529 16.9198 25.6574 16.1415 20.8311 15.3586C20.0731 15.2359 19.256 15.0821 18.7372 14.5167C17.8844 13.5878 18.3225 12.0003 19.2654 11.1646C20.2082 10.3289 21.4866 10.012 22.6749 9.58797C24.8527 8.8113 26.8519 7.60436 28.9877 6.71584C31.1236 5.82733 33.5095 5.26035 35.7463 5.84907L36.8647 4.42773Z" fill="#DB661A"/>
<path d="M14.6446 2.51953C15.4539 2.6671 16.2306 2.99951 16.8939 3.48415C17.1051 3.63793 17.3133 3.81192 17.5665 3.88182C17.7995 3.9455 18.0465 3.9144 18.2872 3.88333C19.1167 3.7746 19.9462 3.66433 20.7772 3.5556C20.9621 3.53075 21.1563 3.50898 21.3271 3.57888C21.512 3.655 21.6393 3.82589 21.7512 3.9921C22.4688 5.0639 22.9643 6.28482 23.1958 7.5539C23.2859 8.04631 23.3356 8.55427 23.2408 9.04668C23.1663 9.43502 23.0032 9.79848 22.837 10.1573C22.1799 11.5708 21.439 12.9689 20.378 14.1106C19.3155 15.2507 17.8927 16.1206 16.3393 16.2433C15.8795 16.279 15.3732 16.2324 15.0376 15.9156C14.7813 15.6732 14.6741 15.3144 14.5872 14.9727C14.045 12.8368 13.9037 10.5985 14.1709 8.41135C14.334 7.0848 14.6446 5.74424 14.421 4.427L14.6446 2.51953Z" fill="#3E4719"/>
<path d="M15.0082 16.4531C10.9244 14.9231 7.61891 11.4467 6.29391 7.29153C8.32568 6.83795 10.4615 6.85193 12.4886 7.33192C12.6082 5.59373 13.2187 3.89126 14.233 2.47461C15.7631 3.53399 16.9762 5.04693 17.6784 6.77114C18.5389 5.53002 19.909 4.65393 21.3971 4.39452C22.3446 6.67017 22.2964 9.33881 21.2697 11.5803C20.2429 13.8202 18.2515 15.5988 15.9091 16.3661L15.0082 16.4531Z" fill="#86A01B"/>
<path d="M15.1581 16.1569C16.6804 14.9266 18.2182 13.6824 19.4236 12.1399C20.629 10.5975 21.4927 8.7086 21.4538 6.75139C21.1261 8.14163 19.9719 9.15906 18.8799 10.0802C18.125 10.7155 17.3716 11.3508 16.6167 11.9877C16.9414 11.4487 16.7441 10.759 16.5375 10.1641C16.042 8.73035 15.5449 7.29506 15.0494 5.86133C14.7869 7.91795 14.6766 9.99477 14.7201 12.0685C13.4681 10.8988 12.0437 9.91399 10.5059 9.15441C10.9843 10.9268 12.1524 12.4211 13.291 13.8626C13.7772 14.4777 14.2649 15.0928 14.7511 15.7095L15.1581 16.1569Z" fill="#BEC827"/>
<path d="M32.1443 12.2175C31.0601 12.4443 30.1358 12.4614 29.3126 12.3309L27.9876 11.2141L37.1197 2.73438L39.2617 7.73147C37.6136 10.0149 34.872 11.6459 32.1443 12.2175Z" fill="#612201"/>
<path d="M37.1211 2.73416L30.274 -1.60742L24.4349 7.29635L27.989 11.2139L37.1211 2.73416Z" fill="#BD6E43"/>
<path d="M27.7607 11.8606L26.3938 10.9301L24.4334 7.29688L27.9875 11.2144L29.3125 12.3312C28.7517 12.2427 28.2376 12.0827 27.7607 11.8606Z" fill="#943402"/>
<path d="M30.1388 12.4066C29.8514 12.3989 29.5781 12.3725 29.314 12.3305L27.989 11.2137L24.4349 7.29616L27.8337 9.92752L37.1211 2.73242L29.2255 11.4327L30.1388 12.4066Z" fill="#E89568"/>
<path d="M28.1815 10.1302C28.0743 10.7283 28.3539 11.2781 28.8044 11.3589C29.2548 11.4397 29.7068 11.0203 29.814 10.4222C29.9212 9.8242 29.6416 9.27433 29.1911 9.19355C28.7407 9.11278 28.2871 9.53219 28.1815 10.1302Z" fill="#FFB78F"/>
<path d="M34.9711 21.3715C34.9711 21.8856 35.319 22.3035 35.7477 22.3035C36.1765 22.3035 36.5244 21.8872 36.5244 21.3715C36.5244 20.8573 36.1765 20.4395 35.7477 20.4395C35.319 20.4395 34.9711 20.8573 34.9711 21.3715Z" fill="#612201"/>
<path d="M18.869 23.9131C18.869 24.3729 19.3102 24.7441 19.8554 24.7441C20.4007 24.7441 20.8418 24.3713 20.8418 23.9131C20.8418 23.4548 20.4007 23.082 19.8554 23.082C19.3102 23.082 18.869 23.4533 18.869 23.9131Z" fill="#612201"/>
<path d="M56.9494 18.5312C59.0774 20.9436 60.0762 24.2118 60.1461 27.4272C60.216 30.6427 59.4176 33.8239 58.3023 36.8421C59.7469 31.0372 59.1722 24.7508 56.6977 19.3048L56.9494 18.5312Z" fill="#FCD01D"/>
<path d="M21.1328 57.6742C19.4956 57.4257 17.9966 56.6335 16.5349 55.8537C14.6709 54.858 12.796 53.8577 11.1231 52.5668C9.45012 51.276 7.97133 49.6698 7.12166 47.7344C9.2575 50.1809 12.0691 51.9222 14.834 53.6262C16.2864 54.521 17.7403 55.4157 19.1927 56.3119C19.8218 56.7003 20.5037 57.2874 21.1328 57.6742Z" fill="#FCD01D"/>
<path d="M4.41214 25.532C4.60631 21.1686 5.87073 16.8566 8.0625 13.0788C7.42097 12.9654 6.95342 13.6504 6.66916 14.2361C6.23267 15.1308 5.79773 16.0271 5.36124 16.9218C5.03815 17.5835 4.71505 18.2484 4.46652 18.9411C3.74732 20.9481 3.68674 23.1849 4.2941 25.2291L4.41214 25.532Z" fill="#FCD01D"/>
</svg>
