<svg width="70" height="75" viewBox="0 0 70 75" fill="none" xmlns="http://www.w3.org/2000/svg">
<path d="M85.6229 5.93523L85.5344 6.42734L85.6229 5.93523ZM109.29 0.474728C107.541 3.08473 100.305 8.06741 85.7114 5.44312L85.5344 6.42734C100.37 9.09512 108.077 4.08123 110.121 1.03143L109.29 0.474728ZM85.7114 5.44312C76.5269 3.79152 62.3999 1.33744 50.6524 2.45446C44.7793 3.01291 39.4335 4.46893 35.5936 7.42276C31.7238 10.3995 29.4359 14.8574 29.6245 21.2725L30.624 21.2432C30.4441 15.1196 32.6101 10.9794 36.2033 8.21539C39.8263 5.42842 44.9526 4.00095 50.7471 3.44997C62.335 2.34813 76.3258 4.77141 85.5344 6.42734L85.7114 5.44312ZM29.6245 21.2725C29.9947 33.8679 32.7954 44.6807 36.63 51.783C38.5451 55.33 40.7397 57.9917 43.0568 59.4684C45.3965 60.9595 47.8789 61.2463 50.2507 59.9869L49.7818 59.1037C47.7846 60.1641 45.6883 59.9596 43.5942 58.6251C41.4776 57.2761 39.3835 54.778 37.51 51.3079C33.7673 44.3759 30.9909 33.7251 30.624 21.2432L29.6245 21.2725ZM50.2507 59.9869C52.6154 58.7313 53.7616 56.4845 53.7378 54.0209C53.7142 51.5719 52.5405 48.9245 50.3195 46.766C45.8561 42.4282 37.1971 40.064 24.8401 44.9013L25.2046 45.8325C37.3144 41.092 45.5212 43.4972 49.6225 47.4831C51.6838 49.4864 52.7172 51.8895 52.7379 54.0305C52.7584 56.1568 51.786 58.0395 49.7818 59.1037L50.2507 59.9869ZM24.8401 44.9013C0.0205871 54.6171 -8.82068 90.0362 12.5983 112.914L13.3283 112.231C-7.64247 89.8315 1.0904 55.2722 25.2046 45.8325L24.8401 44.9013Z" fill="#D5E6E5"/>
</svg>
