<svg width="24" height="25" viewBox="0 0 24 25" fill="none" xmlns="http://www.w3.org/2000/svg">
<path d="M21 6.84766C17.67 6.51766 14.32 6.34766 10.98 6.34766C9 6.34766 7.02 6.44766 5.04 6.64766L3 6.84766" stroke="#2B817B" stroke-width="1.5" stroke-linecap="round" stroke-linejoin="round"/>
<path d="M8.5 5.83719L8.72 4.52719C8.88 3.57719 9 2.86719 10.69 2.86719H13.31C15 2.86719 15.13 3.61719 15.28 4.53719L15.5 5.83719" stroke="#2B817B" stroke-width="1.5" stroke-linecap="round" stroke-linejoin="round"/>
<path d="M18.8504 10.0068L18.2004 20.0768C18.0904 21.6468 18.0004 22.8668 15.2104 22.8668H8.79039C6.00039 22.8668 5.91039 21.6468 5.80039 20.0768L5.15039 10.0068" stroke="#2B817B" stroke-width="1.5" stroke-linecap="round" stroke-linejoin="round"/>
<path d="M10.3301 17.3672H13.6601" stroke="#2B817B" stroke-width="1.5" stroke-linecap="round" stroke-linejoin="round"/>
<path d="M9.5 13.3672H14.5" stroke="#2B817B" stroke-width="1.5" stroke-linecap="round" stroke-linejoin="round"/>
</svg>
