<svg width="24" height="25" viewBox="0 0 24 25" fill="none" xmlns="http://www.w3.org/2000/svg">
<path d="M11.9994 23.617C11.9394 23.617 11.8794 23.607 11.8294 23.597C11.7694 23.587 11.7094 23.557 11.6494 23.527L9.43938 22.427C9.06938 22.237 8.91937 21.787 9.09937 21.417C9.28937 21.047 9.73938 20.897 10.1094 21.077L11.2494 21.647V20.087C11.2494 19.677 11.5894 19.337 11.9994 19.337C12.4094 19.337 12.7494 19.677 12.7494 20.087V21.647L13.8894 21.077C14.2594 20.897 14.7094 21.047 14.8994 21.417C15.0894 21.787 14.9394 22.237 14.5594 22.427L12.3494 23.527C12.2894 23.557 12.2294 23.577 12.1694 23.597C12.1094 23.607 12.0594 23.617 11.9994 23.617ZM18.6694 20.287C18.3994 20.287 18.1294 20.137 17.9994 19.877C17.8094 19.507 17.9594 19.057 18.3394 18.867L20.1494 17.967V15.657C20.1494 15.247 20.4894 14.907 20.8994 14.907C21.3094 14.907 21.6494 15.247 21.6494 15.657V18.437C21.6494 18.717 21.4894 18.977 21.2394 19.107L19.0194 20.217C18.8894 20.257 18.7794 20.287 18.6694 20.287ZM5.32938 20.287C5.21938 20.287 5.09937 20.257 4.99937 20.207L2.77937 19.097C2.52937 18.967 2.36938 18.707 2.36938 18.427V15.647C2.36938 15.237 2.70938 14.897 3.11938 14.897C3.52938 14.897 3.86938 15.237 3.86938 15.647V17.957L5.67937 18.857C6.04937 19.047 6.19937 19.497 6.01937 19.867C5.86937 20.127 5.60938 20.287 5.32938 20.287ZM11.9994 15.287C11.5894 15.287 11.2494 14.947 11.2494 14.537V12.227L9.43938 11.327C9.06938 11.137 8.91937 10.687 9.09937 10.317C9.28937 9.94698 9.73938 9.79699 10.1094 9.97699L11.9994 10.917L13.8894 9.97699C14.2594 9.79699 14.7094 9.93698 14.8994 10.317C15.0894 10.697 14.9394 11.137 14.5594 11.327L12.7494 12.227V14.537C12.7494 14.947 12.4094 15.287 11.9994 15.287ZM20.8894 10.837C20.4794 10.837 20.1394 10.497 20.1394 10.087V8.52699L18.9994 9.09698C18.6294 9.28698 18.1794 9.13698 17.9894 8.75698C17.7994 8.38698 17.9494 7.93699 18.3294 7.74699L19.2094 7.30699L18.3294 6.86698C17.9594 6.67698 17.8094 6.22699 17.9894 5.85699C18.1794 5.48699 18.6294 5.33698 18.9994 5.51698L21.2094 6.61698C21.2294 6.62699 21.2594 6.63698 21.2794 6.65698C21.3394 6.68698 21.3894 6.73698 21.4394 6.78698C21.4694 6.82698 21.4994 6.86698 21.5294 6.90698C21.5694 6.97698 21.5994 7.04698 21.6194 7.12698C21.6294 7.18698 21.6394 7.24698 21.6394 7.29698V7.30699V10.067C21.6394 10.507 21.2994 10.837 20.8894 10.837ZM3.10938 10.837C2.69938 10.837 2.35938 10.497 2.35938 10.087V7.32699V7.31698C2.35938 7.25698 2.36937 7.19698 2.37937 7.14698C2.39937 7.06698 2.42938 6.99698 2.46938 6.92698C2.49938 6.87698 2.52937 6.83698 2.56937 6.79698C2.60937 6.75698 2.65937 6.71699 2.70937 6.68699C2.72937 6.67699 2.75937 6.65698 2.77937 6.64698L4.98937 5.54698C5.35937 5.36698 5.80937 5.50699 5.99937 5.88699C6.18937 6.26699 6.03938 6.70698 5.65938 6.89698L4.77937 7.33699L5.65938 7.77699C6.02938 7.96699 6.17937 8.41698 5.99937 8.78698C5.80937 9.15698 5.36937 9.30698 4.98937 9.12698L3.84937 8.55699V10.117C3.85937 10.507 3.52937 10.837 3.10938 10.837ZM14.2194 4.72699C14.1094 4.72699 13.9894 4.69698 13.8894 4.64698L11.9994 3.70698L10.1094 4.64698C9.73938 4.83698 9.28937 4.68699 9.09937 4.30699C8.90937 3.93699 9.05938 3.48698 9.43938 3.29698L11.6594 2.18699C11.8694 2.07699 12.1194 2.07699 12.3294 2.18699L14.5494 3.29698C14.9194 3.48698 15.0694 3.93699 14.8894 4.30699C14.7594 4.57699 14.4994 4.72699 14.2194 4.72699Z" fill="#6A82CF"/>
</svg>
