<svg width="1194" height="136" viewBox="0 0 1194 136" fill="none" xmlns="http://www.w3.org/2000/svg">
<path d="M541.881 63.6006C543.007 62.505 543.57 60.9529 543.57 58.9444C543.57 56.9358 543.007 55.399 541.881 54.3338C540.755 53.2382 539.461 52.6904 538 52.6904C536.54 52.6904 535.246 53.2382 534.12 54.3338C532.994 55.4294 532.431 56.9815 532.431 58.99C532.431 60.9986 532.994 62.5506 534.12 63.6462C535.246 64.7114 536.54 65.2439 538 65.2439C539.461 65.2439 540.755 64.6961 541.881 63.6006ZM527.866 68.3481C525.614 65.9135 524.488 62.7941 524.488 58.99C524.488 55.1859 525.614 52.0666 527.866 49.632C530.118 47.1669 532.857 45.9344 536.083 45.9344C539.339 45.9344 541.835 47.1365 543.57 49.5407V46.2083H551.376V71.6805H543.57V67.9829C541.683 70.661 539.157 72 535.992 72C532.827 72 530.118 70.7827 527.866 68.3481Z" fill="#69BFB9"/>
<path d="M567.683 65.0613H570.468V71.6805H566.496C563.636 71.6805 561.414 71.0566 559.832 69.8088C558.28 68.5307 557.504 66.3547 557.504 63.281V52.6904H555.13V46.2083H557.504V40H565.31V46.2083H570.422V52.6904H565.31V63.281C565.31 64.4679 566.101 65.0613 567.683 65.0613Z" fill="#69BFB9"/>
<path d="M576.085 68.4394C573.741 66.0656 572.57 62.9006 572.57 58.9444C572.57 54.9881 573.741 51.8383 576.085 49.495C578.458 47.1213 581.517 45.9344 585.26 45.9344C588.364 45.9344 590.997 46.7104 593.157 48.2625C595.318 49.7841 596.748 51.9753 597.448 54.8359H589.003C588.273 53.3143 587.071 52.5535 585.397 52.5535C583.754 52.5535 582.521 53.1469 581.699 54.3338C580.908 55.4903 580.513 57.0271 580.513 58.9444C580.513 60.8616 580.908 62.4137 581.699 63.6006C582.521 64.757 583.708 65.3352 585.26 65.3352C586.234 65.3352 586.995 65.1679 587.542 64.8331C588.09 64.4983 588.577 63.9049 589.003 63.0528H597.448C596.748 65.7917 595.303 67.9677 593.112 69.5806C590.921 71.1935 588.303 72 585.26 72C581.517 72 578.458 70.8131 576.085 68.4394Z" fill="#69BFB9"/>
<path d="M615.736 63.6919C616.77 62.5963 617.288 61.0138 617.288 58.9444C617.288 56.8749 616.755 55.3077 615.69 54.2425C614.625 53.1469 613.362 52.5991 611.901 52.5991C610.44 52.5991 609.178 53.1469 608.112 54.2425C607.078 55.3077 606.56 56.8749 606.56 58.9444C606.56 61.0138 607.093 62.5963 608.158 63.6919C609.254 64.7874 610.532 65.3352 611.993 65.3352C613.453 65.3352 614.701 64.7874 615.736 63.6919ZM602.452 68.3937C599.896 65.9895 598.617 62.8245 598.617 58.8987C598.617 54.9729 599.896 51.8383 602.452 49.495C605.008 47.1213 608.173 45.9344 611.947 45.9344C615.721 45.9344 618.87 47.1213 621.396 49.495C623.953 51.8383 625.231 54.9729 625.231 58.8987C625.231 62.8245 623.968 65.9895 621.442 68.3937C618.916 70.7979 615.766 72 611.993 72C608.219 72 605.039 70.7979 602.452 68.3937Z" fill="#69BFB9"/>
<path d="M644.418 63.6006C645.544 62.505 646.107 60.9529 646.107 58.9444C646.107 56.9358 645.544 55.399 644.418 54.3338C643.292 53.2382 641.999 52.6904 640.538 52.6904C639.077 52.6904 637.784 53.2382 636.658 54.3338C635.532 55.4294 634.969 56.9815 634.969 58.99C634.969 60.9986 635.532 62.5506 636.658 63.6462C637.784 64.7114 639.077 65.2439 640.538 65.2439C641.999 65.2439 643.292 64.6961 644.418 63.6006ZM630.404 68.3481C628.152 65.9135 627.026 62.7941 627.026 58.99C627.026 55.1859 628.152 52.0666 630.404 49.632C632.656 47.1669 635.395 45.9344 638.621 45.9344C641.877 45.9344 644.372 47.1365 646.107 49.5407V46.2083H653.913V71.6805H646.107V67.9829C644.22 70.661 641.694 72 638.529 72C635.364 72 632.656 70.7827 630.404 68.3481Z" fill="#69BFB9"/>
<path d="M657.667 53.8773C657.667 51.6253 658.626 49.7385 660.543 48.2168C662.46 46.6952 665.047 45.9344 668.304 45.9344C671.59 45.9344 674.238 46.68 676.246 48.1712C678.255 49.6624 679.32 51.7014 679.442 54.2882H671.453C671.362 53.4056 671.058 52.8122 670.54 52.5078C670.023 52.1731 669.247 52.0057 668.212 52.0057C666.173 52.0057 665.154 52.6296 665.154 53.8773C665.154 55.0033 666.401 55.7794 668.897 56.2054C671.423 56.6315 673.721 57.2858 675.79 58.1683C676.855 58.5944 677.738 59.3096 678.438 60.3138C679.168 61.2877 679.533 62.4898 679.533 63.9201C679.533 66.2939 678.514 68.2416 676.475 69.7632C674.436 71.2544 671.864 72 668.76 72C665.656 72 663.069 71.3 661 69.9001C658.93 68.4698 657.804 66.3699 657.622 63.6006H665.61C665.823 65.1526 666.919 65.9287 668.897 65.9287C669.81 65.9287 670.556 65.7156 671.134 65.2896C671.742 64.8635 672.047 64.3157 672.047 63.6462C672.047 62.9767 671.545 62.4441 670.54 62.0485C669.566 61.6529 668.38 61.3181 666.98 61.0442C665.58 60.7703 664.165 60.4356 662.734 60.0399C661.334 59.6139 660.132 58.8987 659.128 57.8944C658.154 56.8597 657.667 55.5207 657.667 53.8773Z" fill="#69BFB9"/>
<path d="M694.172 65.0613H696.957V71.6805H692.985C690.125 71.6805 687.903 71.0566 686.321 69.8088C684.769 68.5307 683.993 66.3547 683.993 63.281V52.6904H681.619V46.2083H683.993V40H691.799V46.2083H696.911V52.6904H691.799V63.281C691.799 64.4679 692.59 65.0613 694.172 65.0613Z" fill="#69BFB9"/>
<path fill-rule="evenodd" clip-rule="evenodd" d="M510.035 71.9536C515.887 71.9536 520.835 68.0854 522.462 62.7666L515.816 60.323C515.212 62.9769 512.838 64.9577 510.001 64.9577C506.708 64.9577 504.038 62.2879 504.038 58.9945L504.038 58.9612L515.965 58.9612L523.028 58.9612C523.028 51.7857 517.211 45.9688 510.035 45.9688C502.86 45.9688 497.043 51.7857 497.043 58.9612C497.043 66.1367 502.86 71.9536 510.035 71.9536ZM508.705 54.8727C508.705 55.5236 508.177 56.0513 507.526 56.0513C506.875 56.0513 506.348 55.5236 506.348 54.8727C506.348 54.2218 506.875 53.6941 507.526 53.6941C508.177 53.6941 508.705 54.2218 508.705 54.8727ZM512.648 56.0513C513.299 56.0513 513.827 55.5236 513.827 54.8727C513.827 54.2218 513.299 53.6941 512.648 53.6941C511.997 53.6941 511.47 54.2218 511.47 54.8727C511.47 55.5236 511.997 56.0513 512.648 56.0513Z" fill="#223B7B"/>
<path d="M537.824 93.14C537.124 93.14 536.475 93.014 535.878 92.762C535.28 92.5007 534.758 92.1413 534.31 91.684C533.871 91.2267 533.53 90.6947 533.288 90.088C533.045 89.4813 532.924 88.8327 532.924 88.142C532.924 87.442 533.045 86.7887 533.288 86.182C533.53 85.5753 533.871 85.048 534.31 84.6C534.758 84.1427 535.276 83.788 535.864 83.536C536.461 83.2747 537.11 83.144 537.81 83.144C538.575 83.144 539.247 83.2747 539.826 83.536C540.404 83.7973 540.918 84.152 541.366 84.6L540.456 85.51C540.148 85.1647 539.77 84.894 539.322 84.698C538.883 84.502 538.379 84.404 537.81 84.404C537.296 84.404 536.825 84.4973 536.396 84.684C535.966 84.8613 535.593 85.118 535.276 85.454C534.958 85.79 534.711 86.1867 534.534 86.644C534.366 87.1013 534.282 87.6007 534.282 88.142C534.282 88.6833 534.366 89.1827 534.534 89.64C534.711 90.0973 534.958 90.494 535.276 90.83C535.593 91.166 535.966 91.4273 536.396 91.614C536.825 91.7913 537.296 91.88 537.81 91.88C538.416 91.88 538.944 91.782 539.392 91.586C539.84 91.3807 540.218 91.1053 540.526 90.76L541.436 91.656C540.988 92.1227 540.46 92.4867 539.854 92.748C539.256 93.0093 538.58 93.14 537.824 93.14ZM546.092 93L550.068 83.284H551.02L554.982 93H553.554L550.292 84.782H550.782L547.492 93H546.092ZM547.982 90.802V89.654H553.092V90.802H547.982ZM561.722 93V83.564H563.038V93H561.722ZM558.418 84.488V83.284H566.328V84.488H558.418ZM571.896 93V83.284H573.212V93H571.896ZM572.792 93V91.796H578.364V93H572.792ZM572.792 88.604V87.456H577.902V88.604H572.792ZM572.792 84.488V83.284H578.294V84.488H572.792ZM585.036 88.772V87.666H587.668C588.237 87.666 588.676 87.5213 588.984 87.232C589.292 86.9427 589.446 86.5507 589.446 86.056C589.446 85.5893 589.292 85.202 588.984 84.894C588.685 84.586 588.251 84.432 587.682 84.432H585.036V83.284H587.724C588.34 83.284 588.877 83.4053 589.334 83.648C589.791 83.8813 590.141 84.2033 590.384 84.614C590.636 85.0247 590.762 85.496 590.762 86.028C590.762 86.5787 590.636 87.0593 590.384 87.47C590.141 87.8807 589.791 88.2027 589.334 88.436C588.877 88.66 588.34 88.772 587.724 88.772H585.036ZM584.154 93V83.284H585.47V93H584.154ZM589.754 93L586.226 88.646L587.472 88.212L591.42 93H589.754ZM596.781 93V83.284H598.097V93H596.781ZM597.677 93V91.796H603.249V93H597.677ZM597.677 88.604V87.456H602.787V88.604H597.677ZM597.677 84.488V83.284H603.179V84.488H597.677ZM609.921 88.772V87.666H612.553C613.122 87.666 613.561 87.5213 613.869 87.232C614.177 86.9427 614.331 86.5507 614.331 86.056C614.331 85.5893 614.177 85.202 613.869 84.894C613.57 84.586 613.136 84.432 612.567 84.432H609.921V83.284H612.609C613.225 83.284 613.761 83.4053 614.219 83.648C614.676 83.8813 615.026 84.2033 615.269 84.614C615.521 85.0247 615.647 85.496 615.647 86.028C615.647 86.5787 615.521 87.0593 615.269 87.47C615.026 87.8807 614.676 88.2027 614.219 88.436C613.761 88.66 613.225 88.772 612.609 88.772H609.921ZM609.039 93V83.284H610.355V93H609.039ZM614.639 93L611.111 88.646L612.357 88.212L616.305 93H614.639ZM627.659 93L631.635 83.284H632.587L636.549 93H635.121L631.859 84.782H632.349L629.059 93H627.659ZM629.549 90.802V89.654H634.659V90.802H629.549ZM642.893 89.22V88.072H645.539C645.903 88.072 646.225 87.9973 646.505 87.848C646.795 87.6987 647.019 87.4887 647.177 87.218C647.345 86.9473 647.429 86.6253 647.429 86.252C647.429 85.8787 647.345 85.5567 647.177 85.286C647.019 85.0153 646.795 84.8053 646.505 84.656C646.225 84.5067 645.903 84.432 645.539 84.432H642.893V83.284H645.623C646.221 83.284 646.753 83.4053 647.219 83.648C647.695 83.8907 648.069 84.236 648.339 84.684C648.619 85.1227 648.759 85.6453 648.759 86.252C648.759 86.8493 648.619 87.372 648.339 87.82C648.069 88.2587 647.695 88.604 647.219 88.856C646.753 89.0987 646.221 89.22 645.623 89.22H642.893ZM642.011 93V83.284H643.327V93H642.011ZM655.274 89.22V88.072H657.92C658.284 88.072 658.606 87.9973 658.886 87.848C659.175 87.6987 659.399 87.4887 659.558 87.218C659.726 86.9473 659.81 86.6253 659.81 86.252C659.81 85.8787 659.726 85.5567 659.558 85.286C659.399 85.0153 659.175 84.8053 658.886 84.656C658.606 84.5067 658.284 84.432 657.92 84.432H655.274V83.284H658.004C658.601 83.284 659.133 83.4053 659.6 83.648C660.076 83.8907 660.449 84.236 660.72 84.684C661 85.1227 661.14 85.6453 661.14 86.252C661.14 86.8493 661 87.372 660.72 87.82C660.449 88.2587 660.076 88.604 659.6 88.856C659.133 89.0987 658.601 89.22 658.004 89.22H655.274ZM654.392 93V83.284H655.708V93H654.392Z" fill="#223B7B"/>
</svg>
