<svg width="88" height="88" viewBox="0 0 88 88" fill="none" xmlns="http://www.w3.org/2000/svg">
<g clip-path="url(#clip0_101_51055)">
<rect width="139" height="100" rx="3.94737" transform="matrix(-1 0 0 1 97 -3)" fill="#F0FAF9"/>
<path d="M19.2124 -21.2688L19.7041 -21.1781L19.2124 -21.2688ZM13.8604 -44.9608C16.4624 -43.1998 21.4118 -35.941 18.7207 -21.3595L19.7041 -21.1781C22.4398 -36.0012 17.4613 -43.7312 14.4209 -45.7889L13.8604 -44.9608ZM18.7207 -21.3595C17.0271 -12.1826 14.5083 1.93297 15.5715 13.6854C16.1031 19.561 17.5346 24.9134 20.4708 28.7668C23.4298 32.6502 27.8772 34.9585 34.2931 34.7993L34.2683 33.7996C28.144 33.9516 24.0137 31.7666 21.2662 28.1608C18.4959 24.525 17.0919 19.3923 16.5674 13.5953C15.5187 2.0025 18.006 -11.9771 19.7041 -21.1781L18.7207 -21.3595ZM34.2931 34.7993C46.89 34.4868 57.7155 31.7357 64.8353 27.9336C68.391 26.0348 71.0628 23.8524 72.55 21.5421C74.0518 19.2092 74.35 16.7282 73.1015 14.3506L72.2161 14.8156C73.2674 16.8175 73.0533 18.9129 71.7092 21.0008C70.3506 23.1113 67.8429 25.1939 64.3642 27.0515C57.4151 30.7624 46.7518 33.4899 34.2683 33.7996L34.2931 34.7993ZM73.1015 14.3506C71.8567 11.9802 69.6153 10.8238 67.1515 10.8363C64.7025 10.8487 62.0497 12.0102 59.881 14.2213C55.5229 18.6648 53.119 27.3129 57.8996 39.6919L58.8325 39.3317C54.1475 27.2003 56.5903 19.0046 60.595 14.9215C62.6077 12.8694 65.0155 11.8471 67.1566 11.8362C69.2829 11.8255 71.1611 12.8065 72.2161 14.8156L73.1015 14.3506ZM57.8996 39.6919C67.5016 64.5557 102.88 73.5591 125.856 52.2451L125.176 51.512C102.681 72.3799 68.1616 63.4889 58.8325 39.3317L57.8996 39.6919Z" fill="#D5E6E5"/>
<path d="M37.7325 75C60.3945 75 78.7657 56.6437 78.7657 34C78.7657 11.3563 60.3945 -7 37.7325 -7C15.0704 -7 -3.30078 11.3563 -3.30078 34C-3.30078 56.6437 15.0704 75 37.7325 75Z" fill="#CAEBEA"/>
<path d="M44.9207 62.6705C21.1736 69.459 -1.26138 63.8423 -5.18853 50.124C-5.21975 50.02 -5.24993 49.9056 -5.27802 49.7965C-7.63702 40.8111 -1.50696 30.6216 9.67825 22.7913C9.84683 22.6728 10.0164 22.5553 10.1871 22.4378C10.5048 22.2202 10.8271 22.0043 11.1538 21.7901C16.006 18.6043 21.7188 15.8573 28.0362 13.8049C28.2533 13.7356 28.4715 13.6662 28.6907 13.5969C29.3532 13.389 30.0223 13.1883 30.698 12.9949C31.1316 12.8708 31.5641 12.7513 31.9956 12.6362L32.5159 12.4979C32.8628 12.4078 33.2096 12.3198 33.5565 12.2338L34.0299 12.1195C36.0747 11.6308 38.1049 11.2346 40.1069 10.9279C40.4191 10.8791 40.7313 10.8343 41.0435 10.7907C43.4241 10.4541 45.8207 10.2421 48.2235 10.1554C64.4565 9.58146 77.6012 15.1857 80.7104 25.2316C80.7437 25.3356 80.7739 25.4396 80.8041 25.5435C84.7344 39.2587 68.6678 55.8821 44.9207 62.6705Z" fill="#C1EA3F"/>
<path d="M44.5552 61.3868C20.9944 68.1222 -1.19393 62.9277 -5.27717 49.7937C-5.31047 49.6897 -5.34065 49.5858 -5.37082 49.4818C-7.90464 40.6295 -1.67468 30.4733 9.72281 22.6513C9.89208 22.5356 10.0631 22.4195 10.2358 22.303C10.548 22.0951 10.8539 21.8923 11.1723 21.6885C16.0308 18.5568 21.7374 15.8452 28.0412 13.8052C28.2583 13.7359 28.4765 13.6666 28.6957 13.5973C29.3582 13.3893 30.0273 13.1887 30.703 12.9953C31.1366 12.8712 31.5691 12.7516 32.0006 12.6366L32.5209 12.4983C32.8678 12.4075 33.2146 12.3195 33.5615 12.2342L34.035 12.1198C36.0787 11.6277 38.1022 11.226 40.1057 10.9148C40.413 10.8663 40.7197 10.8202 41.0256 10.7765C43.4032 10.4308 45.7968 10.2063 48.1973 10.1038C64.5802 9.42067 77.7685 14.9198 80.6249 24.9013C80.6561 25.0053 80.6863 25.1197 80.7144 25.2289C84.1879 38.5281 68.1078 54.6534 44.5552 61.3868Z" fill="white"/>
<path d="M44.2407 60.267C66.8945 53.7893 82.2991 38.2034 78.6478 25.455C74.9965 12.7066 53.6721 7.62325 31.0183 14.101C8.36451 20.5788 -7.04005 36.1647 -3.38877 48.9131C0.262507 61.6615 21.587 66.7448 44.2407 60.267Z" fill="#DDF964"/>
<path d="M43.5838 56.4602C62.9344 50.8209 76.0444 37.4214 72.8656 26.5318C69.6869 15.6422 51.4233 11.386 32.0726 17.0253C12.722 22.6647 -0.387982 36.0641 2.79074 46.9538C5.96946 57.8434 24.2331 62.0996 43.5838 56.4602Z" fill="#C1EA3F"/>
<path d="M42.0413 52.5892C57.1609 48.2658 67.4423 37.8635 65.0053 29.355C62.5684 20.8465 48.336 17.4538 33.2164 21.7772C18.0967 26.1006 7.81536 36.503 10.2523 45.0115C12.6892 53.52 26.9216 56.9126 42.0413 52.5892Z" fill="#B7DB21"/>
<path d="M68.6153 35.1905C68.1429 36.6918 68.659 36.9934 68.6903 38.3253C68.7215 39.6572 67.9619 39.7549 67.0628 40.9527C66.1637 42.1505 66.0638 41.6046 65.6695 42.7899C65.2662 44.0583 64.6354 45.2427 63.8079 46.2855C62.9046 47.4063 61.3885 47.6777 60.9171 49.1791C60.4457 50.6805 58.5831 50.5692 57.2335 50.7574C55.8838 50.9456 55.3073 51.5102 54.6497 52.3098C53.9921 53.1093 51.6674 54.8914 50.3916 54.6086C49.1159 54.3258 46.8641 55.6348 45.8578 55.9728C44.8516 56.3107 40.1461 57.5999 38.4458 57.2496C36.7454 56.8992 34.145 57.7445 31.8526 57.4086C29.5602 57.0728 28.3584 56.3159 27.3386 56.1048C26.3188 55.8937 23.0982 55.6577 21.8121 54.7427C20.5259 53.8278 19.5093 53.9349 17.811 53.6625C16.1128 53.39 13.8839 52.1112 12.6685 50.8063C11.4531 49.5014 8.45203 47.8482 7.59563 47.3991C6.73923 46.9499 6.45099 45.4652 6.50406 44.2092C6.55713 42.9531 5.18669 42.2025 4.82248 41.1128C4.74548 40.8851 4.66848 40.6117 4.59459 40.3153C4.31884 39.1987 4.10032 37.7503 4.2179 37.1275C4.22665 37.0742 4.22909 37.0202 4.22519 36.9663C4.22519 36.9549 4.22519 36.9435 4.22519 36.932C4.22519 36.9206 4.22519 36.8863 4.2179 36.8613C4.21062 36.8364 4.2179 36.8218 4.21062 36.8021C4.19709 36.6981 4.17316 36.566 4.14298 36.4236C4.13778 36.3976 4.13153 36.3706 4.12529 36.3435C4.09719 36.2125 4.06286 36.0711 4.02123 35.9193C4.00979 35.8736 3.9973 35.8257 3.98481 35.7779C3.98434 35.7724 3.98434 35.7668 3.98481 35.7613L3.95672 35.6573C3.95672 35.6448 3.94943 35.6313 3.94631 35.6188C3.93174 35.5648 3.91717 35.5086 3.90157 35.4525C3.90121 35.4469 3.90121 35.4414 3.90157 35.4358C3.88075 35.361 3.85994 35.284 3.83809 35.206C3.8375 35.2016 3.8375 35.197 3.83809 35.1925C3.80583 35.075 3.77253 34.9555 3.73403 34.8328L3.70281 34.7288C3.68408 34.6623 3.66535 34.5947 3.64558 34.5271C3.54153 34.1632 3.43747 33.7858 3.33341 33.4094C3.3178 33.3564 3.30323 33.3054 3.28866 33.2493C3.27409 33.1931 3.25849 33.1453 3.24392 33.0881L3.20334 32.9405L3.15651 32.7699L3.10032 32.562C2.94007 31.9558 2.80479 31.3881 2.73195 30.9306C2.72571 30.8922 2.71946 30.8537 2.71426 30.8163C2.69865 30.7029 2.68617 30.5979 2.67992 30.5044C2.67992 30.4721 2.67992 30.4409 2.67472 30.4108C2.66952 30.3806 2.67472 30.3525 2.67472 30.3255C2.67191 30.2274 2.68312 30.1294 2.70802 30.0344C2.78634 29.7392 2.82621 29.4352 2.82664 29.1298C2.85786 27.9653 2.61853 26.335 2.59355 25.2537C2.55921 23.8417 3.02436 22.1053 4.32821 20.0352C4.32821 20.0352 4.87659 18.2178 5.61644 17.3319C6.3563 16.446 8.69448 15.2192 10.0909 13.5389C11.4874 11.8587 12.2293 11.056 14.2533 10.6152C16.2772 10.1743 18.7517 7.76215 20.3521 7.48765C21.9525 7.21316 23.1076 6.01018 25.5644 6.1859C28.0212 6.36162 31.2876 4.87167 33.8089 4.3414C36.3303 3.81114 38.9556 3.82153 40.2418 4.57742C41.528 5.33331 42.2907 5.3905 44.6664 5.64732C47.042 5.90413 48.5654 6.02474 51.0306 6.51446C53.4957 7.00417 58.0025 8.22899 58.709 9.30928C59.4156 10.3896 61.1138 10.82 62.5935 12.5876C62.8266 12.8652 63.0097 13.0929 63.1596 13.2842L63.2407 13.3882L63.272 13.4287C63.3271 13.5015 63.376 13.568 63.4218 13.6304L63.453 13.6741C63.4738 13.7032 63.4936 13.7302 63.5113 13.7573C63.5581 13.8238 63.5997 13.8862 63.6382 13.9444C63.6549 13.9683 63.6695 13.9912 63.683 14.0131C63.7537 14.1222 63.8141 14.221 63.8786 14.325L63.9431 14.429L63.9858 14.4965C64.0295 14.5652 64.0774 14.6379 64.1325 14.719L64.1783 14.7856C64.2085 14.8313 64.2428 14.8792 64.2824 14.9301C64.2851 14.9333 64.2876 14.9368 64.2896 14.9405C64.3417 15.0133 64.3999 15.0923 64.4665 15.1796C64.5571 15.3003 64.6622 15.4365 64.7787 15.5955C65.2388 16.1731 65.6426 16.7931 65.9848 17.4473C66.5155 18.4642 66.8672 19.6006 67.0056 21.0334C67.0763 21.7841 67.195 22.6387 67.3469 23.5111C67.6715 25.367 68.1513 27.3082 68.6799 28.5226C69.4561 30.3068 68.4905 30.0167 68.5113 30.8797C68.5321 31.7427 69.0857 33.6891 68.6153 35.1905Z" fill="white"/>
<path d="M65.6042 25.9678C65.035 27.4463 64.3555 28.4695 64.5792 29.4926C64.8029 30.5157 63.0985 31.5252 61.8633 31.3121C60.6281 31.099 59.1161 32.905 59.0027 34.0154C58.8893 35.1259 58.0912 35.523 57.3284 36.9911C56.5657 38.4593 56.1567 36.8872 53.7665 37.771C51.3763 38.6547 53.1973 39.3898 53.009 41.3695C52.8206 43.3492 50.1245 43.9356 49.1005 43.5134C48.0766 43.0913 46.4835 44.3868 46.9382 46.5536C47.3929 48.7204 45.344 47.1161 43.6375 48.4761C41.9309 49.8361 41.0204 49.5044 40.3576 47.9812C39.6947 46.458 37.2639 48.0259 36.7603 49.7134C36.2566 51.4009 35.5574 49.9588 33.6458 50.5275C31.7343 51.0962 32.1422 50.7552 31.3461 49.7134C30.5501 48.6716 28.5001 50.1875 28.2775 51.2106C28.0548 52.2337 22.2421 49.9629 21.5584 48.4761C20.8748 46.9893 17.5751 47.0028 16.5501 47.9812C15.5251 48.9596 11.8841 47.7597 11.4658 45.1271C11.1474 43.1194 8.71035 42.4872 4.58965 40.3173C4.31389 39.2006 4.09537 37.7522 4.21296 37.1294C4.2217 37.0762 4.22414 37.0221 4.22024 36.9683C4.21966 36.9568 4.21966 36.9454 4.22024 36.934C4.22024 36.9121 4.22024 36.8882 4.21296 36.8633C4.20567 36.8383 4.21296 36.8248 4.20567 36.804C4.19214 36.7 4.16821 36.568 4.13803 36.4255C4.13283 36.3995 4.12659 36.3725 4.12034 36.3455C4.09225 36.2145 4.05791 36.0731 4.01628 35.9213C4.00484 35.8755 3.99235 35.8277 3.97987 35.7799C3.97939 35.7743 3.97939 35.7688 3.97987 35.7632L3.95177 35.6592C3.95177 35.6468 3.94448 35.6333 3.94136 35.6208C3.92679 35.5667 3.91223 35.5106 3.89662 35.4544C3.89626 35.4489 3.89626 35.4433 3.89662 35.4378C3.87581 35.3629 3.855 35.286 3.83314 35.208C3.83256 35.2035 3.83256 35.199 3.83314 35.1945C3.80089 35.077 3.76655 34.9574 3.72909 34.8347C3.71868 34.7994 3.70931 34.763 3.69891 34.7308C3.68018 34.6642 3.66041 34.5966 3.64168 34.5291C3.53762 34.1651 3.43356 33.7877 3.3295 33.4113C3.31389 33.3583 3.29932 33.3074 3.28476 33.2512C3.27019 33.1951 3.25458 33.1472 3.24001 33.09L3.19943 32.9424L3.1526 32.7719L3.09641 32.5639C2.93616 31.9578 2.80088 31.3901 2.72804 30.9326C2.7218 30.8941 2.71556 30.8557 2.71036 30.8182C2.69475 30.7049 2.68226 30.5999 2.67601 30.5063C2.67601 30.4741 2.67602 30.4429 2.67081 30.4127C2.66561 30.3826 2.67081 30.3545 2.67081 30.3275C2.668 30.2293 2.67922 30.1313 2.70411 30.0363C2.78243 29.7412 2.8223 29.4371 2.82274 29.1318C2.85395 27.9673 2.61462 26.3369 2.58965 25.2556C2.55531 23.8437 3.02045 22.1073 4.3243 20.0372C4.3243 20.0372 4.87268 18.2197 5.61254 17.3338C6.35239 16.448 8.69058 15.2211 10.087 13.5409C11.4835 11.8607 12.2254 11.058 14.2494 10.6171C16.2733 10.1763 18.7478 7.7641 20.3482 7.48961C21.9486 7.21511 23.1037 6.01214 25.5605 6.18785C28.0173 6.36357 31.2837 4.87362 33.805 4.34336C36.3264 3.81309 38.9518 3.82349 40.2379 4.57938C41.5241 5.33527 42.2868 5.39245 44.6625 5.64927C47.0381 5.90608 48.5615 6.0267 51.0267 6.51641C53.4918 7.00613 57.9986 8.23094 58.7051 9.31123C59.4117 10.3915 61.1099 10.822 62.5896 12.5895C62.8227 12.8671 63.0058 13.0948 63.1557 13.2861L63.2369 13.3901L63.2681 13.4307C63.3232 13.5035 63.3721 13.57 63.4179 13.6324L63.4491 13.6761C63.4699 13.7052 63.4897 13.7322 63.5074 13.7592C63.5553 13.8268 63.5969 13.8882 63.6344 13.9464C63.651 13.9703 63.6656 13.9932 63.6791 14.015C63.7509 14.1252 63.8113 14.223 63.8747 14.3269L63.9392 14.4309C63.9538 14.4538 63.9684 14.4756 63.9819 14.4985L64.1286 14.721L64.1744 14.7875C64.2056 14.8333 64.24 14.8811 64.2785 14.9321C64.2812 14.9353 64.2837 14.9388 64.2858 14.9425C64.3388 15.0152 64.3971 15.0943 64.4627 15.1816C64.5532 15.3022 64.6583 15.4384 64.7748 15.5975C65.2358 16.1742 65.6407 16.7936 65.984 17.4472C66.5147 18.464 66.8664 19.6005 67.0048 21.0332C67.0756 21.7839 67.1942 22.6386 67.3461 23.5109C67.0215 24.2107 66.036 24.8564 65.6042 25.9678Z" fill="#FFF7E6"/>
<path d="M62.1856 23.3526C62.6112 24.3986 60.7964 23.4202 59.7631 24.7168C58.5841 26.1953 57.7548 26.6497 57.9816 27.8256C58.2085 29.0015 54.6819 31.8806 53.0128 30.7369C51.3437 29.5931 49.6736 31.8806 48.6361 32.7945C47.5987 33.7084 48.0805 33.7043 48.6361 36.0281C49.1918 38.3519 45.6903 36.548 42.8214 37.0065C39.9525 37.465 39.3167 38.0254 38.9712 39.5528C38.6258 41.0802 35.4426 39.9593 34.9598 38.8198C34.477 37.6802 30.8911 38.7085 31.0056 39.5528C31.12 40.3971 30.3219 40.6414 29.5259 42.3258C28.7298 44.0102 27.5914 41.6645 26.5675 41.0833C25.5436 40.5021 25.5415 42.0055 25.5415 43.116C25.5415 44.2264 24.5165 44.163 23.2678 44.1703C22.0191 44.1776 22.5852 42.7978 22.6986 41.363C22.812 39.9282 21.1065 39.27 19.8537 41.363C18.6008 43.456 15.1846 39.1587 14.8391 37.7676C14.4936 36.3764 11.9681 37.0398 11.1221 38.8156C10.2762 40.5915 6.98583 37.2248 7.30841 35.737C7.63099 34.2491 5.9619 33.3591 4.88802 34.6972C4.6133 35.0393 4.22205 35.0518 3.71736 34.8386C3.70696 34.8033 3.69759 34.7669 3.68719 34.7347C3.66846 34.6681 3.64869 34.6005 3.62996 34.5329C3.5259 34.169 3.42184 33.7916 3.31778 33.4152C3.30217 33.3622 3.2876 33.3113 3.27304 33.2551C3.25847 33.199 3.24286 33.1511 3.22829 33.0939L3.18771 32.9463L3.14088 32.7758L3.08469 32.5678C2.92444 31.9617 2.78917 31.394 2.71632 30.9365C2.71008 30.898 2.70384 30.8596 2.69863 30.8221C2.68302 30.7088 2.67054 30.6038 2.6643 30.5102C2.6643 30.478 2.6643 30.4468 2.65909 30.4166C2.65389 30.3865 2.65909 30.3584 2.65909 30.3314C2.65629 30.2332 2.6675 30.1352 2.69239 30.0402C2.77071 29.7451 2.81058 29.441 2.81102 29.1357C2.84224 27.9712 2.6029 26.3408 2.57793 25.2595C2.54359 23.8476 3.00873 22.1112 4.31258 20.0411C4.31258 20.0411 4.86096 18.2236 5.60082 17.3378C6.34067 16.4519 8.67886 15.225 10.0753 13.5448C11.4718 11.8646 12.2137 11.0619 14.2376 10.621C16.2616 10.1802 18.7361 7.768 20.3365 7.49351C21.9369 7.21902 23.092 6.01604 25.5488 6.19176C28.0056 6.36747 31.272 4.87753 33.7933 4.34726C36.3146 3.817 38.94 3.82739 40.2262 4.58328C41.5123 5.33917 42.2751 5.39636 44.6507 5.65317C47.0264 5.90999 48.5498 6.0306 51.0149 6.52032C53.4801 7.01003 57.9868 8.23484 58.6934 9.31513C59.3999 10.3954 61.0982 10.8259 62.5779 12.5934C62.811 12.871 62.9941 13.0987 63.1439 13.2901L63.2251 13.394L63.2563 13.4346C62.8203 13.4148 62.351 13.3857 61.8703 13.3691C59.2688 13.2786 60.8422 14.5242 60.4884 17.4396C60.1346 20.3551 60.6028 20.851 61.8703 22.7839C61.9926 22.9634 62.0982 23.1538 62.1856 23.3526Z" fill="#F4EAD3"/>
<g style="mix-blend-mode:multiply" opacity="0.75">
<g style="mix-blend-mode:multiply" opacity="0.75">
<path d="M10.1053 36.7075C7.39353 34.2808 5.83891 40.3872 7.77751 40.2208C9.71611 40.0545 12.2208 39.204 10.7338 41.5455C9.2468 43.8869 9.47261 46.244 10.4684 45.6867C11.4643 45.1294 12.0439 42.8098 13.4632 44.1708C14.8826 45.5318 16.2811 46.2097 17.1469 45.1669C18.0127 44.124 20.098 43.0593 20.3966 45.3655C20.6953 47.6716 23.3914 48.9723 24.9325 47.0561C26.4736 45.1398 28.1136 45.3925 25.6089 44.1708C23.1042 42.9491 21.816 45.143 21.1344 42.8711C20.4528 40.5993 23.2457 40.7241 20.3196 38.9815C17.3935 37.2389 17.1521 36.3395 14.8389 37.7681C12.5257 39.1967 11.4341 37.8991 10.1053 36.7075Z" fill="#FFEBC7"/>
</g>
<g style="mix-blend-mode:multiply" opacity="0.75">
<path d="M59.1239 28.6829C61.5692 29.1508 60.9574 26.7074 62.7898 27.2273C65.2154 27.9094 63.6514 28.4677 64.5141 30.8986C65.3767 33.3295 66.7857 35.6762 64.1238 35.6762C61.462 35.6762 59.5848 36.0786 60.6015 38.1851C61.6181 40.2916 64.2799 39.0065 61.8502 41.1348C59.4204 43.2632 59.744 47.7455 56.6473 45.5444C53.5505 43.3433 53.1821 41.5435 51.4881 42.8733C49.794 44.2031 51.0718 48.7769 49 47.6675C46.9282 46.5581 42.0771 47.1757 43.7826 44.5941C45.4881 42.0124 46.8367 40.7709 48.589 41.5476C50.3414 42.3243 52.8315 41.8013 52.6473 39.4432C52.4631 37.0851 54.589 33.4699 55.4433 36.1368C56.2976 38.8037 59.3288 34.2653 57.7732 32.739C56.2175 31.2126 57.333 28.3398 59.1239 28.6829Z" fill="#FFEBC7"/>
</g>
</g>
<path d="M14.2232 29.7285C9.81428 32.4921 8.86631 33.4165 10.2794 34.9875C11.6925 36.5586 14.7872 35.9077 14.0401 37.8322C13.293 39.7568 15.6998 40.5127 18.2534 39.5093C20.807 38.506 20.7591 39.3399 23.6707 38.715C26.5822 38.0901 28.3668 36.7239 25.8694 33.9998C23.372 31.2756 14.2232 29.7285 14.2232 29.7285Z" fill="#FF540E"/>
<path d="M40.4473 30.8971C42.5825 33.6773 40.1018 34.5476 42.3515 37.3954C44.6013 40.2433 45.5357 38.3146 47.2589 36.7071C48.9821 35.0997 47.4181 35.7797 50.4629 34.9874C53.5076 34.1951 56.7345 30.4708 53.4161 28.6824C50.0976 26.8941 46.5659 27.283 45.0914 27.8506C43.6169 28.4183 40.4473 30.8971 40.4473 30.8971Z" fill="#FF540E"/>
<path d="M59.8574 19.267C57.2403 21.8258 58.3766 24.8275 60.6035 24.7485C62.8303 24.6695 62.5525 23.6869 64.0135 23.1359C65.4744 22.5848 67.463 20.5105 64.8209 18.4331C62.1789 16.3557 59.8574 19.267 59.8574 19.267Z" fill="#FF540E"/>
<path d="M65.984 17.4473C65.8655 17.5928 65.7036 17.6967 65.5219 17.7436C64.4533 17.9131 63.3076 19.3656 63.2493 21.5782C63.2212 22.6637 62.7363 23.1108 62.1817 23.353C61.6052 23.6047 60.9517 23.6369 60.651 23.9374C60.0599 24.5279 58.9632 24.3075 57.8476 24.7577C56.7321 25.2079 56.2233 25.707 56.0787 27.773C55.934 29.8389 51.2524 29.2608 50.0922 29.3929C48.9319 29.5249 47.2223 30.2808 48.6354 31.4516C50.0485 32.6223 44.8612 34.7049 43.9881 34.0447C43.1151 33.3844 40.728 33.6724 40.2847 34.4512C39.8414 35.23 34.9632 37.4768 33.6333 36.9757C32.3034 36.4745 31.0048 38.2109 28.7218 37.3167C26.4387 36.4226 25.522 35.5887 23.4554 35.8507C21.3888 36.1127 21.6864 36.3259 20.3555 36.3487C19.0246 36.3716 19.7655 35.884 17.4741 34.3732C15.1828 32.8625 16.6656 34.4065 14.4564 34.7995C12.2473 35.1925 13.419 34.2599 13.3357 33.74C13.2525 33.2202 12.2379 32.3437 11.0745 32.4289C9.91117 32.5142 5.59068 32.8063 5.59588 31.0773C5.59588 29.9065 4.26705 29.2286 2.80712 29.1298C2.83833 27.9653 2.599 26.335 2.57403 25.2537C2.54697 24.1422 2.82897 22.8311 3.58651 21.3131C3.79463 20.9024 4.03084 20.4761 4.30868 20.0352C4.30868 20.0352 4.85706 18.2178 5.59692 17.3319C6.33677 16.446 8.67496 15.2192 10.0714 13.5389C11.4679 11.8587 12.2098 11.056 14.2337 10.6152C16.2577 10.1743 18.7322 7.76215 20.3326 7.48766C21.933 7.21316 23.0881 6.01018 25.5449 6.1859C28.0017 6.36162 31.2681 4.87167 33.7894 4.3414C36.3107 3.81114 38.9361 3.82153 40.2223 4.57742C41.5084 5.33331 42.2712 5.3905 44.6468 5.64732C47.0225 5.90413 48.5459 6.02474 51.011 6.51446C53.4762 7.00418 57.9829 8.22899 58.6895 9.30928C59.396 10.3896 61.0943 10.82 62.574 12.5876C62.8071 12.8652 62.9902 13.0929 63.14 13.2842L63.2212 13.3882L63.2524 13.4287L63.3669 13.5816L63.4023 13.6294L63.4335 13.6731C63.4543 13.7022 63.4741 13.7292 63.4918 13.7562C63.5396 13.8238 63.5813 13.8852 63.6187 13.9434C63.6354 13.9673 63.6499 13.9902 63.6635 14.012C63.7353 14.1222 63.7956 14.22 63.8591 14.3239L63.9236 14.4279C63.9382 14.4508 63.9527 14.4726 63.9663 14.4955L64.113 14.718L64.1588 14.7845C64.19 14.8303 64.2243 14.8781 64.2628 14.9291C64.2656 14.9323 64.268 14.9358 64.2701 14.9395C64.3232 15.0122 64.3815 15.0913 64.447 15.1786C64.5375 15.2992 64.6426 15.4354 64.7592 15.5945C65.2258 16.1716 65.6359 16.792 65.984 17.4473Z" fill="#B2775F"/>
<path d="M63.3632 13.5869C63.0984 14.3763 62.7856 15.1489 62.4267 15.9003C61.025 18.7273 61.0801 14.1878 58.1415 14.0652C55.2029 13.9425 57.6525 15.656 59.4891 17.1688C61.3257 18.6816 59.4891 19.4479 57.7753 21.4047C56.0614 23.3615 53.8575 19.3252 54.102 17.1688C54.3465 15.0124 51.5318 17.2457 51.1644 19.0809C50.7971 20.916 49.5724 18.9582 48.716 17.7354C47.8596 16.5127 46.6348 19.8149 48.5932 20.7746C50.5515 21.7343 53.6129 20.1819 54.9594 22.2614C56.306 24.3409 52.0208 25.4409 50.5515 23.9759C49.0822 22.511 47.2467 24.9523 47.3882 27.719C47.5297 30.4857 45.5359 28.5009 43.5776 26.7739C41.6192 25.0469 41.8637 28.374 41.4964 30.7249C41.1291 33.0757 38.9262 31.0618 38.8034 29.8214C38.6806 28.5809 37.947 27.8812 36.3549 26.7708C34.7628 25.6603 35.743 29.5936 37.0895 31.4288C38.4361 33.2639 35.0084 33.8753 32.9106 33.9813C30.8128 34.0874 33.7847 32.0402 32.0708 29.8224C30.357 27.6046 29.1322 31.5567 29.3768 33.972C29.6213 36.3873 26.9283 34.0053 25.3372 31.9258C23.7462 29.8463 23.7462 33.2712 22.2769 33.2774C20.8076 33.2837 20.1957 32.0526 24.1135 29.8338C28.0313 27.615 22.2769 26.0596 19.3383 26.1043C16.3997 26.149 19.4611 28.6277 18.4819 30.7374C17.5027 32.847 15.2987 30.2175 15.7888 27.7284C16.279 25.2392 12.3601 27.5266 11.5037 29.8338C10.6473 32.141 6.85128 28.8721 8.56512 27.7284C10.279 26.5846 9.78989 23.9801 8.56512 24.0789C7.34036 24.1777 7.58593 26.6699 5.50477 25.8475C3.42361 25.025 9.91267 20.4273 5.50477 21.4057C4.76596 21.57 4.12704 21.5201 3.58594 21.3111C3.79405 20.9004 4.03027 20.4741 4.3081 20.0333C4.3081 20.0333 4.85649 18.2158 5.59634 17.3299C6.33619 16.4441 8.67438 15.2172 10.0708 13.537C11.4673 11.8568 12.2092 11.0541 14.2332 10.6132C16.2571 10.1724 18.7316 7.76019 20.332 7.4857C21.9324 7.21121 23.0875 6.00823 25.5443 6.18394C28.0011 6.35966 31.2675 4.86972 33.7888 4.33945C36.3101 3.80918 38.9355 3.81958 40.2217 4.57547C41.5078 5.33136 42.2706 5.38855 44.6462 5.64536C47.0219 5.90218 48.5453 6.02279 51.0104 6.5125C53.4756 7.00222 57.9823 8.22703 58.6889 9.30732C59.3954 10.3876 61.0937 10.8181 62.5734 12.5856C62.8065 12.8632 62.9896 13.0909 63.1395 13.2822L63.2206 13.3862L63.2518 13.4268L63.3632 13.5869Z" fill="#A36854"/>
<path d="M52.5704 26.8924C47.2624 29.5375 38.8212 30.0803 38.0449 27.5017C37.6485 26.5046 38.3321 25.234 39.4799 23.9604L39.4861 23.952C41.2489 22.0244 43.8566 20.1154 45.946 18.9509C49.2811 17.0794 50.9408 17.6835 53.7015 19.3668C53.7889 19.425 53.8773 19.4864 53.9647 19.5477C56.7202 21.3579 57.9855 24.2265 52.5704 26.8924Z" fill="#E62A11"/>
<path d="M51.3306 25.6211C46.57 28.0644 39.1267 28.6363 38.546 26.3614C38.2963 25.6335 38.7042 24.7342 39.4628 23.7911L39.469 23.7828C41.238 21.9643 43.8561 20.1198 45.9415 18.9428C49.2869 17.0526 50.8447 17.4664 53.2609 19.0021C55.3473 20.6532 56.0195 23.2442 51.3306 25.6211Z" fill="#FF540E"/>
<path d="M48.7414 19.0791C48.6863 19.9265 50.5832 19.1113 51.424 20.5565C52.4157 21.9706 50.5916 23.2838 50.0057 23.6924C49.4854 24.0885 50.1472 24.7675 51.2273 24.1083C52.7591 23.1673 53.6134 21.7169 52.9172 20.4879C52.2513 19.2475 51.244 18.8067 50.2721 18.554C49.3741 18.3159 48.809 18.6185 48.7414 19.0791Z" fill="#E32A12"/>
<path d="M49.6613 19.01C49.5291 19.2335 49.3283 19.3957 49.2336 19.3666C49.1389 19.3375 49.1909 19.1295 49.3314 18.9039C49.4719 18.6783 49.6436 18.5244 49.7289 18.5546C49.8142 18.5847 49.7945 18.7864 49.6613 19.01Z" fill="#FF9A6F"/>
<path d="M51.188 19.4965C51.0143 19.6867 50.7885 19.8084 50.7073 19.7512C50.6261 19.694 50.7198 19.4985 50.8936 19.3083C51.0673 19.118 51.2567 19.0099 51.3379 19.0618C51.419 19.1138 51.3639 19.3041 51.188 19.4965Z" fill="#FF9A6F"/>
<path d="M52.2497 20.6252C51.9761 20.7489 51.7055 20.7853 51.6639 20.7032C51.6223 20.621 51.8137 20.4547 52.0801 20.3341C52.3465 20.2135 52.5879 20.1812 52.641 20.2592C52.6941 20.3372 52.5245 20.5015 52.2497 20.6252Z" fill="#FF9A6F"/>
<path d="M52.3323 22.1264C51.9878 22.1753 51.7204 22.1337 51.7371 22.0359C51.7537 21.9382 52.0388 21.8228 52.3708 21.777C52.7027 21.7313 52.966 21.7698 52.9618 21.8654C52.9577 21.9611 52.6767 22.0775 52.3323 22.1264Z" fill="#FF9A6F"/>
<path d="M50.739 23.7418C50.4851 23.6316 50.3925 23.4632 50.5194 23.3706C50.6464 23.2781 50.945 23.2947 51.1989 23.4049C51.4528 23.5151 51.5652 23.6763 51.4382 23.7699C51.3113 23.8635 50.995 23.852 50.739 23.7418Z" fill="#FF9A6F"/>
<path d="M46.682 20.3184C47.092 20.9724 44.3792 21.9529 43.9214 23.763C43.5717 25.5649 46.5541 25.1511 47.2169 25.1147C47.8964 25.0804 47.7372 26.0505 46.2627 26.2813C44.1878 26.614 41.7622 26.3551 41.731 24.992C41.6997 23.6289 43.1784 22.3573 44.5145 21.2427C45.7642 20.2019 46.4916 19.9628 46.682 20.3184Z" fill="#E32A12"/>
<path d="M45.5363 21.0486C45.7871 21.1141 46.0816 21.0819 46.1846 20.9779C46.2876 20.8739 46.1669 20.7388 45.9244 20.6712C45.682 20.6036 45.4042 20.6327 45.2897 20.7367C45.1752 20.8407 45.2834 20.9831 45.5363 21.0486Z" fill="#FF9A6F"/>
<path d="M43.6253 22.7847C43.9936 22.7649 44.3599 22.6588 44.4442 22.5486C44.5285 22.4384 44.31 22.3646 43.9551 22.3812C43.6003 22.3979 43.233 22.5019 43.1362 22.6141C43.0394 22.7264 43.2579 22.8044 43.6253 22.7847Z" fill="#FF9A6F"/>
<path d="M42.8113 24.5093C43.289 24.3617 43.6688 24.1652 43.6761 24.0706C43.6833 23.976 43.3233 24.0165 42.8561 24.1621C42.3889 24.3076 41.982 24.5052 41.9654 24.6019C41.9487 24.6986 42.3337 24.657 42.8113 24.5093Z" fill="#FF9A6F"/>
<path d="M43.7441 25.6297C44.203 25.3968 44.4902 25.1629 44.41 25.1036C44.3299 25.0443 43.9126 25.1816 43.4548 25.4155C42.9969 25.6495 42.6723 25.8855 42.7524 25.9458C42.8325 26.0061 43.2852 25.8585 43.7441 25.6297Z" fill="#FF9A6F"/>
<path d="M46.2266 25.6912C46.4181 25.4271 46.4201 25.2295 46.2401 25.2472C46.0601 25.2649 45.7583 25.4926 45.5534 25.7577C45.3484 26.0228 45.3307 26.2256 45.5232 26.2058C45.7157 26.1861 46.0351 25.9553 46.2266 25.6912Z" fill="#FF9A6F"/>
<path d="M21.2216 14.7969C17.1634 17.2226 12.7857 15.7524 10.8575 13.571C10.0791 12.7174 9.77421 11.9345 9.95111 11.293C10.2092 10.3094 11.6296 9.64601 14.1551 8.84542C18.2737 7.66947 23.2268 5.84057 25.0583 6.6838C25.1218 6.71445 25.1834 6.74918 25.2425 6.78777C26.9979 7.82439 25.2341 12.4169 21.2216 14.7969Z" fill="#E62A11"/>
<path d="M20.4587 13.7205C16.518 16.008 12.3536 14.7488 10.62 12.8534C10.0435 12.2431 9.78754 11.666 9.83333 11.1659C10.1663 10.2717 11.6346 9.65308 14.1517 8.84416C18.2475 7.65158 23.0706 5.72495 24.773 6.45277C26.0862 7.4977 24.2371 11.5631 20.4587 13.7205Z" fill="#FF540E"/>
<path d="M18.2351 8.59006C18.0998 9.34699 20.9614 8.04732 21.5213 9.12761C22.0821 10.3202 19.975 11.858 19.4984 12.1636C19.0208 12.5099 19.5577 13.0651 20.5514 12.4173C21.9604 11.5086 23.4068 9.71402 23.3256 8.51936C23.2445 7.3247 22.0769 7.39228 20.6201 7.60023C19.2674 7.79674 18.3069 8.21368 18.2351 8.59006Z" fill="#E32A12"/>
<path d="M19.5871 8.26157C19.3529 8.50279 19.0584 8.6941 18.9273 8.69514C18.7962 8.69618 18.8795 8.51319 19.1136 8.27925C19.3477 8.04531 19.6443 7.84256 19.7754 7.83424C19.9065 7.82592 19.8212 8.02036 19.5871 8.26157Z" fill="#FF9A6F"/>
<path d="M21.6117 8.14214C21.2995 8.41039 20.9686 8.59858 20.876 8.57675C20.7834 8.55491 20.9623 8.33553 21.2776 8.07352C21.5929 7.8115 21.9217 7.60148 22.0133 7.61811C22.1049 7.63475 21.9249 7.87493 21.6117 8.14214Z" fill="#FF9A6F"/>
<path d="M22.48 8.92149C22.1064 9.14919 21.7828 9.26356 21.7609 9.19598C21.7391 9.1284 22.0263 8.90173 22.4009 8.67611C22.7755 8.45049 23.095 8.30597 23.1168 8.37459C23.1387 8.44321 22.8525 8.69482 22.48 8.92149Z" fill="#FF9A6F"/>
<path d="M22.019 10.4295C21.6569 10.5543 21.3946 10.5668 21.4384 10.4711C21.4821 10.3755 21.8109 10.2039 22.173 10.0729C22.5351 9.94189 22.7974 9.90966 22.7505 10.0105C22.7037 10.1114 22.377 10.3058 22.019 10.4295Z" fill="#FF9A6F"/>
<path d="M20.1669 12.1442C19.9494 12.0714 19.8765 11.9363 20.0045 11.8479C20.1325 11.7595 20.4145 11.7377 20.6289 11.8053C20.8432 11.8728 20.9171 12.0049 20.7881 12.1016C20.6591 12.1983 20.3833 12.218 20.1669 12.1442Z" fill="#FF9A6F"/>
<path d="M15.6302 9.78135C16.2015 10.3012 13.4283 10.8928 13.8393 12.0532C14.2233 13.3185 16.5209 13.3476 17.1047 13.3009C17.6812 13.2925 17.6094 14.0526 16.5147 14.1119C14.9632 14.2002 13.1099 13.5712 12.4314 12.573C11.753 11.5749 12.3607 10.9854 13.3888 10.3428C14.3419 9.75016 15.317 9.53182 15.6302 9.78135Z" fill="#E32A12"/>
<path d="M14.4898 10.2873C14.802 10.3456 15.135 10.3279 15.2255 10.2551C15.316 10.1823 15.1319 10.0867 14.8093 10.0357C14.4867 9.98478 14.161 9.99101 14.0726 10.0576C13.9841 10.1241 14.1735 10.2291 14.4898 10.2873Z" fill="#FF9A6F"/>
<path d="M13.1582 11.3229C13.5141 11.3614 13.8387 11.3229 13.8866 11.2574C13.9345 11.1919 13.6785 11.1149 13.3153 11.0827C12.9521 11.0505 12.6348 11.0661 12.5942 11.1295C12.5536 11.1929 12.8023 11.2823 13.1582 11.3229Z" fill="#FF9A6F"/>
<path d="M13.1475 12.425C13.5013 12.398 13.7718 12.3086 13.7396 12.242C13.7073 12.1755 13.3941 12.1568 13.0393 12.1838C12.6844 12.2108 12.4253 12.2753 12.4555 12.3418C12.4857 12.4084 12.7937 12.4521 13.1475 12.425Z" fill="#FF9A6F"/>
<path d="M14.3485 13.3621C14.6461 13.2581 14.8209 13.1199 14.7345 13.0689C14.6482 13.018 14.3339 13.0689 14.0373 13.1656C13.7408 13.2623 13.5743 13.3819 13.6586 13.4391C13.7429 13.4962 14.0509 13.4661 14.3485 13.3621Z" fill="#FF9A6F"/>
<path d="M16.3841 13.6732C16.4882 13.4923 16.459 13.3447 16.3113 13.3457C16.1635 13.3467 15.9575 13.4902 15.8524 13.6649C15.7473 13.8396 15.7806 13.9862 15.9263 13.9914C16.0719 13.9966 16.2769 13.8573 16.3841 13.6732Z" fill="#FF9A6F"/>
<path d="M14.6314 24.3744C9.96437 26.5318 5.27655 29.1967 3.81557 26.5973C3.20891 25.622 3.15272 24.0864 3.59289 22.5288C3.59289 22.5288 3.59289 22.5226 3.59289 22.5184C4.24429 20.1499 6.083 17.8843 8.63138 17.2022C12.7781 16.098 16.7614 18.9698 18.699 20.3714C18.7646 20.4223 18.8291 20.4753 18.8894 20.5242C20.8332 22.0225 19.3234 22.14 14.6314 24.3744Z" fill="#E62A11"/>
<path d="M13.929 23.4089C9.54088 25.2711 5.11112 27.6136 3.79791 25.2804C3.35046 24.5526 3.26825 23.4921 3.51071 22.3536C3.51071 22.3536 3.51071 22.3473 3.51071 22.3442C4.21831 20.0921 6.08927 17.8962 8.63245 17.2006C12.7698 16.0683 16.6543 18.7675 18.4139 20.0984C19.8249 21.3876 18.185 21.5415 13.929 23.4089Z" fill="#FF540E"/>
<path d="M12.3864 18.0993C12.1783 18.6774 14.8703 18.8272 15.3396 19.9345C15.8453 20.9139 13.6612 21.5159 13.1273 21.8694C12.6071 22.1647 13.0774 22.7095 14.1565 22.2583C15.6872 21.6157 17.1825 21.0522 17.0784 20.3701C16.9827 19.6673 15.9005 19.006 14.6018 18.377C13.3948 17.7895 12.504 17.7552 12.3864 18.0993Z" fill="#E32A12"/>
<path d="M13.6285 18.3859C13.3975 18.4795 13.1082 18.5283 12.9927 18.4763C12.8772 18.4244 12.9719 18.2861 13.2008 18.1842C13.4297 18.0823 13.7138 18.0615 13.8251 18.1207C13.9365 18.18 13.8595 18.2913 13.6285 18.3859Z" fill="#FF9A6F"/>
<path d="M15.4646 19.2789C15.167 19.3059 14.8517 19.2965 14.7685 19.2373C14.6852 19.178 14.8642 19.0896 15.1629 19.0616C15.4615 19.0335 15.7654 19.0761 15.8486 19.1364C15.9318 19.1967 15.7633 19.2518 15.4646 19.2789Z" fill="#FF9A6F"/>
<path d="M16.2554 20.2182C15.8922 20.1953 15.579 20.1433 15.5613 20.0851C15.5436 20.0268 15.8246 19.9905 16.1857 20.0206C16.5468 20.0508 16.8517 20.1246 16.8725 20.1797C16.8933 20.2348 16.6196 20.241 16.2554 20.2182Z" fill="#FF9A6F"/>
<path d="M15.7547 21.0543C15.3915 21.02 15.1304 20.9503 15.1824 20.889C15.2344 20.8277 15.5601 20.8131 15.9212 20.8588C16.2823 20.9046 16.5383 20.9847 16.4935 21.0335C16.4488 21.0824 16.1189 21.0907 15.7547 21.0543Z" fill="#FF9A6F"/>
<path d="M13.798 21.9527C13.5898 21.8487 13.5305 21.7156 13.6679 21.6574C13.8052 21.5992 14.0841 21.6407 14.2922 21.7437C14.5003 21.8466 14.5638 21.9693 14.4265 22.0265C14.2891 22.0837 14.0061 22.0535 13.798 21.9527Z" fill="#FF9A6F"/>
<path d="M9.80605 18.6486C10.267 19.2371 7.44913 19.9514 7.51677 21.8718C7.58025 23.6914 9.95902 23.0488 10.5501 23.028C11.1349 22.9843 10.9372 23.8224 9.7842 24.1541C8.15569 24.6199 6.31906 24.7363 5.89346 23.3171C5.46786 21.8978 6.33051 20.3902 7.51781 19.3297C8.62083 18.3388 9.56256 18.3003 9.80605 18.6486Z" fill="#E32A12"/>
<path d="M8.60781 19.2063C8.90022 19.2905 9.21968 19.2864 9.32166 19.2001C9.42364 19.1138 9.26963 18.9713 8.97827 18.8788C8.6869 18.7862 8.36744 18.7842 8.26442 18.8788C8.1614 18.9734 8.31541 19.1221 8.60781 19.2063Z" fill="#FF9A6F"/>
<path d="M7.01776 20.8989C7.37052 20.8667 7.70662 20.7554 7.76802 20.6462C7.82941 20.5371 7.59216 20.4612 7.2394 20.482C6.88664 20.5027 6.55157 20.6213 6.49018 20.7419C6.42878 20.8625 6.665 20.9311 7.01776 20.8989Z" fill="#FF9A6F"/>
<path d="M6.69729 22.7105C7.0771 22.515 7.37575 22.2946 7.36326 22.1989C7.35077 22.1033 7.03132 22.1646 6.65151 22.3518C6.2717 22.5389 5.97618 22.7885 5.98866 22.8914C6.00115 22.9943 6.31852 22.9049 6.69729 22.7105Z" fill="#FF9A6F"/>
<path d="M7.7019 23.7462C8.04008 23.4696 8.2534 23.2211 8.17744 23.1681C8.10147 23.115 7.76121 23.2804 7.42719 23.558C7.09316 23.8356 6.8788 24.1184 6.95477 24.1704C7.03073 24.2224 7.36371 24.0227 7.7019 23.7462Z" fill="#FF9A6F"/>
<path d="M9.74034 23.6094C9.88811 23.3516 9.88499 23.1696 9.7341 23.1935C9.58321 23.2174 9.34179 23.4493 9.19403 23.7134C9.04626 23.9775 9.04835 24.1782 9.19403 24.1428C9.33971 24.1074 9.59258 23.8621 9.74034 23.6094Z" fill="#FF9A6F"/>
<path d="M23.1167 9.12839C21.6235 9.20221 26.5704 6.68501 26.2863 8.26437C26.0023 9.84373 26.8909 10.1359 27.3373 9.12839C27.7837 8.12089 27.8899 6.45522 28.4206 7.44297C28.9513 8.43073 27.7837 9.5838 28.8899 9.71377C29.996 9.84373 30.5673 9.71376 30.2197 8.6106C29.8722 7.50744 31.1625 6.27743 31.5621 7.77881C31.9617 9.28019 33.0283 11.028 34.277 10.1567C35.5256 9.28539 37.3987 8.56485 37.3238 9.75431C37.2489 10.9438 39.2624 11.3139 40.0355 10.5133C40.8087 9.71272 41.0324 6.80042 42.304 7.82768C43.5756 8.85494 45.0667 8.7073 44.0438 10.1931C43.021 11.6789 45.4476 12.3485 46.2624 11.5531C47.0771 10.7577 48.2738 12.0615 48.2738 12.0615C48.2738 12.0615 50.6151 13.357 47.1864 14.6983C44.4809 15.7557 46.6661 17.4567 49.1021 16.5209C49.6224 16.3192 50.2384 18.067 49.7265 18.5495C48.9023 19.323 50.9335 18.9227 51.8326 19.2295C52.638 19.5039 52.3747 20.5146 50.9502 20.6851C48.9002 20.9357 48.4798 19.5091 47.9325 19.4738C47.1146 19.4208 47.2853 20.6529 46.3716 19.9001C43.9023 17.8705 44.7067 21.2653 43.5797 19.7524C43.0543 19.0444 42.3758 20.4137 43.0678 20.7672C44.6151 21.5574 44.6588 23.1274 43.0033 22.5743C42.1281 22.2821 42.6724 24.3689 41.3144 24.1692C38.5974 23.771 39.7535 23.2792 37.8233 23.4643C35.893 23.6494 34.8815 24.3086 34.9575 24.9615C35.0335 25.6145 32.1125 28.2471 31.9128 26.5357C31.713 24.8243 31.8399 23.0806 30.1802 23.431C28.5205 23.7814 28.5049 25.1154 27.3862 25.2454C26.2676 25.3753 27.0626 23.1077 25.3644 23.874C23.6662 24.6402 24.2874 25.7091 23.1167 24.8981C21.9461 24.0871 23.1063 23.1909 22.0345 22.933C20.9627 22.6751 20.0491 20.526 18.9128 22.1532C17.7765 23.7804 16.8212 24.9272 16.2218 23.8324C15.6225 22.7375 15.2853 21.9016 14.5038 22.933C13.7224 23.9644 12.791 25.1029 12.148 24.0767C11.5049 23.0505 13.1282 22.4568 14.1594 22.2613C15.1906 22.0659 15.0959 19.689 15.7962 20.3648C16.4965 21.0407 17.943 21.4171 18.2572 20.4823C18.5715 19.5476 19.3498 19.0475 17.5163 18.4029C15.6828 17.7582 13.4091 16.21 14.7609 16.2194C16.1126 16.2288 14.4487 14.2096 12.9461 14.8501C11.4435 15.4906 11.2812 13.906 12.3779 13.3476C13.4747 12.7893 16.0938 13.3248 17.0866 14.377C18.0793 15.4292 19.7671 15.2275 19.7213 14.377C19.6755 13.5265 18.7931 11.7101 19.9377 12.8028C21.0824 13.8956 21.6974 14.4664 22.4351 13.539C23.1729 12.6115 23.6838 13.0628 22.4351 11.9014C21.1864 10.74 22.9887 11.4273 23.9409 11.0696C24.893 10.7119 24.4736 9.06081 23.1167 9.12839Z" fill="#935442"/>
<path d="M35.4263 21.4718C32.2525 21.7411 28.9206 21.2098 26.7832 20.3354C24.598 19.4589 23.6116 18.2413 24.0424 17.0779C24.367 16.1421 25.4274 15.328 26.6084 14.6262H26.6157C28.4503 13.5698 30.368 12.7162 32.009 12.3419C33.3618 12.0434 34.5002 12.1641 35.8935 12.6444C37.4734 13.2168 38.9462 14.0497 40.2504 15.1086C40.342 15.1855 40.4346 15.2666 40.5231 15.3467C41.8831 16.5674 42.4804 17.9305 41.6427 19.0981C40.854 20.2595 38.624 21.2243 35.4263 21.4718Z" fill="#E62A11"/>
<path d="M34.9364 19.9736C32.155 20.2532 29.2393 19.8342 27.361 19.1064C25.4432 18.3786 24.5629 17.3389 24.9385 16.3199C25.1706 15.643 25.8532 15.0338 26.6742 14.4858H26.6815C28.4567 13.5293 30.3631 12.7297 32.0062 12.345C33.3589 12.0383 34.4869 12.1027 35.8064 12.503C37.2669 12.9629 38.6268 13.6957 39.8136 14.6626C40.8293 15.7127 41.1664 16.8855 40.3568 17.8858C39.5753 18.8881 37.644 19.7199 34.9364 19.9736Z" fill="#FF540E"/>
<path d="M34.3755 13.3683C34.1497 14.1128 36.3037 13.9922 36.9447 15.5393C37.5972 17.1207 35.1477 17.7082 34.5004 17.8683C33.8761 18.044 34.1986 18.854 35.516 18.6231C37.3818 18.2967 39.08 17.2465 38.7283 15.9198C38.3984 14.5994 37.1549 13.9069 36.0748 13.3756C35.0623 12.8848 34.4942 12.9732 34.3755 13.3683Z" fill="#E32A12"/>
<path d="M35.3276 13.5979C35.1538 13.7569 34.9228 13.838 34.8313 13.7819C34.7397 13.7257 34.8198 13.5552 34.9925 13.3982C35.1653 13.2412 35.3672 13.1549 35.4608 13.21C35.5545 13.2651 35.5014 13.4388 35.3276 13.5979Z" fill="#FF9A6F"/>
<path d="M36.9587 14.5052C36.7059 14.6237 36.4249 14.6591 36.3458 14.5863C36.2667 14.5135 36.4124 14.3628 36.658 14.2453C36.9036 14.1278 37.1606 14.0872 37.248 14.1579C37.3354 14.2286 37.2126 14.3908 36.9587 14.5052Z" fill="#FF9A6F"/>
<path d="M37.8777 15.8512C37.5135 15.8803 37.1993 15.8304 37.1753 15.7473C37.1514 15.6641 37.4188 15.5705 37.7705 15.5393C38.1222 15.5081 38.4365 15.5518 38.4729 15.6433C38.5093 15.7348 38.2419 15.8221 37.8777 15.8512Z" fill="#FF9A6F"/>
<path d="M37.4295 17.2212C37.0352 17.1588 36.7677 17.0382 36.8187 16.9571C36.8697 16.876 37.2162 16.8615 37.6033 16.9218C37.9904 16.9821 38.2776 17.0964 38.2329 17.1807C38.1881 17.2649 37.8239 17.2836 37.4295 17.2212Z" fill="#FF9A6F"/>
<path d="M35.1882 18.1447C34.9801 17.9659 34.9572 17.7891 35.1133 17.7486C35.2694 17.708 35.5576 17.8193 35.7699 17.996C35.9822 18.1728 36.029 18.3516 35.8646 18.3932C35.7002 18.4348 35.3911 18.3256 35.1882 18.1447Z" fill="#FF9A6F"/>
<path d="M32.3767 13.8043C32.5495 14.5186 30.3195 14.5061 29.4371 15.9108C28.5099 17.3362 30.872 17.9819 31.4995 18.1732C32.0947 18.3718 31.5318 19.1464 30.2415 18.847C28.4173 18.4228 26.9262 17.3851 27.4995 16.23C28.0469 15.0717 29.3934 14.4624 30.5765 13.9134C31.6775 13.406 32.2768 13.4248 32.3767 13.8043Z" fill="#E32A12"/>
<path d="M31.3565 14.0777C31.5292 14.218 31.7644 14.2856 31.8664 14.2274C31.9684 14.1692 31.8976 14.0101 31.7249 13.8708C31.5521 13.7315 31.3419 13.6628 31.241 13.7231C31.1401 13.7834 31.1838 13.9384 31.3565 14.0777Z" fill="#FF9A6F"/>
<path d="M29.5529 14.9706C29.8078 15.0746 30.1002 15.1027 30.1918 15.034C30.2834 14.9654 30.146 14.8261 29.8973 14.7284C29.6486 14.6306 29.377 14.5974 29.2802 14.6629C29.1835 14.7284 29.2979 14.8666 29.5529 14.9706Z" fill="#FF9A6F"/>
<path d="M28.4088 16.1824C28.7876 16.2156 29.1258 16.1741 29.1643 16.095C29.2028 16.016 28.9353 15.9318 28.5691 15.9006C28.2028 15.8694 27.8646 15.9006 27.8146 15.9796C27.7647 16.0586 28.03 16.1491 28.4088 16.1824Z" fill="#FF9A6F"/>
<path d="M28.6163 17.4442C29.043 17.4016 29.3447 17.2997 29.3114 17.2217C29.2781 17.1437 28.916 17.1178 28.4987 17.1625C28.0815 17.2072 27.7568 17.2966 27.7849 17.3704C27.813 17.4442 28.1897 17.4869 28.6163 17.4442Z" fill="#FF9A6F"/>
<path d="M30.4702 18.3367C30.7314 18.1766 30.8095 18.0071 30.6596 17.9624C30.5098 17.9177 30.183 18.0102 29.9146 18.1704C29.6461 18.3305 29.5441 18.4916 29.7012 18.5405C29.8584 18.5894 30.209 18.4968 30.4702 18.3367Z" fill="#FF9A6F"/>
<path d="M55.2685 14.2602C51.9116 15.6753 49.0667 16.871 47.1895 14.7031C46.8244 14.2723 46.5536 13.7699 46.3944 13.2282C46.2353 12.6865 46.1914 12.1176 46.2654 11.5579C46.2654 11.5579 46.2654 11.5579 46.2654 11.5507C46.4662 9.79247 47.9668 8.09146 50.5672 7.62669C54.8273 6.84793 59.3934 9.49822 60.3487 10.9403C60.384 10.9913 60.4173 11.0443 60.4454 11.0921C61.3029 12.5592 58.6161 12.7755 55.2685 14.2602Z" fill="#E62A11"/>
<path d="M54.9408 13.3075C51.563 14.5011 48.6348 15.6032 46.9283 13.686C46.3843 13.0598 46.1042 12.2474 46.1468 11.4193C46.1468 11.4193 46.1468 11.4193 46.1468 11.412C46.4236 9.74846 47.9668 8.10048 50.5578 7.62532C54.7993 6.82576 59.2987 9.32113 60.2113 10.6728C60.7826 11.9132 58.2009 12.0931 54.9408 13.3075Z" fill="#FF540E"/>
<path d="M54.3593 8.55149C54.0628 9.03081 56.8276 9.3105 56.9265 10.3315C57.0118 11.2486 54.9837 11.6104 54.5435 11.861C54.0888 12.0689 54.3978 12.5961 55.3073 12.3039C56.5966 11.888 58.1762 11.4721 58.4915 10.84C58.8037 10.1932 57.914 9.53613 56.6549 8.91436C55.4842 8.33627 54.5165 8.2666 54.3593 8.55149Z" fill="#E32A12"/>
<path d="M55.6027 8.86673C55.3384 8.93431 55.0377 8.95927 54.9263 8.90728C54.815 8.85529 54.9347 8.743 55.1979 8.66918C55.4612 8.59536 55.7713 8.5912 55.8826 8.64942C55.994 8.70765 55.867 8.7981 55.6027 8.86673Z" fill="#FF9A6F"/>
<path d="M57.2865 9.75843C56.9587 9.75843 56.6403 9.73556 56.5716 9.67733C56.503 9.6191 56.7121 9.5536 57.042 9.54736C57.3718 9.54112 57.6955 9.59623 57.762 9.65134C57.8286 9.70645 57.6143 9.75323 57.2865 9.75843Z" fill="#FF9A6F"/>
<path d="M57.7285 10.6488C57.3758 10.6041 57.0917 10.5355 57.0938 10.4825C57.0958 10.4294 57.3862 10.417 57.742 10.4679C58.0979 10.5189 58.383 10.6093 58.3778 10.6561C58.3726 10.7029 58.0813 10.6935 57.7285 10.6488Z" fill="#FF9A6F"/>
<path d="M56.9409 11.3687C56.6287 11.3094 56.4206 11.2252 56.4841 11.1753C56.5475 11.1254 56.8462 11.1368 57.1584 11.2054C57.4706 11.274 57.6735 11.3655 57.6121 11.4071C57.5507 11.4487 57.251 11.4279 56.9409 11.3687Z" fill="#FF9A6F"/>
<path d="M55.0719 11.9982C54.919 11.8891 54.8919 11.7643 55.0147 11.7248C55.1375 11.6853 55.3633 11.7477 55.5142 11.8589C55.6651 11.9702 55.687 12.0856 55.5652 12.123C55.4788 12.1359 55.3907 12.1315 55.306 12.1101C55.2214 12.0886 55.1418 12.0506 55.0719 11.9982Z" fill="#FF9A6F"/>
<path d="M51.7571 8.86562C52.1733 9.38549 49.524 9.79411 49.7799 11.3423C50.0214 12.8166 51.9267 12.5577 52.3949 12.5993C52.8622 12.6243 52.6801 13.3271 51.806 13.4654C50.5708 13.6588 49.0807 13.5153 48.4969 12.356C47.9131 11.1967 48.5063 10.0832 49.5729 9.29191C50.5666 8.5537 51.5281 8.56202 51.7571 8.86562Z" fill="#E32A12"/>
<path d="M50.6153 9.25445C50.8983 9.34074 51.2001 9.35842 51.2969 9.29292C51.3937 9.22741 51.2438 9.1016 50.9597 9.00907C50.6756 8.91653 50.3645 8.89781 50.2698 8.96955C50.1751 9.0413 50.3322 9.16815 50.6153 9.25445Z" fill="#FF9A6F"/>
<path d="M49.2435 10.5189C49.5661 10.5189 49.8679 10.4534 49.9136 10.3692C49.9594 10.285 49.7378 10.207 49.411 10.1997C49.0843 10.1924 48.7815 10.2652 48.7378 10.3578C48.6941 10.4503 48.9209 10.5189 49.2435 10.5189Z" fill="#FF9A6F"/>
<path d="M49.1418 11.9438C49.454 11.8221 49.6985 11.6703 49.6787 11.5913C49.6589 11.5123 49.3801 11.5352 49.0617 11.6527C48.7433 11.7702 48.5081 11.9417 48.5331 12.0249C48.558 12.1081 48.8275 12.0654 49.1418 11.9438Z" fill="#FF9A6F"/>
<path d="M50.1086 12.8845C50.3667 12.6953 50.5249 12.5133 50.4604 12.4624C50.3958 12.4114 50.1201 12.5123 49.8599 12.7025C49.5998 12.8928 49.4541 13.0976 49.5228 13.1475C49.5915 13.1975 49.8506 13.0727 50.1086 12.8845Z" fill="#FF9A6F"/>
<path d="M51.7609 12.9989C51.8712 12.7982 51.865 12.6444 51.7453 12.6485C51.6257 12.6527 51.4332 12.8201 51.3291 13.027C51.225 13.2339 51.2365 13.3982 51.353 13.3867C51.4696 13.3753 51.6506 13.1996 51.7609 12.9989Z" fill="#FF9A6F"/>
<path d="M38.3284 10.2849C33.8654 11.203 30.6084 10.3494 31.0735 7.21976C31.2078 6.04382 31.7822 4.86059 32.5439 3.99657V3.99033C33.7114 2.66362 35.2494 2.15415 36.9986 2.62515C39.7343 3.45695 42.754 5.7007 44.0423 6.99206C44.0818 7.03885 44.1203 7.08668 44.1536 7.13347C45.3357 8.45498 42.7904 9.37203 38.3284 10.2849Z" fill="#E62A11"/>
<path d="M38.3465 9.11481C34.2519 9.74593 31.2227 8.88607 31.5932 6.17235C31.6966 5.31532 32.0331 4.50299 32.5661 3.82358V3.81839C33.7107 2.61749 35.2456 2.16624 36.9969 2.62581C39.743 3.42745 42.7024 5.55995 43.8876 6.74213C44.693 7.83801 42.2966 8.51384 38.3465 9.11481Z" fill="#FF540E"/>
<path d="M39.302 4.36937C38.9305 4.76135 41.0304 5.41535 41.0439 6.33136C41.0335 7.24009 38.9836 7.3711 38.4851 7.48963C37.9877 7.5936 38.0689 8.23096 39.072 8.101C40.4966 7.91488 42.1427 7.5333 42.4018 6.91465C42.6609 6.29601 41.8722 5.70336 40.9773 5.02857C40.1438 4.4068 39.4934 4.16143 39.302 4.36937Z" fill="#E32A12"/>
<path d="M40.1769 4.85197C39.9615 4.87172 39.7232 4.84365 39.6493 4.77919C39.5754 4.71472 39.6909 4.63986 39.9043 4.62011C40.1176 4.60035 40.3486 4.64298 40.4246 4.7064C40.5005 4.76983 40.3923 4.83637 40.1769 4.85197Z" fill="#FF9A6F"/>
<path d="M41.4101 5.83247C41.1375 5.81063 40.8753 5.75032 40.8264 5.69105C40.7775 5.63178 40.9575 5.59643 41.227 5.62138C41.4965 5.64634 41.7535 5.71809 41.8066 5.77424C41.8596 5.83039 41.6869 5.8543 41.4101 5.83247Z" fill="#FF9A6F"/>
<path d="M41.7246 6.69391C41.4125 6.62945 41.1638 6.53795 41.1721 6.48596C41.1804 6.43397 41.4374 6.44956 41.7486 6.51819C42.0597 6.58681 42.3094 6.68247 42.3053 6.72614C42.3011 6.76982 42.0389 6.75838 41.7246 6.69391Z" fill="#FF9A6F"/>
<path d="M40.9035 7.34965C40.6152 7.25919 40.4383 7.14898 40.5039 7.10635C40.5694 7.06373 40.8493 7.10635 41.1365 7.20305C41.4237 7.29974 41.61 7.40268 41.5465 7.44115C41.4831 7.47962 41.1917 7.44115 40.9035 7.34965Z" fill="#FF9A6F"/>
<path d="M38.9413 7.7373C38.8299 7.59485 38.8466 7.46176 38.9746 7.44512C39.1026 7.42849 39.2971 7.53142 39.4127 7.67179C39.5282 7.81216 39.5167 7.93693 39.3846 7.95668C39.2987 7.95705 39.2139 7.93741 39.137 7.89933C39.06 7.86124 38.993 7.80577 38.9413 7.7373Z" fill="#FF9A6F"/>
<path d="M37.3218 4.01102C37.4072 4.62031 35.428 4.0734 34.8099 5.50824C34.147 6.96388 35.7943 7.51182 36.2199 7.66466C36.6257 7.82998 36.1158 8.51517 35.2573 8.33633C34.044 8.08368 33.0471 7.1739 33.376 5.84096C33.7048 4.50801 34.6517 3.90185 35.685 3.63983C36.6444 3.40277 37.2656 3.69078 37.3218 4.01102Z" fill="#E32A12"/>
<path d="M36.3802 3.98242C36.5332 4.1519 36.7382 4.26211 36.8319 4.23612C36.9255 4.21012 36.8703 4.05624 36.7153 3.88677C36.5603 3.71729 36.3646 3.59667 36.273 3.62267C36.1815 3.64866 36.2293 3.81294 36.3802 3.98242Z" fill="#FF9A6F"/>
<path d="M34.8739 4.55804C35.082 4.69113 35.3213 4.74935 35.3942 4.69321C35.467 4.63706 35.3525 4.48526 35.1434 4.34906C34.9342 4.21285 34.7084 4.14111 34.6335 4.20558C34.5586 4.27004 34.6637 4.41976 34.8739 4.55804Z" fill="#FF9A6F"/>
<path d="M34.0408 5.77074C34.3228 5.80193 34.5767 5.7645 34.6048 5.68548C34.6329 5.60645 34.4269 5.5108 34.149 5.47752C33.8712 5.44425 33.6236 5.47752 33.5913 5.56486C33.559 5.6522 33.7588 5.74162 34.0408 5.77074Z" fill="#FF9A6F"/>
<path d="M34.1946 7.07126C34.4974 7.00368 34.7232 6.89346 34.6993 6.81756C34.6753 6.74166 34.4141 6.72606 34.1145 6.78948C33.8148 6.85291 33.5879 6.9756 33.6087 7.05566C33.6296 7.13573 33.8959 7.13885 34.1946 7.07126Z" fill="#FF9A6F"/>
<path d="M35.4659 7.84494C35.6667 7.68378 35.7395 7.53301 35.6355 7.49038C35.5314 7.44775 35.2879 7.54653 35.0871 7.71185C34.8863 7.87718 34.8041 8.04458 34.9092 8.07993C35.0143 8.11528 35.2661 8.00507 35.4659 7.84494Z" fill="#FF9A6F"/>
<path d="M29.1102 31.637C23.9281 33.4305 18.7044 30.328 18.0301 26.9093C17.7179 25.6138 18.0644 24.6375 18.8501 24.102C20.0415 23.2702 22.2569 23.4605 25.362 23.8785C30.3964 24.7487 35.694 24.4514 36.5837 25.174C36.6163 25.2033 36.6456 25.2361 36.6711 25.2717C37.3162 26.1139 34.1789 29.9256 29.1102 31.637Z" fill="#E62A11"/>
<path d="M28.9065 30.5071C23.841 31.9783 18.9596 29.0358 18.3498 26.0466C18.1198 25.1108 18.3144 24.383 18.816 23.9141C20.0262 23.2133 22.2593 23.4764 25.3623 23.8798C30.3904 24.7168 35.6224 24.3019 36.4913 24.9611C36.8462 25.8386 33.7203 29.1658 28.9065 30.5071Z" fill="#FF540E"/>
<path d="M29.5579 25.2679C29.0189 25.9177 32.4341 25.6474 32.3186 26.6466C32.2145 27.7799 29.4528 28.7042 28.7806 28.856C28.1094 29.0494 28.3644 29.7128 29.6786 29.3333C31.535 28.804 33.6693 27.4617 34.2218 26.4625C34.7744 25.4634 33.7848 25.3448 32.3488 25.1317C31.0116 24.9383 29.8451 24.956 29.5579 25.2679Z" fill="#E32A12"/>
<path d="M31.022 25.4069C30.6682 25.5473 30.2811 25.6232 30.1562 25.5837C30.0314 25.5442 30.2155 25.409 30.5725 25.279C30.9294 25.1491 31.3165 25.0638 31.4413 25.094C31.5662 25.1241 31.3768 25.2676 31.022 25.4069Z" fill="#FF9A6F"/>
<path d="M32.929 25.8282C32.5055 25.9852 32.1039 26.0673 32.031 26.0247C31.9582 25.9821 32.2391 25.8407 32.6689 25.693C33.0986 25.5454 33.5014 25.4424 33.5679 25.4747C33.6345 25.5069 33.3525 25.6722 32.929 25.8282Z" fill="#FF9A6F"/>
<path d="M33.2801 26.6589C32.8337 26.7837 32.482 26.8159 32.4986 26.7535C32.5153 26.6912 32.894 26.5581 33.3425 26.4416C33.791 26.3252 34.1365 26.2524 34.1188 26.3127C34.1011 26.373 33.7265 26.5352 33.2801 26.6589Z" fill="#FF9A6F"/>
<path d="M32.0805 27.8629C31.6882 27.9044 31.4405 27.8629 31.53 27.787C31.6195 27.7111 32.0128 27.631 32.4041 27.579C32.7954 27.527 33.0368 27.5426 32.9483 27.6227C32.8599 27.7027 32.4728 27.8213 32.0805 27.8629Z" fill="#FF9A6F"/>
<path d="M29.4467 28.9992C29.273 28.8827 29.273 28.7434 29.4467 28.6873C29.6606 28.6445 29.8827 28.6815 30.0711 28.7912C30.2428 28.8952 30.2417 29.0304 30.0711 29.0917C29.9662 29.1195 29.8567 29.1257 29.7494 29.1098C29.642 29.0938 29.539 29.0562 29.4467 28.9992Z" fill="#FF9A6F"/>
<path d="M26.2674 25.3757C26.5598 26.1035 23.2612 25.488 22.8668 26.7918C22.4349 28.2391 25.0364 29.1312 25.6607 29.2425C26.2768 29.4109 25.7783 30.1304 24.5255 29.8455C22.7471 29.4483 20.9063 28.0218 20.8533 26.6702C20.8002 25.3185 21.9979 25.0658 23.5473 24.9296C24.9854 24.8111 26.103 25.0222 26.2674 25.3757Z" fill="#E32A12"/>
<path d="M24.76 25.3694C25.0555 25.5618 25.4114 25.6813 25.5508 25.6491C25.6903 25.6169 25.5612 25.4547 25.2636 25.2717C24.966 25.0887 24.6143 24.9483 24.4759 24.9712C24.3375 24.9941 24.4645 25.1781 24.76 25.3694Z" fill="#FF9A6F"/>
<path d="M22.6124 25.7689C22.9839 25.9706 23.3669 26.0808 23.4605 26.0309C23.5542 25.981 23.3242 25.8011 22.9506 25.6046C22.5771 25.4081 22.2035 25.2698 22.1109 25.3124C22.0183 25.3551 22.2399 25.5682 22.6124 25.7689Z" fill="#FF9A6F"/>
<path d="M21.8115 26.8538C22.2443 26.9858 22.6096 27.0118 22.6221 26.9338C22.6346 26.8559 22.2901 26.6999 21.8583 26.5647C21.4264 26.4296 21.0706 26.3693 21.057 26.4514C21.0435 26.5335 21.3807 26.7217 21.8115 26.8538Z" fill="#FF9A6F"/>
<path d="M22.5487 28.3063C22.9649 28.3209 23.2542 28.2522 23.1907 28.167C23.1273 28.0817 22.7381 28.0048 22.3239 27.9809C21.9098 27.957 21.6247 28.0027 21.6861 28.0973C21.7474 28.1919 22.1314 28.2917 22.5487 28.3063Z" fill="#FF9A6F"/>
<path d="M24.6518 29.3732C24.8818 29.2307 24.9359 29.0779 24.7735 29.028C24.6112 28.9781 24.2938 29.0467 24.0649 29.1829C23.836 29.3191 23.7808 29.4772 23.9421 29.5323C24.1034 29.5874 24.4229 29.5115 24.6518 29.3732Z" fill="#FF9A6F"/>
<path d="M38.6086 19.2476C39.0518 17.6765 37.5222 17.1598 37.0904 19.0542C36.6585 20.9486 37.9124 21.7128 38.6086 19.2476Z" fill="#2A7C19"/>
<path d="M35.2275 17.3902C34.7863 18.9612 36.317 19.4759 36.7457 17.5815C37.1744 15.6871 35.9205 14.9208 35.2275 17.3902Z" fill="#2A7C19"/>
<path d="M22.3154 16.2503C21.8741 17.8213 23.4049 18.336 23.8336 16.4416C24.2623 14.5472 23.0074 13.784 22.3154 16.2503Z" fill="#2A7C19"/>
<path d="M28.6298 18.4158C28.1886 19.9869 29.7193 20.5016 30.148 18.6072C30.5767 16.7128 29.3218 15.9506 28.6298 18.4158Z" fill="#2A7C19"/>
<path d="M22.5126 25.1103C22.0714 26.6814 23.6021 27.196 24.0308 25.3016C24.4596 23.4072 23.2046 22.6472 22.5126 25.1103Z" fill="#2A7C19"/>
<path d="M25.9794 15.2581C25.5382 16.8291 27.0689 17.3438 27.4976 15.4494C27.9264 13.555 26.6725 12.7918 25.9794 15.2581Z" fill="#2A7C19"/>
<path d="M32.4805 14.1141C31.2807 15.2256 32.3213 16.4618 33.674 15.0675C35.0268 13.6732 34.3577 12.3694 32.4805 14.1141Z" fill="#2A7C19"/>
<path d="M41.1845 18.9014C41.0805 17.9989 40.0815 18.3327 40.3364 19.0542C40.5914 19.7758 41.3104 20.0316 41.1845 18.9014Z" fill="#2A7C19"/>
<path d="M39.0575 16.0284C38.9535 15.1259 37.9545 15.4596 38.2095 16.1812C38.4644 16.9028 39.1835 17.1585 39.0575 16.0284Z" fill="#2A7C19"/>
<path d="M36.2255 20.0987C36.1215 19.1962 35.1225 19.5299 35.3774 20.2515C35.6324 20.9731 36.3514 21.2289 36.2255 20.0987Z" fill="#2A7C19"/>
<path d="M31.1317 16.0088C31.0277 15.1063 30.0287 15.4401 30.2837 16.1617C30.5386 16.8833 31.2576 17.139 31.1317 16.0088Z" fill="#2A7C19"/>
<path d="M30.2255 13.503C30.1215 12.6005 29.1225 12.9342 29.3774 13.6558C29.6324 14.3774 30.3514 14.6332 30.2255 13.503Z" fill="#2A7C19"/>
<path d="M41.3463 13.9213C40.4566 14.1074 40.8842 15.0723 41.5793 14.7531C42.2745 14.4339 42.4607 13.6884 41.3463 13.9213Z" fill="#2A7C19"/>
<path d="M36.9224 12.101C36.0327 12.2871 36.4604 13.2519 37.1555 12.9327C37.8506 12.6135 38.0358 11.8681 36.9224 12.101Z" fill="#2A7C19"/>
<path d="M31.2584 13.4349C30.3687 13.6211 30.7963 14.5859 31.4915 14.2667C32.1866 13.9475 32.3729 13.202 31.2584 13.4349Z" fill="#2A7C19"/>
<path d="M36.2547 23.618C35.5679 22.5211 34.5596 22.989 34.9539 23.7886C35.3483 24.5881 36.6855 24.3063 36.2547 23.618Z" fill="#2A7C19"/>
<path d="M34.8519 20.9826C35.1921 19.7349 34.1651 19.3118 33.8446 20.1436C33.5241 20.9754 34.6386 21.7656 34.8519 20.9826Z" fill="#2A7C19"/>
<path d="M31.8226 12.1565C32.1639 10.9088 31.1358 10.4856 30.8153 11.3174C30.4948 12.1492 31.6093 12.9394 31.8226 12.1565Z" fill="#2A7C19"/>
<path d="M32.1137 19.26C32.455 18.0123 31.427 17.5891 31.1065 18.4209C30.786 19.2527 31.8963 20.0429 32.1137 19.26Z" fill="#2A7C19"/>
<path d="M47.5407 19.0447C49.0547 19.6561 49.7353 18.1921 47.8986 17.5579C46.062 16.9237 45.164 18.0861 47.5407 19.0447Z" fill="#2A7C19"/>
<path d="M49.7554 15.8894C48.2403 15.2801 47.5619 16.7451 49.3995 17.3772C51.2372 18.0094 52.1331 16.8449 49.7554 15.8894Z" fill="#2A7C19"/>
<path d="M49.4527 9.22337C47.9376 8.61409 47.2591 10.0791 49.0968 10.7112C50.9345 11.3434 51.8304 10.1789 49.4527 9.22337Z" fill="#2A7C19"/>
<path d="M53.3142 13.517C52.3381 12.208 50.9958 13.1011 52.2351 14.6014C53.4745 16.1018 54.8459 15.5705 53.3142 13.517Z" fill="#2A7C19"/>
<path d="M47.6061 21.6413C48.5145 21.6413 48.2929 20.6077 47.5457 20.7814C46.7986 20.955 46.4677 21.6433 47.6061 21.6413Z" fill="#2A7C19"/>
<path d="M50.694 19.8424C51.6024 19.8424 51.3808 18.8089 50.6336 18.9826C49.8865 19.1562 49.5556 19.8445 50.694 19.8424Z" fill="#2A7C19"/>
<path d="M46.9537 16.5846C47.8622 16.5846 47.6405 15.5511 46.8934 15.7247C46.1462 15.8984 45.8153 16.5846 46.9537 16.5846Z" fill="#2A7C19"/>
<path d="M51.5712 11.9713C52.4796 11.9713 52.258 10.9378 51.5109 11.1115C50.7637 11.2851 50.437 11.9734 51.5712 11.9713Z" fill="#2A7C19"/>
<path d="M54.1666 11.3424C55.0751 11.3424 54.8534 10.3089 54.1063 10.4826C53.3591 10.6562 53.0282 11.3445 54.1666 11.3424Z" fill="#2A7C19"/>
<path d="M52.5429 22.3432C52.4545 21.4397 51.4472 21.7589 51.6928 22.4846C51.9383 23.2104 52.6532 23.4755 52.5429 22.3432Z" fill="#2A7C19"/>
<path d="M54.8339 18.144C54.7455 17.2405 53.7382 17.5597 53.9838 18.2854C54.2293 19.0111 54.9453 19.2784 54.8339 18.144Z" fill="#2A7C19"/>
<path d="M54.123 12.3764C54.0346 11.4729 53.0273 11.7921 53.2728 12.5178C53.5184 13.2436 54.2333 13.5087 54.123 12.3764Z" fill="#2A7C19"/>
<path d="M43.4482 16.2315C44.6137 15.669 44.2588 14.6168 43.4201 14.9215C42.5814 15.2261 42.7167 16.585 43.4482 16.2315Z" fill="#2A7C19"/>
<path d="M22.339 13.8726C22.7823 12.3016 21.2526 11.7848 20.8208 13.6792C20.3889 15.5736 21.6439 16.3368 22.339 13.8726Z" fill="#2A7C19"/>
<path d="M18.9599 12.0098C18.5187 13.5809 20.0494 14.0955 20.4781 12.2011C20.9068 10.3067 19.6529 9.54878 18.9599 12.0098Z" fill="#2A7C19"/>
<path d="M24.9169 13.5245C24.8129 12.622 23.8139 12.9557 24.0688 13.6773C24.3238 14.3989 25.0376 14.6557 24.9169 13.5245Z" fill="#2A7C19"/>
<path d="M22.7899 10.6534C22.6859 9.75086 21.6869 10.0846 21.9419 10.8062C22.1968 11.5278 22.9159 11.7836 22.7899 10.6534Z" fill="#2A7C19"/>
<path d="M25.0767 8.54401C24.187 8.73012 24.6147 9.69499 25.3098 9.37579C26.0049 9.0566 26.1912 8.31215 25.0767 8.54401Z" fill="#2A7C19"/>
<path d="M27.1783 10.8546C28.3438 10.2921 27.9889 9.23986 27.1502 9.5445C26.3115 9.84914 26.4478 11.207 27.1783 10.8546Z" fill="#2A7C19"/>
<path d="M46.2207 15.1286C47.4246 15.6027 47.9574 14.6284 47.1655 14.2188C46.3736 13.8091 45.4652 14.8281 46.2207 15.1286Z" fill="#2A7C19"/>
<path d="M43.6928 11.193C45.3151 11.0007 45.2058 9.39011 43.2901 9.71763C41.3744 10.0451 41.1486 11.4945 43.6928 11.193Z" fill="#2A7C19"/>
<path d="M41.9936 9.31939C42.7896 8.88062 42.0976 8.08314 41.5264 8.59157C40.9551 9.1 40.9967 9.86837 41.9936 9.31939Z" fill="#2A7C19"/>
<path d="M38.7498 10.694C39.5001 9.63969 38.6821 8.889 38.0931 9.55859C37.5041 10.2282 38.2784 11.3542 38.7498 10.694Z" fill="#2A7C19"/>
<path d="M7.22764 20.7846C7.00912 22.4024 8.59704 22.6987 8.75833 20.7627C8.91962 18.8268 7.56999 18.2476 7.22764 20.7846Z" fill="#2A7C19"/>
<path d="M10.8365 22.1488C11.0519 20.531 9.46396 20.2367 9.30579 22.1727C9.14763 24.1087 10.4983 24.6879 10.8365 22.1488Z" fill="#2A7C19"/>
<path d="M17.2271 20.2074C17.4425 18.5896 15.8546 18.2953 15.6964 20.2313C15.5383 22.1673 16.8879 22.7465 17.2271 20.2074Z" fill="#2A7C19"/>
<path d="M20.2935 22.9613C20.5089 21.3435 18.921 21.0492 18.7628 22.9852C18.6047 24.9212 19.9543 25.5004 20.2935 22.9613Z" fill="#2A7C19"/>
<path d="M14.0182 25.0067C15.0463 23.7382 13.8434 22.66 12.6998 24.23C11.5562 25.8 12.4053 26.9978 14.0182 25.0067Z" fill="#2A7C19"/>
<path d="M7.23677 24.0343C7.46362 24.9139 8.40951 24.4429 8.05571 23.7639C7.70191 23.085 6.95269 22.9321 7.23677 24.0343Z" fill="#2A7C19"/>
<path d="M9.46885 19.6062C9.6957 20.4858 10.6416 20.0148 10.2878 19.3358C9.93399 18.6569 9.18581 18.5051 9.46885 19.6062Z" fill="#2A7C19"/>
<path d="M15.086 22.9425C15.3129 23.8221 16.2588 23.3511 15.905 22.6721C15.5512 21.9932 14.803 21.8403 15.086 22.9425Z" fill="#2A7C19"/>
<path d="M16.3364 25.2937C16.5632 26.1733 17.5091 25.7023 17.1553 25.0233C16.8015 24.3444 16.0523 24.1926 16.3364 25.2937Z" fill="#2A7C19"/>
<path d="M9.90439 27.6236C10.7587 27.3116 10.1999 26.4185 9.55684 26.8354C8.91377 27.2524 8.83364 28.0103 9.90439 27.6236Z" fill="#2A7C19"/>
<path d="M15.3243 25.5064C16.1786 25.1944 15.6198 24.3013 14.9768 24.7182C14.3337 25.1352 14.2536 25.8932 15.3243 25.5064Z" fill="#2A7C19"/>
<path d="M10.7021 18.5389C10.5398 19.822 11.6168 20.0985 11.8177 19.2283C12.0185 18.358 10.8041 17.7289 10.7021 18.5389Z" fill="#2A7C19"/>
<path d="M14.9443 26.852C14.782 28.135 15.859 28.4116 16.0598 27.5413C16.2607 26.6711 15.0484 26.0451 14.9443 26.852Z" fill="#2A7C19"/>
<path d="M13.6631 19.8589C13.5007 21.1419 14.5778 21.4185 14.7786 20.5482C14.9794 19.6779 13.764 19.0541 13.6631 19.8589Z" fill="#2A7C19"/>
<path d="M8.2902 29.2682C7.69498 30.4119 8.6107 31.0461 9.09978 30.2996C9.58886 29.5531 8.66377 28.5508 8.2902 29.2682Z" fill="#2A7C19"/>
<path d="M40.6449 8.39072C41.929 8.22748 41.9269 7.11703 41.0341 7.14303C40.1413 7.16902 39.8416 8.49365 40.6449 8.39072Z" fill="#2A7C19"/>
<path d="M55.334 13.0756C56.5379 13.5497 57.0706 12.5755 56.2788 12.1659C55.4869 11.7562 54.5785 12.7783 55.334 13.0756Z" fill="#2A7C19"/>
<path d="M48.2344 12.5873C49.4383 13.0615 49.9711 12.0872 49.1792 11.6776C48.3873 11.2679 47.4789 12.29 48.2344 12.5873Z" fill="#2A7C19"/>
<path d="M20.7093 18.1447C21.0496 16.897 20.0225 16.4739 19.702 17.3057C19.3815 18.1375 20.496 18.9235 20.7093 18.1447Z" fill="#2A7C19"/>
<path d="M32.6338 24.1586C31.5526 23.097 30.5318 23.9049 31.1988 24.7076C31.8658 25.5102 33.3112 24.824 32.6338 24.1586Z" fill="#2A7C19"/>
<path d="M20.5479 26.4066C19.4667 25.3451 18.4459 26.1529 19.1129 26.9556C19.7799 27.7583 21.2263 27.0731 20.5479 26.4066Z" fill="#2A7C19"/>
<path d="M29.0947 21.7074C28.0136 20.6458 26.9927 21.4537 27.6598 22.2564C28.3268 23.0591 29.7742 22.3728 29.0947 21.7074Z" fill="#2A7C19"/>
<path d="M37.165 32.2639C37.6135 33.8328 39.1868 33.47 38.5583 31.6317C37.9298 29.7934 36.4616 29.8018 37.165 32.2639Z" fill="#2A7C19"/>
<path d="M46.0951 27.7356C45.6445 26.1666 44.0712 26.5326 44.7018 28.3698C45.3324 30.2071 46.8027 30.1967 46.0951 27.7356Z" fill="#2A7C19"/>
<path d="M38.7466 30.2891C39.3065 31.0044 39.9849 30.1945 39.3887 29.7131C38.7924 29.2317 38.0453 29.3928 38.7466 30.2891Z" fill="#2A7C19"/>
<path d="M36.871 27.3093C38.0313 27.8822 38.64 26.9558 37.8877 26.4775C37.1354 25.9992 36.1437 26.9495 36.871 27.3093Z" fill="#2A7C19"/>
<path d="M39.4497 28.8156C39.8159 30.056 40.9127 29.8772 40.7483 29.0007C40.5839 28.1242 39.2207 28.0368 39.4497 28.8156Z" fill="#2A7C19"/>
<path d="M42.6901 28.8425C43.0564 30.0829 44.1532 29.9041 43.9887 29.0276C43.8243 28.1511 42.4601 28.0648 42.6901 28.8425Z" fill="#2A7C19"/>
<path d="M39.6702 24.9474C41.1488 25.2833 41.5921 24.0606 40.6067 23.7268C39.6213 23.393 38.743 24.7374 39.6702 24.9474Z" fill="#2A7C19"/>
<path d="M43.9675 25.1799C45.4462 25.5157 45.8895 24.293 44.904 23.9592C43.9186 23.6255 43.0393 24.9698 43.9675 25.1799Z" fill="#2A7C19"/>
<path d="M23.2803 22.2973C22.1991 21.2357 21.1783 22.0436 21.8453 22.8462C22.5123 23.6489 23.9577 22.9627 23.2803 22.2973Z" fill="#2A7C19"/>
<path d="M28.1873 31.8881C27.743 33.4602 29.2778 33.9738 29.7065 32.0773C30.1353 30.1809 28.8803 29.4229 28.1873 31.8881Z" fill="#2A7C19"/>
<path d="M34.7725 28.4808C33.6913 27.4193 32.6705 28.2272 33.3375 29.0298C34.0045 29.8325 35.4509 29.1463 34.7725 28.4808Z" fill="#2A7C19"/>
<path d="M28.9541 29.0726C27.8729 28.0111 26.8521 28.819 27.5191 29.6216C28.1861 30.4243 29.6326 29.7381 28.9541 29.0726Z" fill="#2A7C19"/>
<path d="M39.0031 18.7339C39.4464 17.1629 37.9167 16.6461 37.4849 18.5405C37.0531 20.4349 38.307 21.1981 39.0031 18.7339Z" fill="#45A035"/>
<path d="M35.622 16.8772C35.1808 18.4482 36.7115 18.9629 37.1402 17.0685C37.5689 15.1741 36.315 14.411 35.622 16.8772Z" fill="#45A035"/>
<path d="M22.7099 15.7362C22.2687 17.3072 23.7994 17.8219 24.2281 15.9275C24.6568 14.0331 23.4019 13.2709 22.7099 15.7362Z" fill="#45A035"/>
<path d="M29.0224 17.9024C28.5812 19.4735 30.1119 19.9881 30.5406 18.0937C30.9693 16.1993 29.7196 15.4414 29.0224 17.9024Z" fill="#45A035"/>
<path d="M22.9072 24.5999C22.466 26.1709 23.9966 26.6856 24.4253 24.7912C24.8541 22.8968 23.5991 22.1336 22.9072 24.5999Z" fill="#45A035"/>
<path d="M26.374 14.744C25.9327 16.315 27.4634 16.8297 27.8921 14.9353C28.3209 13.0409 27.067 12.2788 26.374 14.744Z" fill="#45A035"/>
<path d="M32.8746 13.6004C31.679 14.7119 32.7175 15.9481 34.0713 14.5538C35.4251 13.1596 34.7518 11.8557 32.8746 13.6004Z" fill="#45A035"/>
<path d="M41.5829 18.3858C41.4788 17.4833 40.4799 17.817 40.7349 18.5386C40.9898 19.2602 41.7057 19.517 41.5829 18.3858Z" fill="#45A035"/>
<path d="M39.4521 15.5127C39.348 14.6102 38.3491 14.944 38.604 15.6656C38.8589 16.3872 39.578 16.644 39.4521 15.5127Z" fill="#45A035"/>
<path d="M36.62 19.585C36.516 18.6825 35.517 19.0163 35.772 19.7378C36.0269 20.4594 36.746 20.7152 36.62 19.585Z" fill="#45A035"/>
<path d="M31.5263 15.4952C31.4222 14.5927 30.4233 14.9264 30.6782 15.648C30.9332 16.3696 31.6522 16.6253 31.5263 15.4952Z" fill="#45A035"/>
<path d="M30.6181 12.9893C30.514 12.0868 29.5151 12.4206 29.77 13.1421C30.025 13.8637 30.744 14.1205 30.6181 12.9893Z" fill="#45A035"/>
<path d="M41.7388 13.4053C40.8491 13.5915 41.2768 14.5563 41.9719 14.2371C42.667 13.9179 42.8533 13.1735 41.7388 13.4053Z" fill="#45A035"/>
<path d="M37.317 11.5873C36.4273 11.7734 36.8549 12.7383 37.5501 12.4191C38.2452 12.0999 38.4304 11.3544 37.317 11.5873Z" fill="#45A035"/>
<path d="M31.6529 12.9213C30.7632 13.1074 31.1909 14.0723 31.886 13.7531C32.5811 13.4339 32.7674 12.6884 31.6529 12.9213Z" fill="#45A035"/>
<path d="M36.6473 23.1044C35.9605 22.0074 34.9521 22.4753 35.3465 23.2749C35.7409 24.0745 37.0781 23.7927 36.6473 23.1044Z" fill="#45A035"/>
<path d="M35.2464 20.4689C35.5877 19.2213 34.5596 18.7981 34.2391 19.6299C33.9186 20.4617 35.0331 21.2519 35.2464 20.4689Z" fill="#45A035"/>
<path d="M32.2171 11.6428C32.5574 10.3951 31.5304 9.97192 31.2099 10.8037C30.8894 11.6355 32.0028 12.4257 32.2171 11.6428Z" fill="#45A035"/>
<path d="M32.5042 18.7463C32.8456 17.4986 31.8174 17.0754 31.4969 17.9072C31.1764 18.739 32.2909 19.5282 32.5042 18.7463Z" fill="#45A035"/>
<path d="M47.9311 18.5312C49.4451 19.1425 50.1257 17.6786 48.289 17.0443C46.4524 16.4101 45.5596 17.5715 47.9311 18.5312Z" fill="#45A035"/>
<path d="M50.15 15.3757C48.6349 14.7664 47.9564 16.2314 49.7941 16.8636C51.6317 17.4958 52.5277 16.3323 50.15 15.3757Z" fill="#45A035"/>
<path d="M49.8472 8.7097C48.3321 8.10041 47.6537 9.5654 49.4913 10.1976C51.329 10.8297 52.2249 9.66522 49.8472 8.7097Z" fill="#45A035"/>
<path d="M53.7088 13.0033C52.7327 11.6943 51.3903 12.5874 52.6297 14.0878C53.869 15.5881 55.2405 15.0578 53.7088 13.0033Z" fill="#45A035"/>
<path d="M47.9987 21.1276C48.9071 21.1276 48.6854 20.0941 47.9383 20.2677C47.1912 20.4413 46.8603 21.1296 47.9987 21.1276Z" fill="#45A035"/>
<path d="M51.0885 19.3268C51.997 19.3268 51.7753 18.2933 51.0282 18.4669C50.281 18.6406 49.9501 19.3289 51.0885 19.3268Z" fill="#45A035"/>
<path d="M47.3463 16.0709C48.2547 16.0709 48.0331 15.0374 47.286 15.2111C46.5388 15.3847 46.2079 16.073 47.3463 16.0709Z" fill="#45A035"/>
<path d="M51.9713 11.4577C52.8797 11.4577 52.6581 10.4241 51.911 10.5978C51.1638 10.7714 50.8329 11.4597 51.9713 11.4577Z" fill="#45A035"/>
<path d="M54.5612 10.8288C55.4696 10.8288 55.2479 9.79524 54.5008 9.96888C53.7537 10.1425 53.4228 10.8308 54.5612 10.8288Z" fill="#45A035"/>
<path d="M52.9375 21.8295C52.849 20.926 51.8417 21.2452 52.0873 21.9709C52.3329 22.6967 53.0478 22.9618 52.9375 21.8295Z" fill="#45A035"/>
<path d="M55.2284 17.6323C55.14 16.7288 54.1327 17.048 54.3783 17.7737C54.6239 18.4994 55.3387 18.7677 55.2284 17.6323Z" fill="#45A035"/>
<path d="M54.5175 11.8628C54.4291 10.9592 53.4218 11.2784 53.6674 12.0042C53.9129 12.7299 54.6278 12.995 54.5175 11.8628Z" fill="#45A035"/>
<path d="M43.8428 15.7178C45.0083 15.1553 44.6534 14.1031 43.8147 14.4078C42.9759 14.7124 43.1112 16.0703 43.8428 15.7178Z" fill="#45A035"/>
<path d="M22.7335 13.3609C23.1768 11.7898 21.6472 11.2731 21.2153 13.1675C20.7835 15.0619 22.0384 15.8219 22.7335 13.3609Z" fill="#45A035"/>
<path d="M19.3544 11.5003C18.9132 13.0713 20.4439 13.586 20.8726 11.6916C21.3013 9.79716 20.0433 9.03399 19.3544 11.5003Z" fill="#45A035"/>
<path d="M25.3115 13.0108C25.2074 12.1083 24.2084 12.442 24.4634 13.1636C24.7183 13.8852 25.4374 14.141 25.3115 13.0108Z" fill="#45A035"/>
<path d="M23.1845 10.1377C23.0804 9.23524 22.0815 9.569 22.3364 10.2906C22.5914 11.0122 23.3104 11.269 23.1845 10.1377Z" fill="#45A035"/>
<path d="M25.4713 8.03065C24.5816 8.21676 25.0092 9.18163 25.7043 8.86243C26.3994 8.54323 26.5857 7.79775 25.4713 8.03065Z" fill="#45A035"/>
<path d="M27.5729 10.3468C28.7383 9.78427 28.3835 8.73204 27.5448 9.03669C26.7061 9.34133 26.8424 10.6951 27.5729 10.3468Z" fill="#45A035"/>
<path d="M46.6152 14.6087C47.8192 15.0828 48.352 14.1086 47.5601 13.6989C46.7682 13.2893 45.8598 14.3134 46.6152 14.6087Z" fill="#45A035"/>
<path d="M44.0874 10.6793C45.7096 10.487 45.6004 8.87644 43.6847 9.20395C41.769 9.53147 41.5432 10.9819 44.0874 10.6793Z" fill="#45A035"/>
<path d="M42.3881 8.80572C43.1841 8.36695 42.4922 7.56947 41.9209 8.0779C41.3496 8.58633 41.3912 9.35574 42.3881 8.80572Z" fill="#45A035"/>
<path d="M39.1449 10.1803C39.8951 9.12602 39.0772 8.37533 38.4883 9.04492C37.8993 9.71451 38.6693 10.8416 39.1449 10.1803Z" fill="#45A035"/>
<path d="M7.62217 20.271C7.40365 21.8889 8.99158 22.1852 9.15287 20.2492C9.31416 18.3132 7.96452 17.7289 7.62217 20.271Z" fill="#45A035"/>
<path d="M11.231 21.6352C11.4464 20.0173 9.85849 19.7231 9.70032 21.6591C9.54216 23.5951 10.8928 24.1752 11.231 21.6352Z" fill="#45A035"/>
<path d="M17.6197 19.6937C17.8351 18.0759 16.2472 17.7817 16.089 19.7177C15.9308 21.6537 17.2805 22.2328 17.6197 19.6937Z" fill="#45A035"/>
<path d="M20.688 22.4476C20.9034 20.8298 19.3155 20.5356 19.1574 22.4716C18.9992 24.4076 20.3499 24.9857 20.688 22.4476Z" fill="#45A035"/>
<path d="M14.4108 24.493C15.4389 23.2245 14.236 22.1463 13.0924 23.7163C11.9488 25.2864 12.7979 26.4841 14.4108 24.493Z" fill="#45A035"/>
<path d="M7.6313 23.5206C7.85815 24.4002 8.80404 23.9292 8.45024 23.2503C8.09644 22.5713 7.34723 22.4185 7.6313 23.5206Z" fill="#45A035"/>
<path d="M9.86143 19.0929C10.0883 19.9725 11.0342 19.5015 10.6804 18.8225C10.3266 18.1436 9.57839 17.9907 9.86143 19.0929Z" fill="#45A035"/>
<path d="M15.4809 22.4284C15.7078 23.308 16.6537 22.837 16.2999 22.1581C15.9461 21.4791 15.1968 21.3273 15.4809 22.4284Z" fill="#45A035"/>
<path d="M16.7309 24.78C16.9578 25.6596 17.9037 25.1886 17.5499 24.5096C17.1961 23.8307 16.4468 23.6789 16.7309 24.78Z" fill="#45A035"/>
<path d="M10.2989 27.1079C11.1532 26.796 10.5944 25.9029 9.95137 26.3198C9.3083 26.7367 9.22817 27.4947 10.2989 27.1079Z" fill="#45A035"/>
<path d="M15.7189 24.9927C16.5732 24.6808 16.0144 23.7876 15.3713 24.2046C14.7282 24.6215 14.6481 25.3805 15.7189 24.9927Z" fill="#45A035"/>
<path d="M11.0928 18.0234C10.9304 19.3064 12.0074 19.583 12.2083 18.7127C12.4091 17.8425 11.1968 17.2176 11.0928 18.0234Z" fill="#45A035"/>
<path d="M15.3389 26.3398C15.1765 27.6228 16.2535 27.8994 16.4544 27.0291C16.6552 26.1589 15.4408 25.534 15.3389 26.3398Z" fill="#45A035"/>
<path d="M14.0576 19.3452C13.8953 20.6282 14.9723 20.9048 15.1731 20.0345C15.374 19.1643 14.1585 18.5404 14.0576 19.3452Z" fill="#45A035"/>
<path d="M8.68472 28.7578C8.08952 29.9015 9.00522 30.5357 9.49429 29.7892C9.98336 29.0427 9.05829 28.0372 8.68472 28.7578Z" fill="#45A035"/>
<path d="M41.0423 7.87704C42.3264 7.7138 42.3243 6.60336 41.4315 6.62936C40.5387 6.65535 40.2369 7.97893 41.0423 7.87704Z" fill="#45A035"/>
<path d="M55.7285 12.5619C56.9324 13.0361 57.4652 12.0618 56.6733 11.6522C55.8815 11.2425 54.973 12.2646 55.7285 12.5619Z" fill="#45A035"/>
<path d="M48.6289 12.0737C49.8328 12.5478 50.3656 11.5736 49.5737 11.1639C48.7819 10.7542 47.8734 11.7763 48.6289 12.0737Z" fill="#45A035"/>
<path d="M21.1038 17.6232C21.4451 16.3756 20.417 15.9524 20.0965 16.7842C19.7761 17.616 20.8905 18.4082 21.1038 17.6232Z" fill="#45A035"/>
<path d="M33.0264 23.6449C31.9452 22.5833 30.9244 23.3912 31.5914 24.1939C32.2584 24.9966 33.7048 24.3103 33.0264 23.6449Z" fill="#45A035"/>
<path d="M20.9404 25.893C19.8593 24.8314 18.8384 25.6393 19.5055 26.4419C20.1725 27.2446 21.6189 26.5584 20.9404 25.893Z" fill="#45A035"/>
<path d="M29.4912 21.1918C28.41 20.1302 27.3892 20.9381 28.0562 21.7408C28.7233 22.5434 30.1697 21.8572 29.4912 21.1918Z" fill="#45A035"/>
<path d="M37.5595 31.7506C38.008 33.3195 39.5814 32.9567 38.9529 31.1184C38.3244 29.2801 36.8561 29.2874 37.5595 31.7506Z" fill="#45A035"/>
<path d="M46.4896 27.22C46.0391 25.651 44.4657 26.017 45.0963 27.8542C45.7269 29.6914 47.2014 29.6852 46.4896 27.22Z" fill="#45A035"/>
<path d="M39.1392 29.7735C39.6991 30.4888 40.3775 29.6788 39.7813 29.1975C39.185 28.7161 38.4379 28.8772 39.1392 29.7735Z" fill="#45A035"/>
<path d="M37.2656 26.7936C38.4258 27.3665 39.0345 26.4401 38.2822 25.9618C37.5299 25.4835 36.5382 26.4349 37.2656 26.7936Z" fill="#45A035"/>
<path d="M39.8442 28.2995C40.2105 29.54 41.3073 29.3611 41.1428 28.4846C40.9784 27.6081 39.6153 27.5218 39.8442 28.2995Z" fill="#45A035"/>
<path d="M43.0846 28.3329C43.4509 29.5733 44.5477 29.3945 44.3833 28.518C44.2189 27.6415 42.8547 27.55 43.0846 28.3329Z" fill="#45A035"/>
<path d="M40.0647 24.4338C41.5434 24.7696 41.9867 23.5469 41.0012 23.2131C40.0158 22.8794 39.1376 24.2237 40.0647 24.4338Z" fill="#45A035"/>
<path d="M44.3616 24.6643C45.8402 25.0001 46.2835 23.7774 45.2981 23.4436C44.3127 23.1099 43.4344 24.4532 44.3616 24.6643Z" fill="#45A035"/>
<path d="M23.6729 21.7836C22.5917 20.722 21.5709 21.5299 22.2379 22.3326C22.9049 23.1352 24.3513 22.449 23.6729 21.7836Z" fill="#45A035"/>
<path d="M28.581 31.3733C28.1398 32.9444 29.6705 33.459 30.0992 31.5646C30.5279 29.6702 29.274 28.907 28.581 31.3733Z" fill="#45A035"/>
<path d="M35.167 27.9672C34.0858 26.9056 33.065 27.7135 33.732 28.5162C34.399 29.3188 35.8454 28.6326 35.167 27.9672Z" fill="#45A035"/>
<path d="M29.3486 28.557C28.2675 27.4954 27.2467 28.3033 27.9137 29.106C28.5807 29.9087 30.0271 29.2225 29.3486 28.557Z" fill="#45A035"/>
<path d="M46.1759 8.66747C43.8325 9.11248 43.1749 11.4602 44.9272 11.2346C46.6796 11.009 49.0313 8.12473 46.1759 8.66747Z" fill="#FFE5A4"/>
<path d="M25.2755 9.3413C22.9321 9.78631 22.2745 12.134 24.0268 11.9084C25.7792 11.6828 28.1298 8.79856 25.2755 9.3413Z" fill="#FFE5A4"/>
<path d="M74.7618 38.2515C72.4185 38.6965 71.7608 41.0442 73.5132 40.8186C75.2655 40.5929 77.6172 37.7087 74.7618 38.2515Z" fill="#FFF1D2"/>
<path d="M28.8185 22.0127C26.4751 22.4577 25.8175 24.8055 27.5698 24.5798C29.3221 24.3542 31.6728 21.4721 28.8185 22.0127Z" fill="#FFE5A4"/>
<path d="M3.53922 40.2907C1.19581 40.7357 0.538157 43.0835 2.29051 42.8578C4.04286 42.6322 6.39355 39.747 3.53922 40.2907Z" fill="#FFF1D2"/>
<path d="M11.1078 26.0779C9.49389 26.3898 9.04123 28.0014 10.2514 27.8454C11.4616 27.6895 13.0704 25.7046 11.1078 26.0779Z" fill="#FFE5A4"/>
<path d="M2.84025 44.3001C1.22631 44.612 0.773659 46.2236 1.98385 46.0676C3.19405 45.9117 4.80695 43.9289 2.84025 44.3001Z" fill="#FFF1D2"/>
<path d="M18.2856 17.75C16.6716 18.0619 16.219 19.6735 17.4292 19.5176C18.6394 19.3616 20.2512 17.3757 18.2856 17.75Z" fill="#FFE5A4"/>
<path d="M43.3063 12.0373C44.811 11.3781 46.0992 12.4532 45.0139 13.0105C43.9286 13.5678 41.4728 12.8421 43.3063 12.0373Z" fill="#FFE5A4"/>
<path d="M68.2551 20.7951C69.7597 20.1359 71.048 21.211 69.9627 21.7683C68.8773 22.3256 66.4226 21.5989 68.2551 20.7951Z" fill="#FFF1D2"/>
<path d="M57.6437 48.3381C59.1484 47.6789 60.4366 48.754 59.3513 49.3113C58.266 49.8686 55.8113 49.1418 57.6437 48.3381Z" fill="#FFE5A4"/>
<path d="M50.7804 23.1955C52.2851 22.5363 53.5733 23.6114 52.488 24.1687C51.4027 24.726 48.948 23.9992 50.7804 23.1955Z" fill="#FFE5A4"/>
<path d="M27.8332 7.31271C29.3379 6.65353 30.6261 7.7286 29.5408 8.28589C28.4554 8.84318 26.0007 8.11538 27.8332 7.31271Z" fill="#FFE5A4"/>
<path d="M71.7961 36.2268C73.3007 35.5676 74.589 36.6427 73.5036 37.2C72.4183 37.7573 69.9636 37.0295 71.7961 36.2268Z" fill="#FFF1D2"/>
<path d="M44.8681 19.2142C43.1365 17.5746 40.8462 18.4136 42.0585 19.706C43.2708 20.9984 46.9773 21.2116 44.8681 19.2142Z" fill="#FFE5A4"/>
<path d="M26.8642 57.2025C25.1326 55.5628 22.8423 56.4019 24.0546 57.6943C25.2669 58.9867 28.9734 59.1999 26.8642 57.2025Z" fill="#FFF1D2"/>
<path d="M33.2782 47.3783C31.5467 45.7386 29.2564 46.5777 30.4686 47.8701C31.6809 49.1625 35.3864 49.3757 33.2782 47.3783Z" fill="#FFE5A4"/>
<path d="M60.8153 17.1869C59.0838 15.5472 56.7935 16.3863 58.0058 17.6787C59.218 18.9711 62.9246 19.1832 60.8153 17.1869Z" fill="#FFE5A4"/>
<path d="M70.9267 17.7025C69.1951 16.0629 66.9048 16.9019 68.1171 18.1943C69.3294 19.4867 73.038 19.703 70.9267 17.7025Z" fill="#FFF1D2"/>
<path d="M56.956 49.7279C55.2244 48.0882 52.9341 48.9273 54.1464 50.2197C55.3587 51.5121 59.0642 51.7284 56.956 49.7279Z" fill="#FFE5A4"/>
<path d="M16.3895 22.8373C14.658 21.1976 12.3677 22.0367 13.58 23.3291C14.7922 24.6215 18.4988 24.8346 16.3895 22.8373Z" fill="#FFE5A4"/>
<path d="M8.54579 51.224C6.81427 49.5843 4.52394 50.4234 5.73622 51.7158C6.9485 53.0082 10.654 53.2213 8.54579 51.224Z" fill="#FFF1D2"/>
<path d="M40.1816 20.5614C38.7768 20.3534 38.3314 18.9696 39.3814 19.0631C40.4313 19.1567 41.8954 20.8182 40.1816 20.5614Z" fill="#FFE5A4"/>
<path d="M49.4159 26.4208C48.0112 26.2128 47.5658 24.8289 48.6157 24.9225C49.6657 25.0161 51.1277 26.6776 49.4159 26.4208Z" fill="#FFE5A4"/>
<path d="M50.6015 54.7821C49.1967 54.5741 48.7513 53.1903 49.8013 53.2838C50.8512 53.3774 52.3132 55.0389 50.6015 54.7821Z" fill="#FFE5A4"/>
<path d="M19.8183 17.0008C18.4135 16.7929 17.9681 15.409 19.0181 15.5026C20.068 15.5962 21.529 17.2608 19.8183 17.0008Z" fill="#FFE5A4"/>
<path d="M32.1484 9.98912C30.7436 9.78118 30.2982 8.39728 31.3482 8.49086C32.3981 8.58444 33.8601 10.2428 32.1484 9.98912Z" fill="#FFE5A4"/>
<path d="M14.7636 16.4032C13.3588 16.1952 12.9134 14.8113 13.9634 14.9049C15.0133 14.9985 16.4754 16.66 14.7636 16.4032Z" fill="#FFE5A4"/>
<path d="M32.4999 26.6844C31.0951 26.4765 30.6498 25.0926 31.6997 25.1862C32.7497 25.2797 34.2117 26.9412 32.4999 26.6844Z" fill="#FFE5A4"/>
<path d="M28.4042 61.329C26.9994 61.121 26.5541 59.7371 27.604 59.8307C28.654 59.9243 30.115 61.5858 28.4042 61.329Z" fill="#FFF1D2"/>
<path d="M8.41788 54.743C7.01311 54.5351 6.56774 53.1512 7.61768 53.2448C8.66762 53.3383 10.1296 54.9946 8.41788 54.743Z" fill="#FFF1D2"/>
<path d="M21.6679 33.5692C20.2631 33.3612 19.8177 31.9774 20.8677 32.0709C21.9176 32.1645 23.3797 33.826 21.6679 33.5692Z" fill="#FFE5A4"/>
<path d="M30.5089 14.8914C29.949 15.3468 29.666 15.8833 30.3143 17.0031C30.9625 18.1229 31.0427 18.3132 31.9105 18.5502C32.7784 18.7873 33.4579 19.1169 34.2092 18.6542C34.9605 18.1915 34.4599 17.4803 34.0541 16.5591C33.6483 15.6379 33.3049 15.482 32.7347 15.1971C32.1644 14.9122 32.6431 14.7687 32.1436 14.4609C31.7149 14.1937 30.8512 14.6096 30.5089 14.8914Z" fill="#80A829"/>
<path d="M31.7829 15.0332C31.1991 14.9531 30.3042 15.1226 30.5841 16.0573C30.864 16.992 31.3448 17.409 32.4634 17.5899C33.582 17.7708 33.8849 17.4589 33.5581 16.8475C33.2314 16.2361 33.0576 16.0459 32.5363 15.8733C32.0149 15.7007 32.042 15.0685 31.7829 15.0332Z" fill="#EAF4C1"/>
<path d="M37.2613 12.8681C37.8638 12.7943 38.3529 12.9346 38.6547 13.9796C38.9565 15.0245 39.0241 15.1836 38.6641 15.8459C38.304 16.5082 38.1073 17.1123 37.3883 17.2963C36.6693 17.4804 36.5309 16.765 36.2083 15.9842C35.8857 15.2033 35.9908 14.9039 36.15 14.3934C36.3092 13.8829 35.9419 14.0887 36.0459 13.6073C36.1375 13.1925 36.893 12.9138 37.2613 12.8681Z" fill="#80A829"/>
<path d="M36.6061 13.7229C36.8975 13.3226 37.5208 12.8797 37.9245 13.5929C38.3283 14.3062 38.3002 14.8406 37.7601 15.6215C37.22 16.4023 36.8538 16.4054 36.6737 15.8513C36.4937 15.2971 36.4791 15.0819 36.6737 14.666C36.8683 14.2501 36.4771 13.8997 36.6061 13.7229Z" fill="#EAF4C1"/>
<path d="M37.6371 9.08646C35.6184 8.26194 34.9441 9.11453 35.0867 10.0784C35.2292 11.0422 35.1855 11.4914 36.3656 11.3749C37.5456 11.2585 37.8588 11.3583 38.3947 12.6164C38.9306 13.8744 40.2396 14.5222 40.2875 13.2995C40.3354 12.0767 38.9462 9.6188 37.6371 9.08646Z" fill="#A1D146"/>
<path d="M37.6287 9.85243C36.2583 9.29305 35.8004 9.87218 35.8972 10.5262C35.994 11.1802 36.7411 10.7549 37.5424 10.6749C38.3436 10.5948 38.2406 11.1344 38.6038 11.9891C38.9669 12.8438 39.7276 13.7296 39.7598 12.8999C39.7921 12.0702 38.5205 10.2153 37.6287 9.85243Z" fill="#EAF4C1"/>
<path d="M32.8018 9.28212C32.242 9.73753 31.959 10.274 32.6072 11.3938C33.2555 12.5136 33.3357 12.7039 34.2035 12.941C35.0713 13.178 35.7508 13.5076 36.5021 13.0449C37.2534 12.5823 36.7529 11.8711 36.3471 10.9499C35.9413 10.0287 35.5979 9.87269 35.0276 9.58781C34.4574 9.30292 34.9361 9.15943 34.4366 8.85063C34.0068 8.58446 33.1442 9.00347 32.8018 9.28212Z" fill="#80A829"/>
<path d="M34.0739 9.42379C33.4901 9.34373 32.5952 9.5132 32.8751 10.4479C33.1551 11.3827 33.6358 11.7996 34.7544 11.9805C35.873 12.1614 36.1758 11.8495 35.8491 11.2381C35.5224 10.6268 35.3486 10.4365 34.8273 10.2639C34.3059 10.0913 34.3319 9.45914 34.0739 9.42379Z" fill="#EAF4C1"/>
<path d="M29.4629 11.4329C30.0987 11.6492 30.5181 12.0245 30.3151 13.2109C30.1122 14.3972 30.107 14.5885 29.4255 15.0751C28.7439 15.5617 28.2611 16.0691 27.4556 15.9069C26.6502 15.7447 26.8573 14.9649 26.9125 14.0354C26.9676 13.1059 27.2174 12.8542 27.6211 12.4228C28.0248 11.9913 27.5618 12.0204 27.8979 11.591C28.1861 11.2146 29.0737 11.3009 29.4629 11.4329Z" fill="#80A829"/>
<path d="M28.399 11.9701C28.8818 11.7123 29.7164 11.5698 29.7747 12.4755C29.8329 13.3811 29.5489 13.8968 28.63 14.4177C27.7112 14.9386 27.3491 14.7629 27.4365 14.1245C27.5239 13.4861 27.6134 13.2646 28.0119 12.9444C28.4105 12.6241 28.1847 12.0845 28.399 11.9701Z" fill="#EAF4C1"/>
<path d="M31.0908 8.14557C31.6038 8.32025 31.943 8.62281 31.7786 9.58041C31.6142 10.538 31.6069 10.6919 31.0606 11.0849C30.5143 11.4779 30.1241 11.8865 29.4706 11.7555C28.8172 11.6245 28.9909 10.9955 29.0326 10.2427C29.0742 9.48995 29.2781 9.28929 29.6049 8.94097C29.9316 8.59266 29.557 8.61657 29.8286 8.2693C30.0606 7.96986 30.7766 8.03952 31.0908 8.14557Z" fill="#A1D146"/>
<path d="M30.2325 8.57877C30.6227 8.37082 31.2949 8.25645 31.3428 8.98635C31.3906 9.71624 31.1607 10.1301 30.4208 10.5532C29.681 10.9764 29.3875 10.8319 29.4572 10.3162C29.527 9.80046 29.5998 9.62162 29.9213 9.36377C30.2429 9.10591 30.0597 8.67026 30.2325 8.57877Z" fill="#EAF4C1"/>
<path d="M34.8673 11.9483C36.8819 12.7801 36.7591 13.8635 35.9787 14.4437C35.1982 15.0239 34.9121 15.3795 34.1566 14.4645C33.4011 13.5495 33.1087 13.4019 31.8413 13.9186C30.5739 14.4354 29.1878 13.9737 30.0161 13.0723C30.8444 12.1708 33.5614 11.4066 34.8673 11.9483Z" fill="#A1D146"/>
<path d="M34.3297 12.4946C35.697 13.0612 35.6138 13.7942 35.0841 14.1914C34.5544 14.5886 34.3234 13.7599 33.8115 13.1392C33.2995 12.5185 32.9915 12.9749 32.132 13.3253C31.2724 13.6757 30.107 13.7703 30.6689 13.159C31.2308 12.5476 33.4431 12.1275 34.3297 12.4946Z" fill="#EAF4C1"/>
<path d="M30.0852 53.6359C29.8669 53.8371 29.7287 54.1104 29.696 54.4053C29.6156 54.2769 29.5147 54.1624 29.3974 54.0664C29.1612 54.5935 29.4452 55.2558 29.438 55.5022C29.2184 55.0032 28.9177 54.9314 28.875 54.8462C28.8958 55.2007 28.8844 55.4191 29.1934 55.8734C29.4255 56.2155 29.3152 56.6231 29.4567 56.7593C29.5607 56.858 30.1195 56.8321 30.5763 57.1949C31.0332 57.5578 31.3235 57.4029 31.3235 57.4029C31.1765 57.1495 30.9538 56.9484 30.6867 56.8279C31.2715 56.8955 31.3724 57.0993 32.1299 56.8986C32.0451 56.7874 31.9416 56.6917 31.824 56.6158C32.3349 56.5856 32.3776 56.3715 32.5743 56.3039C32.1809 56.0595 31.8802 55.888 31.2142 55.9504C31.4619 55.5906 32.0363 55.8901 32.6419 55.0084C32.418 54.9598 32.1874 54.9507 31.9603 54.9813C32.2309 54.6548 32.2725 54.0851 32.389 53.9551C32.0155 54.0664 31.6169 54.0892 31.3391 54.3065C31.4005 54.0237 31.3599 53.7035 31.31 53.6172C30.6856 53.9447 30.5878 54.7848 30.3568 55.0219C30.2663 54.4375 30.5014 54.4303 30.0852 53.6359Z" fill="#5DB34F"/>
<path d="M55.1789 51.7277C54.9606 51.9289 54.8224 52.2022 54.7898 52.4971C54.7093 52.3687 54.6084 52.2542 54.4911 52.1582C54.2549 52.6853 54.539 53.3476 54.5317 53.594C54.3121 53.095 54.0114 53.0232 53.9688 52.938C53.9896 53.2925 53.9781 53.5109 54.2872 53.9652C54.5192 54.3073 54.4089 54.7149 54.5504 54.8511C54.6545 54.9498 55.2133 54.9239 55.6701 55.2867C56.1269 55.6496 56.4172 55.4947 56.4172 55.4947C56.2702 55.2413 56.0475 55.0402 55.7804 54.9197C56.3652 54.9873 56.4661 55.1911 57.2237 54.9904C57.1388 54.8792 57.0353 54.7835 56.9177 54.7076C57.4287 54.6774 57.4713 54.4632 57.668 54.3957C57.2747 54.1513 56.9739 53.9798 56.308 54.0422C56.5556 53.6824 57.13 53.9819 57.7356 53.1002C57.5118 53.0516 57.2811 53.0425 57.0541 53.0731C57.3246 52.7466 57.3662 52.1769 57.4828 52.0469C57.1092 52.1582 56.7107 52.181 56.4328 52.3983C56.4942 52.1155 56.4537 51.7953 56.4037 51.709C55.7794 52.0365 55.6815 52.8766 55.4505 53.1137C55.36 52.5293 55.5952 52.5262 55.1789 51.7277Z" fill="#5DB34F"/>
<path d="M11.6629 50.1797C11.8803 50.3815 12.1634 50.4982 12.46 50.5082C12.3391 50.5984 12.2337 50.7076 12.1478 50.8316C12.692 51.027 13.331 50.6933 13.5776 50.6819C13.0968 50.9387 13.0479 51.2485 12.9657 51.2922C13.3174 51.2444 13.537 51.2392 13.9668 50.8971C14.2904 50.6403 14.7056 50.7182 14.8304 50.5675C14.921 50.4573 14.8523 49.901 15.179 49.4238C15.5058 48.9465 15.333 48.6627 15.333 48.6627C15.0914 48.8283 14.9076 49.0653 14.8076 49.3406C14.8304 48.7531 15.0261 48.6367 14.768 47.8974C14.6634 47.9905 14.5757 48.1009 14.5089 48.2239C14.4402 47.7176 14.2227 47.6916 14.1405 47.4961C13.9272 47.9058 13.7795 48.2239 13.8908 48.8779C13.5131 48.6585 13.768 48.0638 12.8419 47.5262C12.8104 47.7533 12.8188 47.9841 12.8669 48.2083C12.5203 47.964 11.948 47.964 11.8096 47.859C11.9491 48.2229 12.0021 48.618 12.2404 48.8779C11.9532 48.8384 11.6369 48.9029 11.5547 48.959C11.9293 49.5589 12.7753 49.5901 13.0292 49.8022C12.4454 49.9374 12.4277 49.7045 11.6629 50.1797Z" fill="#5DB34F"/>
<path d="M39.5211 56.5295C39.3533 56.4668 39.1685 56.4668 39.0008 56.5295C39.0489 56.4518 39.0841 56.3668 39.1048 56.2779C38.7562 56.2914 38.4753 56.622 38.34 56.6844C38.5481 56.4328 38.5075 56.2477 38.5481 56.2051C38.3443 56.2952 38.178 56.4532 38.0778 56.6522C37.955 56.8695 37.7053 56.9183 37.6688 57.0317C37.6428 57.1138 37.8072 57.4091 37.7334 57.7522C37.6595 58.0953 37.8197 58.2128 37.8197 58.2128C37.9175 58.0656 37.9666 57.8914 37.9602 57.7148C38.0809 58.0485 37.9977 58.1577 38.3088 58.5123C38.3462 58.4366 38.3701 58.3549 38.3796 58.271C38.5325 58.5383 38.6595 58.504 38.749 58.5923C38.803 58.3032 38.7409 58.0044 38.5762 57.7605C38.8374 57.798 38.8291 58.1879 39.468 58.2804C39.4324 58.1453 39.3732 58.0175 39.2932 57.903C39.5419 57.9612 39.8624 57.8323 39.9633 57.8593C39.8031 57.6878 39.6844 57.4788 39.4919 57.3873C39.6291 57.3548 39.755 57.2858 39.8561 57.1876C39.5107 56.9371 39.031 57.1107 38.8416 57.0494C39.1361 56.8424 39.2006 56.9682 39.5211 56.5295Z" fill="#5DB34F"/>
<path d="M64.0718 43.3049C63.9041 43.2422 63.7193 43.2422 63.5515 43.3049C63.5997 43.2272 63.6348 43.1422 63.6556 43.0533C63.307 43.0668 63.0261 43.3974 62.8908 43.4598C63.0989 43.2082 63.0583 43.0231 63.0989 42.9805C62.895 43.0706 62.7288 43.2286 62.6286 43.4276C62.5058 43.6449 62.256 43.6937 62.2196 43.8071C62.1936 43.8892 62.358 44.1845 62.2841 44.5276C62.2103 44.8707 62.3705 44.9882 62.3705 44.9882C62.4683 44.8409 62.5174 44.6668 62.511 44.4902C62.6317 44.8239 62.5484 44.9331 62.8596 45.2876C62.897 45.212 62.9209 45.1303 62.9303 45.0464C63.0833 45.3136 63.2102 45.2793 63.2997 45.3677C63.3538 45.0785 63.2918 44.7797 63.127 44.5359C63.3882 44.5734 63.3798 44.9633 64.0188 45.0558C63.9849 44.9218 63.9278 44.7948 63.8502 44.6804C64.0989 44.7387 64.4194 44.6097 64.5203 44.6368C64.3601 44.4652 64.2414 44.2562 64.0489 44.1647C64.1861 44.1322 64.312 44.0633 64.4131 43.9651C64.0677 43.7145 63.588 43.8882 63.3986 43.8268C63.6868 43.6168 63.7472 43.7436 64.0718 43.3049Z" fill="#5DB34F"/>
<path d="M47.0406 56.8732C46.8728 56.8106 46.6881 56.8106 46.5203 56.8732C46.5685 56.7956 46.6036 56.7106 46.6244 56.6216C46.2758 56.6351 45.9948 56.9658 45.8595 57.0281C46.0677 56.7765 46.0271 56.5915 46.0677 56.5488C45.8638 56.6389 45.6976 56.797 45.5973 56.9959C45.4745 57.2132 45.2248 57.2621 45.1884 57.3754C45.1624 57.4576 45.3268 57.7528 45.2529 58.096C45.179 58.4391 45.3392 58.5566 45.3392 58.5566C45.437 58.4093 45.4862 58.2351 45.4797 58.0585C45.6004 58.3923 45.5172 58.5015 45.8283 58.856C45.8657 58.7803 45.8897 58.6987 45.8991 58.6148C46.052 58.882 46.179 58.8477 46.2685 58.9361C46.3225 58.6469 46.2604 58.3481 46.0958 58.1043C46.3569 58.1417 46.3486 58.5316 46.9875 58.6241C46.9536 58.4902 46.8966 58.3631 46.819 58.2488C47.0677 58.307 47.3882 58.1781 47.4891 58.2051C47.3288 58.0336 47.2102 57.8246 47.0177 57.7331C47.1549 57.7006 47.2808 57.6316 47.3819 57.5335C47.0364 57.2829 46.5567 57.4565 46.3673 57.3952C46.6556 57.1851 46.7201 57.311 47.0406 56.8732Z" fill="#5DB34F"/>
<path d="M66.6368 41.5863C66.5741 41.7539 66.5741 41.9385 66.6368 42.1061C66.5587 42.0579 66.4733 42.0228 66.3839 42.0022C66.3995 42.3505 66.7325 42.626 66.8001 42.7643C66.5462 42.5563 66.3621 42.6 66.3184 42.5636C66.4099 42.7667 66.5692 42.9317 66.7689 43.0305C66.9864 43.1521 67.0384 43.4017 67.1519 43.436C67.2341 43.4609 67.5286 43.2946 67.873 43.3663C68.2174 43.438 68.3329 43.2769 68.3329 43.2769C68.1849 43.1801 68.0102 43.1321 67.8334 43.1396C68.1664 43.0169 68.2767 43.1001 68.6295 42.7861C68.5537 42.7491 68.472 42.7255 68.3881 42.7165C68.6545 42.5615 68.6191 42.4347 68.7075 42.3453C68.4173 42.293 68.1182 42.3573 67.8751 42.5241C67.9104 42.2631 68.3007 42.2694 68.3881 41.6289C68.2542 41.6635 68.1274 41.7212 68.0135 41.7994C68.0707 41.5499 67.9385 41.2317 67.9656 41.1309C67.7949 41.292 67.5858 41.4126 67.4963 41.605C67.4627 41.4679 67.3926 41.3425 67.2934 41.2421C67.0447 41.5883 67.2216 42.0666 67.1623 42.2569C66.9521 41.9699 67.0769 41.9044 66.6368 41.5863Z" fill="#5DB34F"/>
<path d="M10.1012 50.1193C9.93339 50.0567 9.74862 50.0567 9.58086 50.1193C9.62901 50.0417 9.66416 49.9567 9.68492 49.8677C9.33632 49.8812 9.05537 50.2119 8.92009 50.2742C9.12821 50.0226 9.08762 49.8376 9.12821 49.7949C8.92434 49.885 8.7581 50.0431 8.65786 50.242C8.53507 50.4593 8.28534 50.5082 8.24891 50.6215C8.2229 50.7037 8.38731 50.9989 8.31343 51.3421C8.23955 51.6852 8.3998 51.8027 8.3998 51.8027C8.49757 51.6554 8.5467 51.4812 8.54028 51.3046C8.66098 51.6384 8.57774 51.7476 8.88887 52.1021C8.92628 52.0264 8.95023 51.9448 8.95963 51.8609C9.1126 52.1281 9.23955 52.0938 9.32904 52.1822C9.38304 51.893 9.32099 51.5942 9.1563 51.3504C9.41749 51.3878 9.40917 51.7777 10.0481 51.8702C10.0142 51.7363 9.95713 51.6093 9.87951 51.4949C10.1282 51.5531 10.4487 51.4242 10.5496 51.4512C10.3894 51.2797 10.2708 51.0707 10.0783 50.9792C10.2155 50.9467 10.3413 50.8777 10.4425 50.7796C10.097 50.529 9.61728 50.7026 9.4279 50.6413C9.71614 50.4312 9.78065 50.5571 10.1012 50.1193Z" fill="#5DB34F"/>
<path d="M21.8401 56.2515C22.1509 56.5769 22.5687 56.7795 23.017 56.8223C22.8238 56.9472 22.6523 57.1028 22.5091 57.2829C23.3156 57.6302 24.3156 57.1789 24.6944 57.1893C23.941 57.5335 23.839 57.9993 23.71 58.0575C24.248 58.0169 24.5799 58.0305 25.2636 57.5511C25.7786 57.1914 26.4009 57.3494 26.6038 57.1352C26.7516 56.9762 26.6985 56.1277 27.2396 55.427C27.7807 54.7262 27.5445 54.2832 27.5445 54.2832C27.1623 54.5119 26.8614 54.8544 26.6839 55.2627C26.7724 54.3747 27.0804 54.2167 26.7578 53.0719C26.5905 53.2033 26.4472 53.3627 26.3343 53.543C26.2771 52.7683 25.9503 52.7112 25.8442 52.4117C25.4821 53.0137 25.2292 53.4733 25.3374 54.4839C24.7849 54.1158 25.2282 53.2362 23.8733 52.3379C23.7911 52.5989 23.8099 53.0719 23.8473 53.3776C23.3447 52.9753 22.4779 52.9212 22.2771 52.7538C22.454 53.3184 22.4977 53.9225 22.8348 54.3383C22.404 54.251 21.9181 54.3207 21.7891 54.3976C22.301 55.3427 23.5809 55.4675 23.9462 55.8127C23.0596 55.9593 23.045 55.6027 21.8401 56.2515Z" fill="#5DB34F"/>
<path d="M47.6047 52.1168C47.664 52.5633 47.8823 52.9734 48.2197 53.272C47.9897 53.2593 47.7591 53.2843 47.5371 53.3458C47.9846 54.1007 49.0564 54.3273 49.355 54.553C48.5434 54.3876 48.1864 54.7048 48.047 54.6756C48.5059 54.9595 48.766 55.1654 49.6016 55.1799C50.226 55.1914 50.6422 55.6852 50.9325 55.6291C51.1406 55.5875 51.6027 54.8701 52.4528 54.6216C53.303 54.3731 53.3696 53.8792 53.3696 53.8792C52.9259 53.8393 52.4808 53.9393 52.0969 54.1651C52.6921 53.4997 53.0334 53.5527 53.4497 52.4371C53.2354 52.4444 53.0242 52.4891 52.8253 52.5691C53.2353 51.9089 53.0064 51.6698 53.0948 51.3661C52.4476 51.6396 51.9721 51.8631 51.4643 52.7428C51.2343 52.1189 52.1094 51.6718 51.5444 50.1434C51.3248 50.3066 51.0605 50.6997 50.9138 50.9658C50.7452 50.342 50.0751 49.792 50.0137 49.5352C49.8243 50.0956 49.5038 50.6092 49.5309 51.1447C49.2333 50.8213 48.8025 50.5905 48.6505 50.577C48.508 51.6417 49.4684 52.4953 49.561 52.9892C48.7629 52.5941 48.9617 52.3009 47.6047 52.1168Z" fill="#5DB34F"/>
<path d="M59.1686 46.765C59.205 47.0418 59.3403 47.2962 59.5494 47.4814C59.4071 47.4736 59.2644 47.4891 59.127 47.5271C59.4048 47.995 60.0687 48.1354 60.2539 48.2757C59.7503 48.1718 59.5255 48.3704 59.4433 48.3517C59.7284 48.5274 59.8897 48.6553 60.4079 48.6636C60.7971 48.6709 61.052 48.9755 61.2331 48.9422C61.3653 48.9162 61.6493 48.4712 62.1759 48.3184C62.7024 48.1655 62.7451 47.8578 62.7451 47.8578C62.47 47.8332 62.1942 47.8954 61.9563 48.0356C62.3257 47.6197 62.5369 47.6561 62.7888 46.9646C62.657 46.9697 62.5271 46.9975 62.4048 47.0468C62.6587 46.6371 62.5172 46.4884 62.5723 46.3013C62.1707 46.4708 61.8762 46.6132 61.5619 47.1549C61.4194 46.7692 61.9615 46.4905 61.6119 45.5454C61.4528 45.6912 61.3204 45.8636 61.2206 46.0549C61.1165 45.6691 60.7003 45.327 60.6629 45.168C60.5453 45.5152 60.3507 45.8344 60.3632 46.1661C60.2162 46.0018 60.0274 45.8804 59.8169 45.8147C59.7284 46.4749 60.3247 47.0042 60.3819 47.3109C59.8824 47.0603 60.0083 46.8783 59.1686 46.765Z" fill="#5DB34F"/>
<path d="M4.59609 44.0343C4.40559 44.4423 4.36865 44.9052 4.49203 45.3382C4.30497 45.2039 4.09725 45.101 3.87705 45.0335C3.84687 45.91 4.62835 46.6784 4.75842 47.0288C4.16321 46.4528 3.69286 46.5276 3.58984 46.4288C3.82293 46.9154 3.9322 47.2284 4.63043 47.69C5.15072 48.0384 5.23292 48.6747 5.50972 48.7849C5.71159 48.8639 6.4837 48.5062 7.33386 48.7547C8.18402 49.0032 8.5066 48.6237 8.5066 48.6237C8.15441 48.3515 7.72576 48.1962 7.28079 48.1798C8.14135 47.9385 8.40046 48.1673 9.35051 47.4519C9.16716 47.3441 8.96648 47.2688 8.75738 47.2294C9.45873 46.8936 9.39526 46.5692 9.63355 46.3613C8.94052 46.2438 8.42023 46.1751 7.51804 46.6441C7.65956 45.9963 8.63875 46.0888 8.98422 44.5001C8.71159 44.5188 8.27663 44.7081 8.01024 44.8536C8.20275 44.2392 7.93636 43.4136 8.02377 43.1641C7.56279 43.5342 7.01544 43.7952 6.74905 44.2599C6.67309 43.8274 6.43688 43.4001 6.31305 43.3075C5.61898 44.1279 5.96862 45.3642 5.78027 45.83C5.31201 45.0626 5.63979 44.9243 4.59609 44.0343Z" fill="#5DB34F"/>
</g>
<defs>
<clipPath id="clip0_101_51055">
<path d="M88 0H8C3.58172 0 0 3.58172 0 8V80C0 84.4183 3.58172 88 8 88H88V0Z" fill="white"/>
</clipPath>
</defs>
</svg>
